<?xml version="1.0" encoding="UTF-8"?>
<svg id="Layer_1" xmlns="http://www.w3.org/2000/svg" version="1.1" viewBox="0 0 32 32">
  <!-- Generator: Adobe Illustrator 29.1.0, SVG Export Plug-In . SVG Version: 2.1.0 Build 142)  -->
  <defs>
    <style>
      .st0 {
        fill: #fff;
        fill-rule: evenodd;
      }
    </style>
  </defs>
  <path class="st0" d="M26,3.1H6c-1.5,0-2.8,1.3-2.8,2.8v20c0,1.5,1.3,2.8,2.8,2.8h20c1.5,0,2.8-1.3,2.8-2.8V6c0-1.5-1.3-2.8-2.8-2.8h0ZM10.9,25.3h-3.9v-12.3h3.9v12.3ZM9,11.3c-1.3,0-2.2-1.1-2.2-2.2s1.1-2.2,2.2-2.2,2.2,1.1,2.2,2.2-1.1,2.2-2.2,2.2ZM25.3,25.3h-3.8v-6.5c0-1.8-.7-2.8-2.1-2.8s-2.3,1.1-2.3,2.8v6.5h-3.6v-12.3h3.6v1.6s1.1-2,3.8-2,4.5,1.6,4.5,4.9v7.9h0Z"/>
</svg>