<?xml version="1.0" encoding="UTF-8"?>
<svg id="Layer_1" xmlns="http://www.w3.org/2000/svg" version="1.1" viewBox="0 0 32 32">
  <!-- Generator: Adobe Illustrator 29.1.0, SVG Export Plug-In . SVG Version: 2.1.0 Build 142)  -->
  <defs>
    <style>
      .st0 {
        fill: #fff;
      }
    </style>
  </defs>
  <path class="st0" d="M16.6,3.2c1.4,0,2.8,0,4.2,0,0,1.7.7,3.3,1.9,4.5h0c1.2,1.1,2.8,1.8,4.5,1.9h0v4.3c-1.6,0-3.2-.4-4.6-1.1h0c-.7-.3-1.2-.6-1.8-1h0c0,3.1,0,6.3,0,9.4,0,1.6-.6,3-1.5,4.2h0c-1.4,2-3.7,3.3-6.3,3.4h0c-.1,0-.2,0-.4,0-1.5,0-2.9-.4-4-1.1h0c-2.1-1.3-3.6-3.5-3.9-6h0c0-.6,0-1.1,0-1.6.4-4.1,3.8-7.2,8-7.2s.9,0,1.4.1h0c0,1.6,0,3.2,0,4.7-.4-.1-.8-.2-1.2-.2-1.6,0-3,1-3.5,2.4h0c-.1.4-.2.8-.2,1.2s0,.4,0,.5h0c.3,1.7,1.8,3,3.6,3s.1,0,.2,0h0c1.2,0,2.3-.7,2.9-1.7h0c.2-.3.4-.7.4-1.1h0c.1-1.9,0-3.8,0-5.7,0-4.3,0-8.6,0-12.9h0Z"/>
</svg>