<?xml version="1.0" encoding="UTF-8"?>
<svg id="Layer_1" data-name="Layer 1" xmlns="http://www.w3.org/2000/svg" viewBox="0 0 863.65 453.2">
  <g>
    <path d="M651.08,69.5c.18-.29,1.85-2.84,2.44-2.66,4.46,1.34,5.7,7,7.57,10.58,1.71,3.26,6.85,2.06,8.34,5.83.79,2.01-2.08,3.29-1.53,4.61.81,1.95,4.1,2.39,5.05,4.14,2.25,4.16-1.94,7.97-4.74,10.92-.93.97-3.66.79-5.28.09-1.91-.84-4.36-3.08-2.03-5.5,1.64-1.71,5.11-2.28,4.39-4.63-2.18-7.15-5.7-14.93-12-19.19l-2.22-4.19Z"/>
    <path d="M538.84,156.16h-7.84c1.11-.75,2.18-1.59,3.29-1.94,3.08-1.08,4.28.03,4.55,1.94Z"/>
    <path d="M673.94,155.54c-.09.24-.21.45-.33.63h-7.57c-.48-.42-.9-.9-1.23-1.47-1.62-2.84-1.85-5.86-3.56-8.73-.63-1.08-1.17-4.13.63-4.16,2.24-.06,5.41.69,6.58,3.44,1.64,3.86,7.12,6.37,5.47,10.29Z"/>
    <path d="M415.88,42.03c-3.24.57-6.99.98-9.39-1.79-.32-.37-.31-1.28,0-1.75,2.83-4.47,7.93-.21,12.32-.83.6-.08,1.35.86.85,1.68-.86,1.42-2.29,2.43-3.78,2.7Z"/>
    <path d="M421.54,17.41c-1.23,3.44-4.55,4.96-7.27,7.03-1.94,1.44-2.39,4.25-4.07,6.37-1.26,1.59-3.05,2.18-4.81,2.63-4.4,1.14-8.79.78-13.22,1.59-3.68.66-6.16,3.11-8.64,5.65.51-.84,1.05-1.67,1.62-2.51,1.62-2.48,3.29-4.85,5.02-7.09.63-.84,1.29-1.67,1.94-2.48,1.76-2.18,3.59-4.25,5.47-6.16.93-.96,1.85-1.88,2.81-2.75,1.44-1.35,2.87-2.6,4.34-3.77.63-.48,1.23-.96,1.85-1.41.42-.33.84-.63,1.29-.93.45-.33.87-.63,1.32-.9.99-.66,2-1.29,3.02-1.88.09-.06.18-.09.27-.15,2.12.21,4.19.66,6.22,1.35,2.09.72,3.74,2.93,2.84,5.41Z"/>
    <path d="M280.04,156.15c-1.65-3.56-5.62-5.47-7.93-9.15-.45-.72-.36-1.88-.03-2.72,1.23-3.14,2.57-6.31,1.56-9.51-.21-.72-1.53-1.32-2.6-.96-.24.06-.45.15-.69.27,1.62-6.01,3.56-11.9,5.8-17.65,3.62.18,8.85-4.37,9.87,1.14.39,2.18-1.88,4.64.3,6.61,4.1,3.65,5.35-2.45,8.52-3.77-.63-.33-1.67-.72-1.67-.93.36-2,.9-3.89,1.67-5.65h57.16c-2.72,13.4-4.64,27.58-5.71,42.32h4.52c1.05-14.77,2.99-28.95,5.68-42.32h55.3c-2,3.17-4.07,6.31-6.34,9.42-.6,5.71,1.64,10.77,2.3,16.27.27,2.3-.78,4.7-1.44,7.12,6.97-6.13,15.79-10.11,25.48-10.89,1.2-.09,2.39-.15,3.59-.15.3,0,.6,0,.9.03,15.19.3,28.53,8.37,36.4,20.52h50.99c-.36-.21-.72-.42-1.05-.66-.15-2.12-.3-4.22-.51-6.28,2.24,1.32,4.84,1.85,8.11,1.23,4.76-.93,7.96-5.38,10.08-9.33,2.12-4.01,6.07-10.26,1.47-14.03-7.78-.45-15.79-4.1-19.68-10.71-.39-.72.3-1.85,1.14-2.54h3.98c3.05,1.23,5.62,3.89,7.9,6.58,4.64.48,8.43,2.39,12.38,4.76,12.77-2.33,28.32,4.58,27.64,19.05,1.88,4.16,5.35,7.45,6.43,11.93h9.06c.48-2.9.93-5.68,2.87-7.9,2.51-2.81,3.83-6.19,5.53-9.3,1.38,5.62,2.51,11.37,3.35,17.2h4.52c-1.14-8.05-4.34-21.48-4.46-21.98.42-.45.9-.87,1.41-1.26.39-.33,1.53-.27,1.62-.06,1.85,4.61,5.11,7.27,8.67,10.56.99.93,1.17,2.57,2.12,3.59,2.75,2.87,5.77,5.56,6.82,9.15h22.7c-.45-5.47-7.6-9-9.45-14.83-.15-.48.33-1.5.84-1.7,5.35-2.45,8.58-6.07,13.16-9.84,1.05-.84,1.76-2.33,1.88-3.68.36-4.19-.45-8.22-1.38-12.26h9.42c7.87,13.37,13.55,27.55,16.75,42.32h4.58c-3.08-14.75-8.58-28.92-16.18-42.32h90.35c11.31,13.34,19.47,27.55,24.05,42.32h4.64C760.17,74.95,631.71,11.16,471.76,2.21c-10.62-1.2-21.44-1.91-32.42-2.12h-.06c-1.41-.06-2.84-.09-4.25-.09.6,0,1.2.03,1.79.06-1.17-.03-2.3-.03-3.47-.03h-.51c-1.11-.03-2.24,0-3.35.03-12.23.09-24.23.87-35.98,2.21C233.95,11.4,105.97,75.1,81.77,156.15h4.67c4.55-14.77,12.71-28.98,24.02-42.32h89.88c-7.6,13.4-13.13,27.58-16.21,42.32h4.61c3.2-14.77,8.88-28.95,16.75-42.32h23.72c.18,2.81-.39,5.62.57,8.55,1.11,3.35,1.79,6.7,4.19,9.36.3.3,1.44.3,1.64,0,2.99-4.73-2.87-9.9-1.59-15.1.12-.48,1.29-1.05,1.62-.84,2.33,1.35,3.14,4.13,3.62,6.55,1.73,8.67,3.23,18.09,8.88,24.73,4.91,2.18,9.24,4.55,13.22,7.9l-.15,1.17h18.84ZM411.97,5.95h.21c-.12.03-.18.03-.27.03t.06-.03ZM411.88,5.98c-2.54,1.38-5.05,2.99-7.51,4.82-3.98.57-7.87,1.88-11.34,3.77-5.35-.42-10.62-.24-14.48,4.64l-.93.93c-2.66,2.45-3.92,6.25-.81,8.76-1.11,4.19-4.19,7.42-5.53,11.48-.96,2.93.09,7.03,3.56,6.25.15-.03.27-.06.39-.12-.15.3-.33.6-.48.9h-32.99c-.36-1.44.27-3.26-.51-3.8-4.58-3.32-8.19-.24-11.25,3.8h-6.49c11.28-10.11,23.81-18.72,37.3-25.45,1.88-.27,3.77-.54,5.65-1.38,1.88-.84,4.31,0,6.52-.42,1.41-.24,2.09-1.32,3.35-1.32l.48-.45c1.05-1.11,1.41-3.11.78-3.47-.12-.06-.24-.15-.36-.21,11.07-4.13,22.64-7.09,34.63-8.73ZM318.74,51.89h8.11c-.63.93-1.23,1.76-1.79,2.51-.87,1.11-2.48,1.76-3.41,3.14-1.5,2.15-3.11,7.87-4.88,5.65-.63-2.75-.99-5.14-1.97-7.36,1.29-1.35,2.6-2.66,3.95-3.95ZM315.48,47.41c1.32-1.11,2.87-2.03,4.52-2.81-1.05.93-2.03,1.85-3.05,2.81h-1.47ZM369.17,13.1c-6.01.48-11.9,4.07-17.98,5.68-.3.09-.45,2.15.03,3.17-3.26,1.82-6.43,3.77-9.57,5.83.87-4.37-2.03-7.72-5.92-8.79,14.66-4.61,30.06-8.17,46.03-10.62-4.28,1.41-8.49,2.99-12.59,4.73ZM246.63,68.22c-.66,1.08-1.05,3.77-1.59,4.04-11.19,5.44-17.47,15.58-19.41,27.22-.6,3.5,1.23,6.55,2.48,9.87h-19.92c10.86-17.11,25.27-32.78,42.59-46.48-1.44,1.73-2.93,3.38-4.16,5.35ZM202.96,109.35h-88.56c20.04-22.04,48.66-41.63,83.68-57.69v.24h23.9c-1.56,1.26-3.26,2.27-5.32,2.72.6.51-1.2,2.33.96,1.85,4.46-.99,8.11-4.04,12.29-4.58h2.51c.15.03.27.03.42.06.45.09.72,1.5.99,1.5,2.39-.21,5.38-1.02,8.34-1.56h8.61c1.35.54,2.48,1.41,3.29,2.87-21.21,15.67-38.64,34.13-51.11,54.58ZM264.82,137.52c-1.62.84-3.26,1.14-5.11-.15-1.08-.75-1.76-2.33-1.85-3.62-.36-6.37.63-12.98,4.88-17.86,2.45-2.81,5.86-1.88,9.36-1.32-2.9,7.42-5.32,15.07-7.27,22.94ZM293.92,28.08c-3.95.84-7.54,2.21-11.4,1.41-.66-.12-.93-2.18-2-2.3-10.86-1.17-20.19,4.96-29.58,10.17-1.62.87-3.26-1.47-4.55-.63-3.53,2.33-5.53,6.49-9.75,7.12-2.99.48-5.98.54-8.37,2.39-.48.36-.96.78-1.41,1.17h-19.17c39.96-17.08,87.45-29.7,139.55-36.37-9.21,2.45-18.15,5.26-26.8,8.43-.24.06-.48.12-.72.18-2.9.9-6.04.93-8.43,2.09-.87.42-1.38,1.11-1.67,1.97-3.59,1.47-7.12,2.99-10.59,4.61-1.59-.45-3.26-.63-5.11-.24ZM312.37,51.89s-.09.09-.12.12c-.03-.03-.09-.09-.12-.12h.24ZM309.11,28.71c-.03.72-.06,1.41-.15,2.06-.06.39-1.17.96-1.67.81-.9-.27-1.76-.6-2.6-.96,1.47-.66,2.93-1.29,4.43-1.91ZM352.93,109.35h-55.6c2.15-3.02,5.05-5.53,8.76-7.45,1.05-.54,1.64-2.81,2.45-4.19.93-1.59,3.71-1.79,5.23-3.2,1.97-1.82,3.11-3.86,5.86-4.61,3.38-8.05,21.32-6.34,19.05-12.41-1.41-3.8-.63-8.34,3.89-9.3,2-.45,3.98-.54,5.8-1.94.24-.21,1.56.51,1.53.72-.42,2.63-6.13,8.08-2.27,8.17,2.66-.06,6.25.09,8.25-2.36,2.36-2.93-.99-5.65-.96-8.61.03-4.52-1.44-8.46-3.92-12.26h21.41c-8.17,16.3-14.83,35.77-19.5,57.45ZM431.8,53.03c-1.2-.57-2.6-.6-4.22.15-.69.3.21,2.96-1.23,4.25-.75.69-2.36.9-2.45,1.17-2.78,6.31,3.23,10.77,6.22,16.12.9,1.62-.39,3.47-1.17,4.43-2.36,2.9-6.97,1.14-10.17,3.14.69,3.23-3.29,7.09.21,9.18,2.75,1.67,5.8,2.99,9.3,2.21,1.82-.42,2.93-1.62,3.5-3.11v7.15c-2.75-.3-5.47-.63-8.25-.72-1.23-.03-2.75,1.91-3.68,3.47-1.82,3.05-3.56,5.98-5.32,8.88h-57.13c4.73-21.86,11.48-41.36,19.77-57.45h54.61v1.14ZM431.8,47.41h-52.25c1.29-2.33,2.6-4.58,3.98-6.73.51-.84,1.05-1.67,1.62-2.51,1.62-2.48,3.29-4.85,5.02-7.09.63-.84,1.29-1.67,1.94-2.48,1.76-2.18,3.59-4.25,5.47-6.16.93-.96,1.85-1.88,2.81-2.75,1.44-1.35,2.87-2.6,4.34-3.77.63-.48,1.23-.96,1.85-1.41.42-.33.84-.63,1.29-.93.45-.33.87-.63,1.32-.9.99-.66,2-1.29,3.02-1.88.09-.06.18-.09.27-.15,3.98-2.27,8.08-3.95,12.26-4.96h.03c2.33-.03,4.67-.06,7.03-.06v41.78ZM643.91,47.17c.15-.12.6,0,.99.24h-1.38c.12-.06.27-.15.39-.24ZM515.63,26.41c-1.29,1.62-2.93,2.78-5.35,3.08-3.11.39-6.28-1.79-9.45-1.29-2.96.48-4.58,3.71-7.69,4.43-.96.21-2.09.39-2.72-.09-2.48-1.88-4.43-2-6.13-1.2-8.08-11.25-17.11-19.86-26.8-25.15,20.82,3.02,40.44,10.02,58.14,20.22ZM457.22,6.04c.09.03.18.09.24.15-.36-.06-.72-.12-1.11-.18.3,0,.6.03.87.03ZM436.28,5.65c2.75,0,5.47.03,8.19.09.03-.03.06,0,.06,0,13.34,3.32,25.72,13.22,36.4,28.11-1.59,1.56-3.17,3.32-5.08,4.28-.69.36-2.3-.54-2.57-1.67-2.12-8.52-10.68-9-17.17-7.06-6.97,2.12-10.11,10.35-17.14,13.22-2.24.93-2.48,2.81-1.88,4.79h-.81V5.65ZM436.28,51.89h3.2c.15.24.33.45.48.66,1.91,2.45,3.68.69,5.59-.66h5.26c.93,1.88-.06,4.49,2.33,5.5.54.24,1.38.3,1.76-.03,1.82-1.47,2.87-3.38,3.71-5.47h4.37c-.27,2.3-.9,4.52-2.39,6.43-4.01,5.23-8.55,1.08-13.22-.84-1.91,3.29-3.95,7-8.58,5.71-.75-1.53-1.56-3.41-2.51-5.14v-6.16ZM495.71,101c-5.2,4.73-12.83,2.99-19.62,4.58-1.56.36-3.29,2.03-4.87,2.12-3.53.15-6.85-1.29-10.38-2.09-6.43-1.47-10.5-8.4-17.2-7.6-2.51.3-4.96.27-7.36.12v-12.95c3.95-1.82,7.9-3.59,12.05-4.82,6.73,2.45,12.08,9.27,7.63,16.21,1.14.18,2.21-.96,2.72-.69,3.14,1.59,5.74-.9,8.73-.27-1.32-5.47-5.38-8.85-8.4-13.46-.21-.33.54-1.62.72-1.56,6.4,1.35,10.41,7.51,10.89,14.03.09,1.2,1.7,2.54,3.47,2.84.63.12,1.53.27,1.73-.06,1.94-2.78.81-8.37,4.94-8.46,1.53,5.74,8.28,6.37,13.19,8.08.93.33,2.87,2.99,1.76,3.98ZM498.07,122.24c-.45-1.08-.45-2.57,0-3.68.18-.51,1.41-1.02,1.59-.84,3.17,2.81,4.64,6.58,7.36,9.72,3.92,4.52,6.46,11.75,10.14,16.96.24,2.15.45,4.31.63,6.49-8.08-8.52-15.19-17.77-19.71-28.65ZM517.9,22.55c-9.33-5.41-19.2-9.93-29.49-13.46,11.22,1.88,22.13,4.31,32.69,7.3-1.32,1.85-2.21,4.07-3.2,6.16ZM614.33,36.04c-4.01-.81-7.48-3.14-11.6-4.1-2.48-.6-5.02.18-7.54-.39-2.36-.54-4.49-2-6.76-2.33-6.94-1.05-13.91.66-20.64-.39-15.52-7.24-32.18-13.28-49.77-17.92,38.16,4.85,73.9,12.86,106.03,23.51-2.78.9-5.29,2.48-9.72,1.62ZM649.77,109.35c-.09-.45-.18-.9-.27-1.35-7.36-2.69-13.19-8.46-15.25-16.21,7.03-3.35,12.02,3.89,16.33,8.49.15.15.54.24.9.21,2.15,2.9,4.16,5.86,6.04,8.85h-7.75ZM662.72,109.35c-2.36-3.89-4.94-7.72-7.66-11.46.66-.69.99-1.41.66-2.06-1.11-2.3-2.27-4.99-4.31-6.88,3.68-3.8,2.57-8.64,1.11-13.4l-2.75-4.99c-5.56-5.77-11.52-10.32-18.33-15.07-1.26-.87-1.53-2.81-.78-3.47.06-.03.09-.09.15-.12h16.45c2.06,4.85,4.16,9.54,9,12.05,1.71.9,3.92.21,4.49-1.76,1.11-4.01-3.53-6.7-3.47-10.29h11.28v-.03c34.81,16.03,63.29,35.56,83.24,57.48h-89.07Z"/>
    <path d="M306.29,137.61c-3.6.61-7.01,1.83-7.63-2.9-4.35,3.53-8.96-.23-13.45-1.57-1.49-.45-3.35-.82-4.44-1.6-1.03-.74,1.08-2.17,1.71-2.22,6.62-.53,13.72.53,19.04,4.44,2.28-2.12,6.09-.98,7.36,1.11.26.44-.88,1.58-.69,2.7-.64,0-1.26-.07-1.9.04Z"/>
    <path d="M491.11,325.38c-.27.45-.54.87-.81,1.32.27-.45.51-.87.78-1.32h.03Z"/>
    <path d="M774.82,224.79c-4.85,10.53-11.55,20.7-19.89,30.42h-49.95c3.5-4.07,6.22-8.88,7.87-14.57.63-2.12,3.17-4.1,3.35-6.79.12-1.91.42-3.92-.15-5.65-.39-1.14-.78-2.3-1.29-3.41h-55.27c-4.49,1.73-9.12,3.17-12.86,6.19-1.7,8.02-.78,17.71-5.74,24.23h-45.88c3.92-9.75,7.09-19.92,9.42-30.42h-4.64c-2.33,10.53-5.59,20.7-9.66,30.42h-73.52c1.44-6.85,2.63-13.88,3.65-21.09v-.03c2.6-1.02,4.67-3.92,5.05-6.94.12-.81.18-1.59.3-2.36h-8.67v.06c-.72,1.02-1.35,2.09-1.64,3.32-.36,1.53-.06,3.2.69,4.43-1.02,7.78-2.3,15.31-3.83,22.61h-18.84c3.86-4.49,5.65-10.11,10.32-13.73,1.91-6.01,5.77-11.01,8.2-16.69h-50.1c3.62,6.13,5.77,12.47,6.88,19.5.48,3.08,2.51,5.68,3.26,8.7.15.69,0,1.44-.21,2.21h-35.38v-27.07c-.3.03-.6.03-.9.03-1.2,0-2.39-.06-3.59-.15v27.19h-74.92c-.99-4.7-1.88-9.51-2.63-14.42,4.37-3.89,5.38-9.96,5.68-16h-58.53c.42.78.87,1.53,1.29,2.27,1.35,2.3,3.71,3.74,5.44,5.89.9,1.14,1.65,2.42,1.82,3.77.75,5.47-2.12,10.86-.48,16.09.27.81.54,1.62.81,2.39h-32.33c-4.07-9.72-7.33-19.89-9.66-30.42h-4.64c2.33,10.5,5.5,20.67,9.42,30.42h-67.32c-5.77-9.75-10.38-19.92-13.73-30.42h-4.7c3.2,10.5,7.69,20.7,13.25,30.42h-89.31c-8.34-9.72-15.07-19.89-19.89-30.42h-4.85c32.63,73.58,151.76,130.4,299.21,140.54,15.25,2.12,31.02,3.23,47.11,3.23s31.49-1.08,46.6-3.17c147.9-9.96,267.53-66.85,300.22-140.6h-4.84ZM350.83,247.17c.48,2.72,1.02,5.38,1.56,8.05h-3.68c1.38-2.45,1.67-5.23,2.12-8.05ZM311.98,259.7c2,5.23,4.1,10.35,4.79,16.09,7.06,5.05,6.79,14.24,11.81,20.7,4.88,6.25,9.36,16.03,18.63,13.43,1.17-.33,2.27-1.56,2.78-2.72,2.15-5.02-4.07-6.37-6.1-9.72-2.03-3.44-6.73-4.52-6.61-8.31.12-3.71,1.17-7.48,1.67-11.43.63-5.14,6.07-7.06,8.08-11.57.6-1.38,1.97-2.99,1.11-4.61-.36-.66-1.11-1.26-1.58-1.85h6.79c4.82,21.77,11.69,41.27,20.07,57.48h-52.67c-17.05-15.97-31.02-35.5-40.86-57.48h32.09ZM274.96,259.7c9.48,21.77,22.91,41.3,39.33,57.48h-47.73c-24.26-16.06-44.09-35.59-58.05-57.48h66.46ZM115.27,259.7h87.96c13.37,21.71,32.3,41.21,55.48,57.48h-59.04c-35.23-15.97-64.12-35.5-84.4-57.48ZM209.96,321.67h55.36c15.43,10.11,32.57,18.84,51.05,25.93.18.54.3,1.08.39,1.62l.69,3.29c-39.54-7.03-75.85-17.56-107.49-30.84ZM324.45,331.33c-3.74.6-7.69,2.27-9.24,5.65-.81,1.73-.75,3.47-.36,5.23-14.72-5.8-28.5-12.71-41.24-20.55h45.37c3.86,3.56,7.87,6.91,12.02,10.11-2.03-.6-4.19-.84-6.55-.45ZM362.53,336.8c-2.36-1.64-5.32-1.41-7.48-.6-1.94.78-4.1,2.15-6.25,2.36-8.14-4.96-15.85-10.65-23.09-16.9h44.44c-2.87,4.96-2.96,11.22-7.63,15.13ZM386.46,349.07c-.9-.54-1.65-1.67-1.82-2.75-.48-2.54.15-5.02-.33-7.57-.81-4.67-6.25-6.25-7.09-10.59-.39-2.12-1.11-4.16-1.29-6.28,6.1,10.98,12.92,20.28,20.34,27.52-3.29.78-6.7,1.5-9.81-.33ZM431.8,333.72c-1.79.6-3.56,1.38-5.23,2.39-5.44,3.35-6.07,11.4-12.59,12.83-4.25.93-8.37-.42-12.44-.39-7.6-6.82-14.66-15.94-20.91-26.89h51.17v12.05ZM431.8,317.18h-53.63c-8.49-15.97-15.43-35.5-20.34-57.48h73.96v57.48ZM666.01,253.66c.63.45,1.14.99,1.5,1.56h-2.36c.3-.51.6-1.02.87-1.56ZM660.81,253.75c-.27.48-.54.99-.84,1.47h-2.93c1.23-.57,2.45-1.08,3.77-1.47ZM436.28,259.7h35.59c4.31,4.49,11.01,3.26,16.24,0h23.09c-4.9,21.98-11.87,41.51-20.34,57.48h-54.58v-57.48ZM483.09,330.25c-1.68.69-3.41,1.17-5.23,1.44-8.49,1.17-16.15-.54-24.82.87-2.42.39-4.61-3.14-7.51-2.21-3.05.96-6.19,1.5-9.24,2.21v-10.89h52.13c-1.71,2.99-3.5,5.86-5.32,8.58ZM490.3,326.69c.27-.45.51-.87.78-1.32h.03c-.27.45-.54.87-.81,1.32ZM537.85,325.47c-4.1.78-8.22,1.5-12.17,3.08-2.69,1.08-4.94,3.35-7.78,4.31-1.17.39-3.29.39-3.38.03-3.17-10.35-15.01-12.68-23.42-7.54.69-1.23,1.41-2.42,2.09-3.68h49.17c-1.5,1.29-2.99,2.54-4.52,3.8ZM547.87,322.75c.42-.33.84-.72,1.23-1.08h1.26c-.81.42-1.62.81-2.48,1.08ZM547.33,317.18h-51.74c8.4-16.21,15.25-35.71,20.07-57.48h72.53c-9.84,21.98-23.81,41.51-40.86,57.48ZM593.13,259.7h42.26s-.09.03-.12.06c-.75.39-1.53,1.73-.87,2.6,1.29,1.73,3.77,2.15,5.47,1.67,3.32-.93,6.31-2.57,9.27-4.34h8.08c-13.97,21.89-33.83,41.42-58.08,57.48h-45.34c16.42-16.18,29.85-35.71,39.33-57.48ZM590.07,322.87c-7.03-.45-14.69,1.02-21.56.24-2.72-.3-5.41-.9-8.11-1.44h31.67c-.66.42-1.35.81-2,1.2ZM601.89,340.45c-.33-3.2,1.47-6.07,3.65-8.49.33-.39.33-1.32,0-1.73-2.54-3.26-5.53-5.14-8.82-6.22,1.23-.75,2.45-1.56,3.65-2.33h55.87c-16.87,7.09-35.05,13.37-54.34,18.78ZM666.52,317.18h-59.52c23.18-16.27,42.11-35.77,55.45-57.48h6.01c-.12,1.29-.45,2.54-.87,3.71,3.8.96,9.72-3.44,11.46,1.91,3.2.93,6.37,4.04,9.36,2.51,4.4-2.27,8.49-4.93,12.08-8.14h50.43c-20.28,21.98-49.17,41.51-84.4,57.48Z"/>
    <path d="M720.95,276.71c-3.5,3.31-5.9,7.81-10.52,9.32-3.43,1.11-6.89,2.02-10.45,2.95-1.19.31-2.96.89-3.69-.81-.23-.54-.29-1.47.03-1.75,4.17-3.56,9.44-4.21,13.94-7.18,4.6-3.04,6.07-8.71,10.86-11.83.73-.47,2.3-.66,2.65.79.83,3.45-.26,6.09-2.82,8.51Z"/>
    <path d="M491.08,325.38c-.27.45-.51.87-.78,1.32.27-.45.54-.87.81-1.32h-.03Z"/>
    <g>
      <path d="M151.78,414.36h23.96l-1.72,10.22h-1.68c0-7.67-3.02-8.34-7.75-8.34h-1.68c-2.01,0-2.39.8-2.72,2.14-.29,1.13-1.3,4.69-2.64,9.51h1.42c4.44,0,6.2-2.22,7.21-5.45l1.8.17-3.9,14.33-1.72-.25c.17-.96.33-1.93.33-2.93,0-2.93-1.55-3.98-4.31-3.98h-1.34c-1.47,5.32-3.02,11.02-3.02,11.6,0,1.34,1.34,1.34,2.51,1.34h2.43c7,0,9.43-2.76,12.65-8.67l1.63.29-3.27,10.26h-24.97l.5-1.89h1.21c2.01,0,2.35-.8,2.72-2.22.75-2.81,6.16-21.83,6.16-22.92,0-1.34-1.34-1.34-2.51-1.34h-1.84l.5-1.89Z"/>
      <path d="M177.4,430.99c1.05-1.55,3.73-5.91,5.87-5.91,2.01,0,2.76,1.84,3.52,4.69l.59,2.35,1.55-2.6c.96-1.55,2.89-4.44,5.03-4.44,1.55,0,2.43,1,2.43,2.51,0,1.17-.76,2.05-1.97,2.05-2.09,0-1.13-1.55-2.14-1.55-.88,0-2.47,2.47-3.48,4.32l-1.05,1.93,1.22,5.57c.46,2.18.88,2.81,1.8,2.81,1.17,0,2.43-1.97,3.77-3.98l1.21.75-.59,1.01c-1.3,2.18-3.35,4.73-5.66,4.73-2.89,0-3.65-3.77-3.98-5.45l-.34-1.63h-.08l-1.01,1.84c-1.17,2.14-3.31,5.24-6.07,5.24-1.89,0-2.77-1.21-2.77-2.39,0-1.42.67-2.47,2.05-2.47.88,0,1.47.38,1.72.96.25.67-.17,1.38.75,1.38.84,0,1.63-1.05,2.64-2.81l2.26-3.9-.59-2.89c-.75-3.81-1.13-5.03-2.05-5.03s-2.05,1.51-2.97,2.93l-.5.8-1.17-.84Z"/>
      <path d="M199.8,425.71l6.95-.63-.8,4.02h.08c1.05-2.05,4.4-4.02,6.74-4.02,3.94,0,5.99,2.97,5.99,6.87,0,5.78-4.15,13.28-10.68,13.28-2.26,0-4.57-.96-5.36-3.18h-.08l-2.18,7.46c-.08.29-.25.75-.25,1.17,0,.67.54.84,1.34.84h2.05l-.46,1.67h-9.8l.46-1.67h1.51c.92,0,1.21-.67,1.55-1.8l5.15-17.3c.63-1.93.96-3.52.96-4.06,0-.46-.21-1.17-1.88-1.17h-1.76l.46-1.47ZM207.39,443.35c5.36,0,7.54-8.8,7.54-12.36,0-2.1-1.09-3.81-3.35-3.81-4.86,0-7.79,8.34-7.79,12.15,0,2.22,1.17,4.02,3.6,4.02Z"/>
      <path d="M225.81,414.36l8.04-.63-7.5,24.76c-.46,1.51-.8,2.85-.8,3.6s.42,1.05.96,1.05c1.76,0,4.19-3.81,5.07-5.03l1.22.71c-.8,1.43-3.98,6.41-7.71,6.41-2.47,0-2.89-1.72-2.89-2.85,0-1.34.25-2.51.71-4.02l5.78-19.23c.29-.96.46-1.76.46-2.39,0-.92-.92-.92-1.84-.92h-1.89l.38-1.47Z"/>
      <path d="M243.3,445.24c-4.94,0-7.67-2.93-7.67-7.96,0-5.82,4.86-12.19,11.02-12.19,4.69,0,7.75,3.48,7.75,8.04,0,5.86-4.86,12.11-11.1,12.11ZM250.55,431.54c0-2.68-.96-4.99-3.98-4.99-4.86,0-7.08,8.84-7.08,12.53,0,2.77.96,4.69,4.02,4.69,4.82,0,7.04-8.51,7.04-12.23Z"/>
      <path d="M258.54,425.71l7.29-.63-1.22,5.49h.08c1.55-2.39,3.48-5.49,6.74-5.49,1.89,0,3.23,1.26,3.23,3.14,0,1.34-.84,2.43-2.14,2.43-1.63,0-2.14-.46-2.14-2.14,0-.63-.13-1.13-.92-1.13-1.8,0-6.16,5.91-8.71,17.22h-3.85l3.85-12.19c.63-1.93.96-3.52.96-4.06,0-.46-.21-1.17-1.89-1.17h-1.76l.46-1.47Z"/>
      <path d="M286.89,438.83c-.8,1.43-3.98,6.41-7.71,6.41-2.47,0-2.89-1.72-2.89-2.85,0-1.01.17-1.76.54-3.06l3.06-9.8c.13-.42.29-.84.29-1.43,0-.92-.92-.92-1.84-.92h-1.63l.38-1.47,7.79-.63-4.82,15.21c-.21.63-.42,1.34-.42,1.8,0,.75.42,1.05.96,1.05,1.76,0,4.19-3.81,5.07-5.03l1.21.71ZM284.16,414.65c1.21,0,2.39,1,2.39,2.22s-1.09,2.35-2.35,2.35-2.22-1.13-2.22-2.35,1.01-2.22,2.18-2.22Z"/>
      <path d="M312.55,439.12c-1.51,2.43-4.19,6.12-7.37,6.12-2.01,0-3.06-1.38-3.06-3.31,0-2.05,3.73-10.68,3.73-12.95,0-1.05-.71-1.8-1.76-1.8-2.72,0-5.7,3.73-6.87,5.95-1.89,3.6-2.77,7.58-3.77,11.48h-3.85l3.85-12.19c.63-1.93.96-3.52.96-4.06,0-.46-.21-1.17-1.89-1.17h-1.76l.46-1.47,7.29-.63-1.22,5.49h.08c2.1-2.56,4.4-5.49,8.17-5.49,2.6,0,3.64,2.01,3.64,4.02,0,2.72-3.73,11.9-3.73,13.16,0,.84.54.88,1.05.88,1.09,0,2.89-1.76,4.86-4.78l1.17.75Z"/>
      <path d="M316.93,443.98v-.08c-1.3-.38-2.6-1.59-2.6-3.06,0-2.93,2.89-4.11,5.45-4.23v-.08c-1.89-.67-2.81-2.56-2.81-4.53,0-4.23,4.65-6.91,8.42-6.91,1.22,0,2.93.25,3.77.63,1.47-.96,2.93-1.93,4.69-1.93,1.22,0,2.64.46,2.64,1.84,0,1.17-.67,1.84-1.8,1.84-1.3,0-1.42-1.59-2.35-1.59-.75,0-1.51.46-1.84.71,1.55,1.05,2.56,2.68,2.56,4.52,0,4.73-4.27,7.21-8.55,7.21-.75,0-1.51-.13-2.26-.25-.75-.08-1.51-.21-2.3-.21-1.26,0-2.6.46-2.6,1.8,0,1.51,1.63,1.59,6.95,1.97,3.48.25,6.95,1.01,6.95,4.82,0,5.78-7.21,6.74-11.52,6.74-3.02,0-8.46-.67-8.46-4.69,0-2.98,3.14-4.27,5.65-4.52ZM328.24,447.88c0-3.27-5.74-3.27-7.88-3.27-2.39,0-5.74.76-5.74,3.85s4.19,3.27,6.49,3.27,7.12-.8,7.12-3.85ZM324.3,436.86c3.56,0,5.15-3.52,5.15-6.33s-1.38-3.98-3.85-3.98c-3.56,0-5.03,3.6-5.03,6.41,0,2.39,1.3,3.9,3.73,3.9Z"/>
      <path d="M353.72,427.6h-3.85l.46-1.89h3.98l2.47-7.04h3.35l-2.26,7.04h4.57l-.46,1.89h-4.73l-3.85,12.9c-.17.5-.33,1.05-.33,1.55,0,.84.5,1.09,1.26,1.09,1.63,0,4.27-3.94,5.07-5.19l1.26.84c-1.55,2.6-4.23,6.45-7.67,6.45-2.22,0-3.27-1.46-3.27-3.56,0-.84.29-1.76.5-2.6l3.52-11.48Z"/>
      <path d="M368.54,414.36l8.04-.63-4.86,16.84h.08c2.1-2.56,4.4-5.49,8.17-5.49,2.6,0,3.64,2.01,3.64,4.02,0,2.72-3.73,11.9-3.73,13.16,0,.84.54.88,1.05.88,1.09,0,2.89-1.76,4.86-4.78l1.17.75c-1.51,2.43-4.19,6.12-7.37,6.12-2.01,0-3.06-1.38-3.06-3.31,0-2.05,3.73-10.68,3.73-12.95,0-1.05-.71-1.8-1.76-1.8-2.72,0-5.7,3.73-6.87,5.95-1.89,3.6-2.77,7.58-3.77,11.48h-3.85l7.16-24.68c.38-1.3.71-2.05.71-3.18,0-.92-.92-.92-1.84-.92h-1.89l.38-1.47Z"/>
      <path d="M404.21,440.92c-2.18,2.6-4.56,4.31-8.08,4.31-4.32,0-7.37-2.6-7.37-7.04,0-7.29,5.7-13.11,11.44-13.11,2.55,0,5.07,1.17,5.07,4.19,0,5.45-8.46,7.29-12.57,8.17-.04.38-.08.75-.08,1.09,0,2.93,1.13,4.82,4.32,4.82,2.43,0,4.78-1.8,6.33-3.52l.96,1.09ZM401.91,429.02c0-1.51-.84-2.47-2.3-2.47-4.27,0-6.24,5.95-6.7,9.43,5.61-1.09,9.01-3.52,9.01-6.96Z"/>
      <path d="M425.09,418.8c-.29-2.01-.75-2.56-2.89-2.56h-.75l.5-1.89h10.98l-.5,1.89h-.75c-.92,0-2.43.04-2.43,1.3,0,.38.08.75.13,1.17l2.35,18.18h.08l7.37-17.05-.17-1.21c-.33-2.35-.63-2.39-3.23-2.39h-.84l.5-1.89h11.6l-.5,1.89h-.92c-1.63,0-2.47.08-2.47,1.3,0,.59.13,1.26.17,1.68l2.18,17.68h.08l7.04-16.55c.42-.92.8-1.89.8-2.76s-.71-1.34-2.3-1.34h-1.09l.5-1.89h9.68l-.5,1.89c-3.27.08-4.52,3.27-5.7,5.99l-9.8,22.79h-1.68l-2.93-21.28h-.08l-9.38,21.28h-1.47l-3.56-26.23Z"/>
      <path d="M465.74,445.24c-4.94,0-7.67-2.93-7.67-7.96,0-5.82,4.86-12.19,11.02-12.19,4.69,0,7.75,3.48,7.75,8.04,0,5.86-4.86,12.11-11.1,12.11ZM472.99,431.54c0-2.68-.96-4.99-3.98-4.99-4.86,0-7.08,8.84-7.08,12.53,0,2.77.96,4.69,4.02,4.69,4.82,0,7.04-8.51,7.04-12.23Z"/>
      <path d="M480.98,425.71l7.29-.63-1.22,5.49h.08c1.55-2.39,3.48-5.49,6.74-5.49,1.89,0,3.23,1.26,3.23,3.14,0,1.34-.84,2.43-2.14,2.43-1.63,0-2.14-.46-2.14-2.14,0-.63-.13-1.13-.92-1.13-1.8,0-6.16,5.91-8.71,17.22h-3.85l3.85-12.19c.63-1.93.96-3.52.96-4.06,0-.46-.21-1.17-1.89-1.17h-1.76l.46-1.47Z"/>
      <path d="M501.7,414.36l8.04-.63-7.5,24.76c-.46,1.51-.8,2.85-.8,3.6s.42,1.05.96,1.05c1.76,0,4.19-3.81,5.07-5.03l1.21.71c-.8,1.43-3.98,6.41-7.71,6.41-2.47,0-2.89-1.72-2.89-2.85,0-1.34.25-2.51.71-4.02l5.78-19.23c.29-.96.46-1.76.46-2.39,0-.92-.92-.92-1.84-.92h-1.89l.38-1.47Z"/>
      <path d="M528.95,437.24c-.71,2.43-1.17,3.56-1.17,4.73,0,.63.46,1.17,1.13,1.17,1.47,0,2.93-1.8,3.94-3.48l.92-1.51,1.26.67-.63,1.09c-1.43,2.35-3.6,5.32-6.66,5.32-2.35,0-2.97-1.38-2.97-3.52h-.08c-1.34,2.05-3.9,3.52-6.45,3.52-4.36,0-6.7-2.81-6.7-7.08,0-5.91,5.03-13.07,11.48-13.07,2.22,0,4.11,1.09,4.98,3.35h.08l2.72-9.3c.29-.96.46-1.76.46-2.39,0-.92-.92-.92-1.84-.92h-1.89l.38-1.47,8.04-.63-7,23.5ZM519.19,443.35c5.03,0,7.79-8.97,7.79-12.65,0-2.14-1.47-3.94-3.81-3.94-4.9,0-7.79,7.96-7.79,11.98,0,2.35,1.13,4.61,3.81,4.61Z"/>
      <path d="M556.4,445.24c-4.94,0-7.67-2.93-7.67-7.96,0-5.82,4.86-12.19,11.02-12.19,4.69,0,7.75,3.48,7.75,8.04,0,5.86-4.86,12.11-11.1,12.11ZM563.65,431.54c0-2.68-.96-4.99-3.98-4.99-4.86,0-7.08,8.84-7.08,12.53,0,2.77.96,4.69,4.02,4.69,4.82,0,7.04-8.51,7.04-12.23Z"/>
      <path d="M566.74,453.2c3.94-8.21,5.74-17.13,8-25.6h-3.94l.46-1.89h3.98c1.42-4.82,3.48-11.98,9.51-11.98,2.05,0,4.52,1.17,4.52,3.52,0,1.51-.8,2.43-2.3,2.43-1.05,0-1.97-.75-1.97-1.8,0-1.3.67-1.3.67-2.05,0-.42-.34-.63-.88-.63-3.35,0-4.53,4.48-5.28,6.95l-.92,3.56h5.36l-.46,1.89h-5.4l-3.23,12.99c-1,4.02-2.3,7.92-3.56,11.86l-4.57.75Z"/>
      <path d="M597.42,432.75l1.68.29v1.34c0,5.11,3.02,8.97,8.71,8.97,3.77,0,7.29-1.8,7.29-5.95,0-7.16-14.75-4.32-14.83-14.24,0-5.45,4.44-9.43,9.76-9.43,2.97,0,5.82.96,7.79,3.23l2.56-2.22h1.51l-2.47,10.85-1.68-.29v-1.05c0-4.69-2.14-8.63-7.37-8.63-3.56,0-6.49,1.93-6.49,5.66,0,6.83,15.08,3.94,15.08,14.29,0,6.41-5.49,9.68-11.35,9.68-3.14,0-6.24-1.17-8.5-3.31l-2.72,2.68h-1.47l2.51-11.86Z"/>
      <path d="M638.5,440.08c-1.84,2.81-4.78,5.15-8.29,5.15-4.61,0-7.04-3.31-7.04-7.67,0-5.87,4.73-12.48,10.85-12.48,2.47,0,5.57,1.34,5.57,4.23,0,2.1-1.34,3.18-2.47,3.18-1.26,0-2.26-.71-2.26-1.97,0-.96.59-1.59,1.26-1.76.5-.13.96-.38.96-.84,0-.88-1.67-1.38-2.51-1.38-5.24,0-7.54,7.62-7.54,11.98,0,2.56,1.21,4.82,4.11,4.82,2.43,0,5.03-2.18,6.2-4.15l1.17.88Z"/>
      <path d="M653.49,438.83c-.8,1.43-3.98,6.41-7.71,6.41-2.47,0-2.89-1.72-2.89-2.85,0-1.01.17-1.76.54-3.06l3.06-9.8c.13-.42.29-.84.29-1.43,0-.92-.92-.92-1.84-.92h-1.63l.38-1.47,7.79-.63-4.82,15.21c-.21.63-.42,1.34-.42,1.8,0,.75.42,1.05.96,1.05,1.76,0,4.19-3.81,5.07-5.03l1.22.71ZM650.76,414.65c1.22,0,2.39,1,2.39,2.22s-1.09,2.35-2.35,2.35-2.22-1.13-2.22-2.35,1.01-2.22,2.18-2.22Z"/>
      <path d="M670.81,440.92c-2.18,2.6-4.57,4.31-8.09,4.31-4.32,0-7.37-2.6-7.37-7.04,0-7.29,5.7-13.11,11.44-13.11,2.55,0,5.07,1.17,5.07,4.19,0,5.45-8.46,7.29-12.57,8.17-.04.38-.08.75-.08,1.09,0,2.93,1.13,4.82,4.32,4.82,2.43,0,4.78-1.8,6.33-3.52l.96,1.09ZM668.51,429.02c0-1.51-.84-2.47-2.3-2.47-4.27,0-6.24,5.95-6.7,9.43,5.61-1.09,9.01-3.52,9.01-6.96Z"/>
      <path d="M697.73,439.12c-1.51,2.43-4.19,6.12-7.37,6.12-2.01,0-3.06-1.38-3.06-3.31,0-2.05,3.73-10.68,3.73-12.95,0-1.05-.71-1.8-1.76-1.8-2.72,0-5.7,3.73-6.87,5.95-1.89,3.6-2.77,7.58-3.77,11.48h-3.85l3.85-12.19c.63-1.93.96-3.52.96-4.06,0-.46-.21-1.17-1.89-1.17h-1.76l.46-1.47,7.29-.63-1.21,5.49h.08c2.1-2.56,4.4-5.49,8.17-5.49,2.6,0,3.64,2.01,3.64,4.02,0,2.72-3.73,11.9-3.73,13.16,0,.84.54.88,1.05.88,1.09,0,2.89-1.76,4.86-4.78l1.17.75Z"/>
      <path d="M715.18,440.08c-1.84,2.81-4.78,5.15-8.3,5.15-4.61,0-7.04-3.31-7.04-7.67,0-5.87,4.73-12.48,10.85-12.48,2.47,0,5.57,1.34,5.57,4.23,0,2.1-1.34,3.18-2.47,3.18-1.26,0-2.26-.71-2.26-1.97,0-.96.59-1.59,1.26-1.76.5-.13.96-.38.96-.84,0-.88-1.68-1.38-2.51-1.38-5.24,0-7.54,7.62-7.54,11.98,0,2.56,1.21,4.82,4.11,4.82,2.43,0,5.03-2.18,6.2-4.15l1.17.88Z"/>
      <path d="M733.56,440.92c-2.18,2.6-4.57,4.31-8.09,4.31-4.32,0-7.37-2.6-7.37-7.04,0-7.29,5.7-13.11,11.44-13.11,2.55,0,5.07,1.17,5.07,4.19,0,5.45-8.46,7.29-12.57,8.17-.04.38-.08.75-.08,1.09,0,2.93,1.13,4.82,4.32,4.82,2.43,0,4.78-1.8,6.33-3.52l.96,1.09ZM731.26,429.02c0-1.51-.84-2.47-2.3-2.47-4.27,0-6.24,5.95-6.7,9.43,5.61-1.09,9.01-3.52,9.01-6.96Z"/>
    </g>
    <path d="M807.5,162.5h26.43c12.25,0,21.22,2.32,26.67,14.26,2.32,5.13,3.04,9.85,3.04,15.38,0,10.25-4.73,21.71-14.74,25.79-5.77,2.32-9.45,2.4-15.62,2.4h-25.95v-3.6h2.56c1.44-.08,2.96-.08,4.41-.16.48-.08.8-.32,1.2-.56,1.12-1.68.8-4,.8-5.93v-36.52c0-2.08.4-4.65-.8-6.49-1.04-.72-1.36-.64-2.48-.72l-5.53-.24v-3.6ZM825.04,213.44c0,1.76.16,2.4,1.76,2.96,1.28.48,5.05.32,6.57.32,2.32,0,5.29,0,7.53-.48,4.25-.8,6.49-2.72,8.73-6.33,3.36-5.37,3.68-12.81,3.68-18.98,0-2.8-.16-5.45-.56-8.17-.96-6.57-2.64-11.77-9.05-14.66-3.52-1.68-7.37-2-11.29-2-1.28,0-5.05,0-6.01.4s-1.12,1.12-1.28,2c-.16.56-.08,2-.08,2.64v42.29Z"/>
    <path d="M774.27,161.3h3.12l21.22,51.9c1.6,3.76,3.44,3.36,7.13,3.52v3.6h-24.59v-3.6c2.24-.08,4.56,0,6.73-.48.8-.08,1.68-.88,1.68-1.76,0-.32-.16-.88-.32-1.36l-4.73-11.61h-21.63c-.88,2.16-1.68,4.25-2.4,6.49-.56,1.6-.96,2.56-.96,4.17,0,4.4,4.97,4.48,8.17,4.57v3.6h-21.14v-3.6c4.32-.08,6.81-2.32,8.33-6.25l19.38-49.18ZM783,197.43l-9.45-23.55-9.13,23.55h18.58Z"/>
    <path d="M717.65,220.33v-3.6c1.68-.08,5.37.08,6.81-.48,2.08-.8,2.08-2,2.08-4v-41.81c0-1.44.08-2.24-.88-3.36-2.24-1.52-5.37-.64-7.93-.96v-3.6h26.43v3.6c-2.16,0-4.32,0-6.49.24-1.2.32-1.68.72-2.24,1.84-.16.88-.16,1.76-.16,2.64v41.65c0,.72-.08,1.36.08,2,.24.4.4.88.8,1.2,2.16,1.6,5.29.72,7.85,1.04v3.6h-26.35Z"/>
    <path d="M669.42,220.33v-3.6h2.56c2,0,5.69.24,6.09-2.32.08-.8.16-1.6.24-2.4v-41.49c0-.8.08-1.6-.16-2.32-1.12-2.8-6.33-1.76-8.73-2.08v-3.6h29.15c3.28.16,6.57.4,9.69,1.36,6.89,2,10.89,7.53,10.89,14.66,0,4.24-1.52,7.93-4.57,10.97-2.8,2.88-6.25,4-10.09,4.73-1.52.24-3.12.32-4.72.4-1.28,0-2.64.08-3.93.08-2.96,0-5.85-.16-8.81-.16v15.94c0,1.52,0,3.85.72,5.13.24.4.8.56,1.2.8,1.6.32,3.28.24,4.89.32h2.56v3.6h-26.99ZM687.03,190.94c2.56.08,5.13.16,7.69.16,9.21,0,14.82-2.4,14.82-12.65,0-7.85-3.45-11.85-11.37-12.17-1.76-.16-3.6-.16-5.37-.16-1.28,0-2.64,0-3.84.4-.32.08-.64.16-.96.32-.96.64-.88,1.92-.96,2.96v21.14Z"/>
    <path d="M587.36,220.33v-3.6c2.48-.16,6.57-.64,7.77-3.2,1.36-2.88,1.52-6.01,1.52-9.13v-34.52c-.16-1.76-.24-2.56-1.84-3.53-.96-.24-1.92-.24-2.88-.24h-4.41v-3.6h20.58l15.62,43.33,14.82-43.33h20.18v3.6c-2.32.16-4.72,0-7.05.4-.8.32-1.12.56-1.44,1.44-.48,1.68-.4,3.6-.4,5.37v39.97c0,1.76.24,2.64,2.16,2.96,2.16.48,4.4.48,6.57.48v3.6h-26.35v-3.6c1.28,0,2.64,0,3.92-.16,4.09-.24,4.97-.48,4.97-4.65v-45.17h-.08l-18.18,53.58h-2.96l-19.3-53.74h-.08v38.84c0,7.37.8,11.05,9.37,11.29v3.6h-22.51Z"/>
    <path d="M553.81,166.11h-2.56c-1.2,0-4.65-.32-5.13.72-.4.48-.24,1.36,0,1.92.16.64.56,1.2.88,1.76l13.46,21.55,9.45-16.82c.56-1.04,1.12-2.08,1.6-3.2.32-1.2.48-2.56.08-3.76-.32-.4-.64-.88-1.12-1.2-2.16-.88-4.48-.88-6.73-.96v-3.6h22.59v3.6c-6.09.24-8.25,2.56-11.05,7.69l-12.74,22.75v15.22c0,4.24.24,4.8,4.81,4.97h4.48v3.6h-27.47v-3.6h2.4c2-.16,6.25.32,6.89-2,.16-1.28.16-2.64.16-3.92v-13.54l-16.1-25.55c-.88-1.44-2.56-4.4-4.25-5.05-1.2-.48-2.08-.56-3.36-.56h-1.92v-3.6h25.63v3.6Z"/>
    <path d="M478.6,162.5h26.43v3.6c-1.68,0-3.36,0-5.05.08-1.04,0-2.16.08-3.04.72-.4.24-.56.8-.72,1.2-.24.8-.24,1.76-.24,2.56v40.69c0,1.68-.08,4.25,1.84,4.97,2.24.4,4.65.4,6.97.4,4,0,8.41-.16,11.93-2.24,3.44-2.08,4.65-5.85,5.85-9.37.72-2.16,1.28-4.49,1.6-6.73l3.36.16-1.68,21.78h-47.26v-3.6c1.92-.08,3.76-.08,5.69-.24,2.96-.16,2.96-2.16,2.96-4.57v-42.61c0-.72-.08-1.44-.56-2-.24-.4-.72-.56-1.04-.8-2.32-.4-4.73-.4-7.05-.4v-3.6Z"/>
    <path d="M434.08,222.94c-23,0-38.15-20.24-38.15-41.58,0-16.48,12.27-41.58,37.93-41.58,23,0,38.15,20.24,38.15,41.58,0,16.48-12.27,41.58-37.93,41.58ZM433.86,144.76c-20.01,0-23.77,20.57-23.77,36.6,0,11.17,1.22,36.6,24,36.6,20.01,0,23.77-20.57,23.77-36.6,0-11.17-1.22-36.6-24-36.6Z"/>
    <path d="M332.99,162.5h48.22l1.12,20.5h-3.36c-2.64-15.3-6.41-16.9-20.98-16.9h-1.6c-4.08,0-5.93,0-5.93,3.12v19.3h2.88c6.97,0,10.17-3.04,10.65-10.97h3.6v26.35h-3.6c0-7.13-2.88-11.69-9.13-11.69h-4.4v21.46c0,.96.16,1.12.8,2,1.12.72,2.4.64,3.68.72,1.68.32,3.36.32,5.13.32,2.16,0,4.33,0,6.57-.4,8.65-.8,11.13-6.57,12.98-14.18.24-.96.4-1.92.72-3.2h3.28l-1.52,21.38h-49.26v-3.6h2.4c2.16-.16,5.77.16,6.33-2.56.16-1.12.16-2.32.16-3.44v-38.76c0-1.12,0-2.32-.08-3.45-.24-1.6-1.12-2-2.64-2.16-2-.24-4-.24-6.01-.24v-3.6Z"/>
    <path d="M320.91,161.78h2.96l1.12,23.15-3.44.16c-.72-2.48-1.36-4.97-2.32-7.37-1.6-3.92-2.72-6.49-6.01-9.21-2.88-2.4-6.25-3.6-10.01-3.6-6.33,0-11.37,3.85-13.7,9.61-2.48,6.17-2.8,11.78-2.8,18.34,0,12.09,2.96,25.07,17.7,25.07,11.05,0,16.5-7.77,18.1-17.94l3.68.64c-1.84,12.98-9.61,20.91-22.99,20.91-16.1,0-26.91-13.3-26.91-28.75,0-7.93,1.92-15.3,7.05-21.38,5.13-6.25,11.53-10.09,19.78-10.09,5.29,0,10.73,1.76,14.5,5.53l3.28-5.05Z"/>
    <path d="M208.94,220.33v-3.6c1.84-.24,3.68-.4,5.45-1.04,4.08-1.52,4.08-7.93,4.08-11.53v-35.4c-1.44-1.92-3.28-2.48-5.61-2.56-1.28-.08-2.64-.08-3.92-.08v-3.6h16.74l31.8,43.17h.16v-30.36c-.24-6.81-2.24-8.73-9.13-9.21v-3.6h22.51v3.6c-7.77.48-8.97,3.04-9.29,10.25v45.17h-3.12l-35.88-49.02h-.16v33.16c0,3.2-.16,6.33,2.08,8.97.96.8,2.08,1.28,3.28,1.6,1.36.32,2.8.4,4.17.48v3.6h-23.15Z"/>
    <path d="M152.08,162.5h48.22l1.12,20.5h-3.36c-2.64-15.3-6.41-16.9-20.98-16.9h-1.6c-4.08,0-5.93,0-5.93,3.12v19.3h2.88c6.97,0,10.17-3.04,10.65-10.97h3.6v26.35h-3.6c0-7.13-2.88-11.69-9.13-11.69h-4.41v21.46c0,.96.16,1.12.8,2,1.12.72,2.4.64,3.68.72,1.68.32,3.36.32,5.13.32,2.16,0,4.32,0,6.57-.4,8.65-.8,11.13-6.57,12.97-14.18.24-.96.4-1.92.72-3.2h3.28l-1.52,21.38h-49.26v-3.6h2.4c2.16-.16,5.77.16,6.33-2.56.16-1.12.16-2.32.16-3.44v-38.76c0-1.12,0-2.32-.08-3.45-.24-1.6-1.12-2-2.64-2.16-2-.24-4-.24-6.01-.24v-3.6Z"/>
    <path d="M120.05,220.33v-3.6c1.68-.08,5.37.08,6.81-.48,2.08-.8,2.08-2,2.08-4v-41.81c0-1.44.08-2.24-.88-3.36-2.24-1.52-5.37-.64-7.93-.96v-3.6h26.43v3.6c-2.16,0-4.33,0-6.49.24-1.2.32-1.68.72-2.24,1.84-.16.88-.16,1.76-.16,2.64v41.65c0,.72-.08,1.36.08,2,.24.4.4.88.8,1.2,2.16,1.6,5.29.72,7.85,1.04v3.6h-26.35Z"/>
    <path d="M107.4,161.78h2.96l1.12,23.15-3.44.16c-.72-2.48-1.36-4.97-2.32-7.37-1.6-3.92-2.72-6.49-6.01-9.21-2.88-2.4-6.25-3.6-10.01-3.6-6.33,0-11.37,3.85-13.7,9.61-2.48,6.17-2.8,11.78-2.8,18.34,0,12.09,2.96,25.07,17.7,25.07,11.05,0,16.5-7.77,18.1-17.94l3.68.64c-1.84,12.98-9.61,20.91-22.99,20.91-16.1,0-26.91-13.3-26.91-28.75,0-7.93,1.92-15.3,7.05-21.38,5.13-6.25,11.53-10.09,19.78-10.09,5.29,0,10.73,1.76,14.5,5.53l3.28-5.05Z"/>
    <path d="M0,190.99l4.75-.33c0,.44.22.89.22,1.33,2.77,14.38,11.94,25.99,27.54,25.99,4.86,0,9.29-.77,13.05-3.98,3.21-2.65,5.42-6.3,5.42-10.5,0-3.32-1.22-7.85-3.54-10.28-2.32-2.54-5.09-3.54-8.4-4.42l-11.17-2.88c-6.97-1.77-13.16-2.87-19.02-7.3-5.09-3.76-7.19-9.62-7.19-15.81,0-14.82,9.95-23,24.22-23,7.96,0,14.38,2.32,20.35,7.74l4.42-6.97h3.98l1.33,28.86h-4.75c-2.88-12.49-10.84-24.66-24.99-24.66-4.2,0-8.4.77-11.72,3.54-2.76,2.32-4.53,5.97-4.53,9.62,0,8.07,6.19,11.5,13.05,13.27l18.02,4.75c5.97,1.55,10.06,3.32,13.93,8.4,3.43,4.42,4.65,9.4,4.65,14.93,0,7.19-3.1,13.93-8.85,18.36-4.87,3.87-12.16,5.31-18.24,5.31-3.21,0-10.17-1.11-13.05-2.32-3.43-1.55-7.08-3.65-9.84-6.19l-4.87,7.63H.66l-.66-31.07Z"/>
  </g>
  <g>
    <path d="M689.24,336.73h10.35l.09,3.11h-.44c-.21-.98-.49-1.61-.82-1.91-.33-.29-1.03-.44-2.09-.44h-1.01v9.35c0,.71.11,1.14.33,1.31.22.17.7.28,1.44.33v.35h-5.34v-.35c.78-.06,1.26-.18,1.45-.38s.29-.69.29-1.47v-9.13h-1.02c-1.01,0-1.7.15-2.07.44-.37.29-.64.93-.83,1.91h-.45l.11-3.11Z"/>
    <path d="M700.27,348.48c.75-.08,1.24-.25,1.45-.51.21-.27.32-.88.32-1.84v-7.42c0-.66-.1-1.09-.31-1.29-.21-.2-.68-.32-1.42-.35v-.35h3.62l4.2,9.11,4.09-9.11h3.63v.35c-.68.05-1.12.17-1.31.37-.2.2-.29.63-.29,1.27v8.12c0,.66.1,1.09.29,1.28.2.19.63.31,1.31.37v.35h-5.12v-.35c.74-.06,1.2-.19,1.38-.39.18-.21.27-.69.27-1.47v-8.2l-4.68,10.41h-.25l-4.6-9.98v7.28c0,1,.15,1.65.44,1.95.19.2.62.33,1.28.4v.35h-4.3v-.35Z"/>
  </g>
</svg>