<?xml version="1.0" encoding="UTF-8"?>
<svg id="Layer_2" data-name="Layer 2" xmlns="http://www.w3.org/2000/svg" viewBox="0 0 383.16 54.24">
  <defs>
    <style>
      .cls-1 {
        fill: #fff;
      }
    </style>
  </defs>
  <g id="Layer_2-2" data-name="Layer 2">
    <g id="text">
      <g>
        <path class="cls-1" d="M16.41,21.78H0v-6.81c0-.35.04-.72.11-1.11s.18-.78.33-1.17.34-.75.58-1.1.52-.66.86-.93c.34-.27.72-.48,1.17-.64.44-.16.94-.24,1.5-.24h7.3c.44,0,.77-.12.98-.38s.32-.62.32-1.1v-1.63c0-.5-.11-.88-.32-1.13-.22-.25-.53-.38-.95-.38H1.47V1.48h10.41c.55,0,1.04.08,1.48.24.44.16.83.38,1.17.64.34.27.62.58.87.93.24.35.44.71.59,1.1.15.38.27.77.34,1.16s.11.76.11,1.1v1.66c0,.95-.15,1.76-.45,2.41-.3.66-.68,1.19-1.14,1.6s-.95.71-1.48.89c-.53.18-1.02.28-1.48.28h-7.33c-.27,0-.48.04-.64.13-.16.08-.28.2-.37.34s-.15.3-.19.48-.07.36-.1.54v3.13h13.17v3.68h-.02Z"/>
        <path class="cls-1" d="M39.83,13.28c0,.83-.09,1.62-.28,2.36s-.45,1.43-.79,2.06-.74,1.2-1.21,1.7c-.47.5-.97.93-1.53,1.28-.55.35-1.14.63-1.76.81s-1.26.28-1.91.28h-5.84c-.66,0-1.3-.09-1.92-.28s-1.21-.46-1.76-.81c-.55-.35-1.06-.78-1.53-1.28-.47-.5-.87-1.07-1.2-1.7-.34-.63-.6-1.32-.79-2.06-.19-.74-.28-1.53-.28-2.36v-3.31c0-1.25.21-2.39.62-3.43s.96-1.93,1.65-2.68c.69-.75,1.48-1.34,2.39-1.76s1.84-.63,2.82-.63h5.84c.65,0,1.28.09,1.91.28s1.21.46,1.76.81c.55.35,1.06.78,1.53,1.28.46.5.87,1.07,1.21,1.7.34.63.6,1.32.79,2.06s.28,1.53.28,2.36v3.31h0ZM36.56,9.97c0-.73-.12-1.39-.35-1.98s-.54-1.1-.93-1.53-.83-.75-1.34-.98-1.04-.33-1.59-.33h-5.84c-.54,0-1.07.1-1.58.32-.51.22-.96.54-1.36.96s-.71.93-.95,1.53-.36,1.27-.36,2v3.31c0,.74.12,1.4.35,2s.54,1.1.93,1.52.84.74,1.35.97,1.04.34,1.6.33h5.84c.64,0,1.22-.12,1.74-.36s.96-.57,1.33-1,.65-.93.85-1.52.3-1.23.3-1.93v-3.31h.01ZM35.15,7.28c.12.21.21.43.25.67s.04.48,0,.71c-.04.23-.12.45-.24.65-.12.2-.28.38-.47.52l-8.75,6.64c-.14.12-.29.21-.44.26-.15.05-.3.07-.46.07-.27,0-.52-.07-.76-.21-.24-.14-.44-.34-.58-.61-.12-.21-.21-.43-.25-.67s-.04-.48,0-.71.11-.45.23-.65.27-.38.46-.52l8.77-6.64c.18-.14.38-.24.59-.28.21-.05.42-.05.62,0s.39.14.57.27.33.3.46.51h0Z"/>
        <path class="cls-1" d="M58.77,21.78h-16.41v-6.81c0-.35.04-.72.11-1.11s.18-.78.33-1.17.34-.75.58-1.1.52-.66.86-.93c.34-.27.72-.48,1.17-.64.44-.16.94-.24,1.5-.24h7.3c.44,0,.77-.12.98-.38s.32-.62.32-1.1v-1.63c0-.5-.11-.88-.32-1.13-.22-.25-.53-.38-.95-.38h-10.41V1.48h10.41c.55,0,1.04.08,1.48.24s.83.38,1.17.64c.34.27.62.58.87.93.24.35.44.71.59,1.1.15.38.27.77.34,1.16s.11.76.11,1.1v1.66c0,.95-.15,1.76-.45,2.41-.3.66-.68,1.19-1.14,1.6s-.95.71-1.48.89c-.53.18-1.02.28-1.48.28h-7.33c-.27,0-.48.04-.64.13-.16.08-.28.2-.37.34s-.15.3-.19.48c-.04.18-.07.36-.1.54v3.13h13.17v3.68h-.02Z"/>
        <path class="cls-1" d="M64.69,9.77h8.62c.46,0,.95.09,1.48.28.53.18,1.02.48,1.48.89.46.41.84.95,1.14,1.61s.46,1.47.46,2.42v1.64c0,.35-.04.72-.11,1.1-.07.39-.18.77-.34,1.15-.15.38-.35.75-.59,1.1s-.52.66-.86.93c-.34.27-.72.48-1.17.64-.44.16-.94.24-1.5.24h-5.87c-.4,0-.82-.05-1.28-.16-.45-.1-.9-.27-1.34-.5-.44-.23-.87-.52-1.28-.88-.41-.35-.77-.78-1.08-1.29s-.55-1.09-.74-1.75c-.19-.66-.28-1.41-.28-2.24v-6.67c0-.83.09-1.58.28-2.24s.43-1.24.74-1.75.67-.94,1.08-1.29c.41-.36.84-.65,1.28-.89.44-.23.89-.4,1.34-.5s.88-.16,1.28-.16h8.12v3.68h-8.12c-.42.04-.79.14-1.13.3s-.63.37-.87.64c-.24.26-.43.58-.56.96s-.2.79-.2,1.25v1.47l.02.02ZM64.69,13.48v1.49c0,.48.07.91.22,1.29.14.38.34.71.59.98s.54.48.88.63c.34.15.7.22,1.09.22h5.84c.42,0,.73-.14.95-.42.22-.28.33-.64.33-1.06v-1.64c0-.48-.11-.85-.32-1.11-.22-.25-.54-.38-.98-.38h-8.6,0Z"/>
        <path class="cls-1" d="M106.96,20.21c0,.26-.04.51-.13.74s-.2.42-.35.59-.32.29-.52.39-.41.14-.64.14c-.2,0-.4-.04-.6-.13-.2-.09-.38-.22-.54-.41l-11.84-14.05v14.3h-3.24V3.05c0-.38.09-.72.28-1.03s.43-.54.72-.69c.31-.14.62-.18.95-.11.32.07.6.24.83.52l11.84,14.03V1.47h3.24v18.73h0Z"/>
        <path class="cls-1" d="M124.16,16.71c0,.51-.08,1.06-.24,1.65s-.41,1.14-.77,1.64c-.35.5-.81.93-1.38,1.27-.57.34-1.26.51-2.07.51h-5.84c-.45,0-.93-.09-1.45-.27-.52-.18-1-.47-1.45-.87s-.82-.93-1.12-1.57c-.3-.65-.45-1.43-.45-2.36,0-.51.08-1.06.24-1.66.16-.59.41-1.14.77-1.65.35-.5.81-.93,1.38-1.27.57-.34,1.26-.51,2.07-.51h5.84v3.51h-5.84c-.44,0-.78.15-1.02.46s-.36.69-.36,1.14c0,.48.14.86.42,1.13s.61.4.99.4h5.82c.44,0,.78-.15,1.02-.45s.36-.68.36-1.13v-5.14c0-.48-.13-.86-.39-1.15s-.59-.42-.99-.42h-7.12v-3.5h7.12c.45,0,.93.09,1.45.27.52.18,1,.47,1.45.87.44.4.82.92,1.12,1.57.3.65.45,1.43.45,2.36v5.17h0Z"/>
        <path class="cls-1" d="M139.33,10.15h-5.66v11.62h-3.28v-11.62h-4.21v-3.68h4.21V1.47h3.28v5h5.66v3.68Z"/>
        <path class="cls-1" d="M144.79,3.33h-3.24V0h3.24v3.33ZM144.79,21.78h-3.24V6.47h3.24v15.31Z"/>
        <path class="cls-1" d="M162.41,16.61c0,.63-.07,1.2-.21,1.71-.14.5-.33.95-.56,1.33s-.5.71-.81.98c-.31.27-.63.49-.97.66s-.68.3-1.02.38-.67.12-.98.12h-5.84c-.45,0-.94-.09-1.47-.27-.53-.18-1.02-.47-1.48-.88-.45-.41-.83-.94-1.13-1.6s-.46-1.46-.46-2.41v-4.98c0-.94.15-1.74.46-2.4.3-.66.68-1.19,1.13-1.6.45-.41.94-.71,1.48-.88.53-.18,1.02-.27,1.47-.27h5.84c.83,0,1.54.17,2.12.51s1.05.77,1.41,1.28.62,1.07.78,1.68.24,1.17.24,1.69v4.98-.03ZM159.17,11.65c0-.51-.11-.89-.34-1.13-.22-.25-.55-.37-.97-.37h-5.82c-.43,0-.76.12-.98.38s-.34.62-.34,1.1v4.98c0,.48.11.85.34,1.1.22.26.55.38.98.38h5.82c.44,0,.77-.13.98-.38.22-.25.32-.62.32-1.1v-4.96h0Z"/>
        <path class="cls-1" d="M179.96,21.78h-3.24v-8.5c0-.48-.07-.91-.22-1.3-.15-.38-.34-.71-.59-.98-.25-.27-.54-.48-.88-.63-.34-.15-.7-.22-1.09-.22h-5.67v11.62h-3.24v-13.48c0-.25.04-.49.12-.71s.2-.42.35-.58c.15-.17.32-.29.52-.39.2-.09.41-.14.63-.14h7.3c.41,0,.84.05,1.29.16.45.1.9.27,1.35.5s.87.52,1.27.88c.4.35.76.78,1.07,1.29s.56,1.09.74,1.75.27,1.41.27,2.24v8.5h.02Z"/>
        <path class="cls-1" d="M196.85,16.71c0,.51-.08,1.06-.24,1.65s-.41,1.14-.77,1.64c-.35.5-.81.93-1.38,1.27-.57.34-1.26.51-2.07.51h-5.84c-.45,0-.93-.09-1.45-.27-.52-.18-1-.47-1.45-.87s-.82-.93-1.12-1.57c-.3-.65-.45-1.43-.45-2.36,0-.51.08-1.06.24-1.66.16-.59.41-1.14.77-1.65.35-.5.81-.93,1.38-1.27.57-.34,1.26-.51,2.07-.51h5.84v3.51h-5.84c-.44,0-.78.15-1.02.46s-.36.69-.36,1.14c0,.48.14.86.42,1.13s.61.4.99.4h5.82c.44,0,.78-.15,1.02-.45s.36-.68.36-1.13v-5.14c0-.48-.13-.86-.39-1.15s-.59-.42-.99-.42h-7.12v-3.5h7.12c.45,0,.93.09,1.45.27.52.18,1,.47,1.45.87.44.4.82.92,1.12,1.57.3.65.45,1.43.45,2.36v5.17h-.01Z"/>
        <path class="cls-1" d="M205.38,21.78h-1.45c-.47,0-.96-.09-1.49-.27-.53-.18-1.02-.47-1.48-.88-.46-.41-.83-.94-1.13-1.6s-.45-1.46-.45-2.41V0h3.24v16.61c0,.45.12.81.37,1.08s.56.4.93.4h1.45v3.68h.01Z"/>
        <path class="cls-1" d="M232.27,5.15h-7.14v16.62h-3.24V5.15h-7.15V1.47h17.53v3.68Z"/>
        <path class="cls-1" d="M245.71,16.61c0,.63-.07,1.2-.21,1.71-.14.5-.33.95-.56,1.33s-.5.71-.81.98c-.31.27-.63.49-.97.66s-.68.3-1.02.38-.67.12-.98.12h-5.84c-.45,0-.94-.09-1.47-.27-.53-.18-1.02-.47-1.48-.88-.45-.41-.83-.94-1.13-1.6s-.46-1.46-.46-2.41v-4.98c0-.94.15-1.74.46-2.4.3-.66.68-1.19,1.13-1.6.45-.41.94-.71,1.48-.88.53-.18,1.02-.27,1.47-.27h5.84c.83,0,1.54.17,2.12.51s1.05.77,1.41,1.28.62,1.07.78,1.68.24,1.17.24,1.69v4.98-.03ZM242.47,11.65c0-.51-.11-.89-.34-1.13-.22-.25-.55-.37-.97-.37h-5.82c-.43,0-.76.12-.98.38s-.34.62-.34,1.1v4.98c0,.48.11.85.34,1.1.22.26.55.38.98.38h5.82c.44,0,.77-.13.98-.38.22-.25.32-.62.32-1.1v-4.96h0Z"/>
        <path class="cls-1" d="M263.04,19.92c0,.26-.04.51-.12.74s-.2.42-.34.59c-.15.17-.32.29-.51.39s-.4.14-.63.14h-7.33c-.4,0-.82-.05-1.28-.16-.45-.1-.9-.27-1.34-.5s-.87-.52-1.28-.88c-.41-.35-.77-.78-1.08-1.29-.31-.5-.55-1.09-.74-1.75s-.28-1.41-.28-2.24V6.46h3.24v8.5c0,.48.07.91.22,1.29.15.38.34.71.59.98.25.27.54.48.88.63.34.15.7.22,1.09.22h5.67V6.46h3.24v13.45h0Z"/>
        <path class="cls-1" d="M277.71,10.15h-7.29c-.44,0-.77.12-1,.38-.22.25-.34.62-.34,1.1v10.15h-3.24v-10.15c0-.63.07-1.2.21-1.7.14-.5.33-.94.57-1.32.24-.38.51-.71.82-.98.31-.27.63-.49.97-.66s.68-.29,1.02-.38c.34-.08.67-.12.97-.12h7.31v3.68Z"/>
        <path class="cls-1" d="M294.83,21.78h-3.24v-8.5c0-.48-.07-.91-.22-1.3-.15-.38-.34-.71-.59-.98-.25-.27-.54-.48-.88-.63-.34-.15-.7-.22-1.09-.22h-5.67v11.62h-3.24v-13.48c0-.25.04-.49.12-.71s.2-.42.35-.58c.15-.17.32-.29.52-.39.2-.09.41-.14.63-.14h7.3c.41,0,.84.05,1.29.16.45.1.9.27,1.35.5s.87.52,1.27.88c.4.35.76.78,1.07,1.29s.56,1.09.74,1.75.27,1.41.27,2.24v8.5h.02Z"/>
        <path class="cls-1" d="M311.72,16.71c0,.51-.08,1.06-.24,1.65s-.41,1.14-.77,1.64c-.35.5-.81.93-1.38,1.27-.57.34-1.26.51-2.07.51h-5.84c-.45,0-.93-.09-1.45-.27-.52-.18-1-.47-1.45-.87s-.82-.93-1.12-1.57c-.3-.65-.45-1.43-.45-2.36,0-.51.08-1.06.24-1.66.16-.59.41-1.14.77-1.65.35-.5.81-.93,1.38-1.27.57-.34,1.26-.51,2.07-.51h5.84v3.51h-5.84c-.44,0-.78.15-1.02.46s-.36.69-.36,1.14c0,.48.14.86.42,1.13s.61.4.99.4h5.82c.44,0,.78-.15,1.02-.45s.36-.68.36-1.13v-5.14c0-.48-.13-.86-.39-1.15s-.59-.42-.99-.42h-7.12v-3.5h7.12c.45,0,.93.09,1.45.27.52.18,1,.47,1.45.87.44.4.82.92,1.12,1.57.3.65.45,1.43.45,2.36v5.17h-.01Z"/>
        <path class="cls-1" d="M326.37,21.78h-3.24v-10.15c0-.48-.11-.85-.34-1.1s-.56-.38-1-.38h-4.21v11.62h-3.24v-13.48c0-.25.04-.49.12-.71s.2-.42.35-.58c.15-.17.32-.29.52-.39.2-.09.41-.14.63-.14h5.84c.45,0,.93.09,1.45.27.51.18,1,.47,1.47.86v-1.13h4.39c.31,0,.63.04.97.12s.68.21,1.02.38.66.39.97.66.58.59.81.98c.23.38.42.82.56,1.32.14.5.21,1.07.21,1.7v10.15h-3.24v-10.15c0-.48-.11-.85-.32-1.1s-.54-.38-.98-.38h-2.92c.11.45.16.94.16,1.47v10.15h.02Z"/>
        <path class="cls-1" d="M351,11.54c0,.51-.08,1.06-.24,1.65s-.41,1.14-.77,1.64c-.35.5-.81.93-1.38,1.27s-1.26.51-2.07.51h-5.84v-3.5h5.84c.44,0,.78-.15,1.02-.46.24-.31.36-.69.36-1.14,0-.48-.13-.86-.41-1.13-.27-.27-.6-.41-.98-.41h-5.84c-.44,0-.78.15-1.02.46-.24.31-.36.69-.36,1.14v5.14c0,.49.13.87.4,1.15.27.27.6.41,1,.41h5.82v3.51h-5.84c-.45,0-.93-.09-1.45-.27-.52-.18-1-.47-1.45-.87s-.82-.93-1.12-1.57c-.3-.65-.45-1.43-.45-2.36v-5.17c0-.51.08-1.06.24-1.65s.41-1.14.77-1.64c.35-.5.81-.93,1.38-1.27.57-.34,1.26-.51,2.07-.51h5.84c.45,0,.93.09,1.45.27s1,.47,1.45.87.82.92,1.12,1.57c.3.65.45,1.43.45,2.36h.01Z"/>
        <path class="cls-1" d="M368.14,21.78h-3.24v-8.5c0-.48-.07-.91-.22-1.3-.15-.38-.34-.71-.59-.98-.25-.27-.54-.48-.88-.63-.34-.15-.7-.22-1.09-.22h-5.67v11.62h-3.24v-13.48c0-.25.04-.49.12-.71s.2-.42.35-.58c.15-.17.32-.29.52-.39.2-.09.41-.14.63-.14h7.3c.41,0,.84.05,1.29.16.45.1.9.27,1.35.5s.87.52,1.27.88c.4.35.76.78,1.07,1.29s.56,1.09.74,1.75.27,1.41.27,2.24v8.5h.02Z"/>
        <path class="cls-1" d="M383.16,10.15h-5.66v11.62h-3.28v-11.62h-4.21v-3.68h4.21V1.47h3.28v5h5.66v3.68Z"/>
      </g>
      <g>
        <path class="cls-1" d="M12.31,46.17c0,.35-.05.73-.16,1.14-.1.41-.27.78-.5,1.13s-.54.64-.91.87c-.38.23-.83.35-1.37.35h-3.85c-.29,0-.61-.06-.96-.19s-.66-.32-.95-.6-.54-.64-.73-1.08c-.2-.45-.3-.99-.3-1.63,0-.35.05-.73.16-1.14.1-.41.27-.79.5-1.14s.54-.64.91-.87c.37-.23.83-.35,1.37-.35h3.85v2.42h-3.85c-.29,0-.51.11-.67.32s-.24.47-.24.79.09.59.27.78.4.28.65.28h3.83c.29,0,.51-.1.67-.31.16-.21.24-.47.24-.78v-3.54c0-.33-.09-.6-.26-.79-.17-.2-.39-.29-.65-.29h-4.68v-2.41h4.68c.29,0,.61.06.96.19s.66.32.95.6.54.64.73,1.08c.2.45.29.99.29,1.63v3.56l.02-.02Z"/>
        <path class="cls-1" d="M22.34,41.65h-3.72v8.02h-2.16v-8.02h-2.77v-2.54h2.77v-3.45h2.16v3.45h3.72v2.54Z"/>
        <path class="cls-1" d="M37.27,41.65h-3.72v8.02h-2.16v-8.02h-2.77v-2.54h2.77v-3.45h2.16v3.45h3.72v2.54Z"/>
        <path class="cls-1" d="M40.91,49.67h-2.13v-15.02h2.13v15.02ZM48.6,49.67h-2.13v-7c0-.33-.07-.58-.21-.76-.14-.17-.36-.26-.64-.26h-3.85v-2.54h3.85c.2,0,.42.03.64.08.22.06.45.14.67.26s.43.27.64.45.38.41.53.67.28.57.37.91.14.74.14,1.17v7.02Z"/>
        <path class="cls-1" d="M60.06,42.61c0,.35-.05.73-.16,1.14-.1.41-.27.78-.5,1.13s-.54.64-.91.87-.83.35-1.37.35h-3.85v-2.41h3.85c.29,0,.51-.11.67-.32.16-.21.24-.47.24-.79s-.09-.59-.27-.78-.39-.28-.64-.28h-3.85c-.29,0-.51.11-.67.32-.16.21-.24.47-.24.79v3.54c0,.34.09.6.27.79s.4.28.66.28h3.83v2.42h-3.85c-.29,0-.61-.06-.96-.19s-.66-.32-.95-.6c-.29-.28-.54-.64-.73-1.08-.2-.45-.29-.99-.29-1.63v-3.56c0-.35.05-.73.16-1.14.1-.41.27-.78.5-1.13s.54-.64.91-.87.83-.35,1.37-.35h3.85c.29,0,.61.06.96.19s.66.32.95.6c.29.28.54.64.73,1.08.2.45.29.99.29,1.63h0Z"/>
        <path class="cls-1" d="M78.72,48.39c0,.18-.03.35-.08.51s-.13.29-.23.41-.21.2-.34.27-.27.1-.42.1h-4.81c-.45,0-.91-.06-1.38-.18s-.91-.3-1.35-.54c-.44-.24-.84-.55-1.23-.93s-.72-.83-1-1.34-.51-1.11-.68-1.78-.25-1.41-.25-2.23v-7h2.13v7c0,.72.08,1.32.25,1.82s.38.91.64,1.24.54.59.84.78c.31.19.6.33.87.42s.52.15.73.17c.21.02.35.03.42.03h3.75v-11.46h2.13v12.72h.01Z"/>
        <path class="cls-1" d="M90.75,49.67h-2.13v-5.86c0-.33-.05-.63-.14-.89s-.23-.49-.39-.68-.36-.33-.58-.43-.46-.15-.72-.15h-3.73v8.02h-2.13v-9.3c0-.18.03-.34.08-.49s.13-.29.23-.4.21-.2.34-.27.27-.1.42-.1h4.81c.27,0,.55.04.85.11s.59.19.89.35c.29.16.57.36.84.61s.5.54.71.89.37.75.49,1.21.18.97.18,1.54v5.86l-.02-.02Z"/>
        <path class="cls-1" d="M94.75,36.94h-2.13v-2.29h2.13v2.29ZM94.75,49.67h-2.13v-10.56h2.13v10.56Z"/>
        <path class="cls-1" d="M107.3,39.11c-.24.89-.52,1.77-.84,2.64s-.69,1.69-1.11,2.48c-.42.78-.89,1.51-1.4,2.18s-1.09,1.24-1.71,1.73c-.63.49-1.31.87-2.04,1.14s-1.53.42-2.39.42c-.15,0-.29-.03-.42-.1s-.25-.15-.34-.27-.17-.25-.23-.4c-.05-.15-.08-.32-.08-.49v-9.32h2.13v7.94c.52,0,1.02-.13,1.5-.4s.93-.62,1.36-1.06.82-.94,1.19-1.5c.36-.56.69-1.13.97-1.72s.53-1.17.73-1.73c.2-.57.35-1.07.45-1.52h2.26l-.03-.02Z"/>
        <path class="cls-1" d="M117.73,42.61c0,.35-.05.73-.16,1.14-.1.41-.27.78-.5,1.13s-.54.64-.91.87c-.37.23-.83.35-1.37.35h-3.85v-2.41h3.85c.29,0,.51-.11.67-.32s.24-.47.24-.79-.09-.59-.27-.78-.39-.28-.64-.28h-3.85c-.29,0-.51.11-.67.32-.16.21-.24.47-.24.79v3.54c0,.34.09.6.27.79s.4.28.66.28h3.83v2.42h-3.85c-.29,0-.61-.06-.96-.19s-.66-.32-.95-.6c-.29-.28-.54-.64-.73-1.08-.2-.45-.29-.99-.29-1.63v-3.56c0-.35.05-.73.16-1.14.1-.41.27-.78.5-1.13s.54-.64.91-.87.83-.35,1.37-.35h3.85c.29,0,.61.06.96.19s.66.32.95.6.54.64.73,1.08c.2.45.29.99.29,1.63h0Z"/>
        <path class="cls-1" d="M127.02,41.65h-4.8c-.29,0-.51.09-.66.26s-.22.42-.22.76v7h-2.13v-7c0-.44.05-.83.14-1.17s.22-.65.37-.91c.16-.26.33-.49.54-.67.2-.19.41-.34.64-.45.22-.12.45-.2.67-.26.23-.06.44-.08.64-.08h4.82v2.54-.02Z"/>
        <path class="cls-1" d="M137.22,46.1c0,.44-.05.83-.14,1.18-.09.35-.22.65-.37.92s-.33.49-.53.67-.41.34-.64.45-.45.2-.67.26c-.23.06-.44.08-.64.08h-5.78v-2.54h5.76c.29,0,.51-.09.66-.26s.22-.43.22-.76c-.03-.68-.31-1.02-.86-1.02h-3.31c-.47,0-.87-.1-1.2-.29s-.59-.44-.8-.73-.35-.61-.44-.95-.14-.65-.14-.95c0-.57.08-1.04.25-1.43s.38-.7.64-.94.54-.42.84-.52.58-.16.85-.16h5.24v2.54h-5.23c-.11,0-.2,0-.26.04s-.11.07-.14.12-.05.1-.05.16v.16c0,.1.02.19.05.24s.06.1.1.13.09.04.14.04h3.46c.55,0,1.01.12,1.39.35s.69.53.93.88.41.74.51,1.16.16.8.16,1.16h0Z"/>
        <path class="cls-1" d="M140.9,36.94h-2.13v-2.29h2.13v2.29ZM140.9,49.67h-2.13v-10.56h2.13v10.56Z"/>
        <path class="cls-1" d="M151.07,41.65h-3.72v8.02h-2.16v-8.02h-2.77v-2.54h2.77v-3.45h2.16v3.45h3.72v2.54Z"/>
        <path class="cls-1" d="M159.38,49.67h-3.85c-.31,0-.63-.06-.98-.19-.35-.12-.67-.33-.97-.61s-.55-.65-.75-1.1c-.2-.45-.3-1.01-.3-1.67v-6.99h2.13v6.99c0,.33.07.59.22.76s.37.26.66.26h3.83v2.54h0ZM162.37,50.68c0,.44-.05.83-.14,1.18s-.22.65-.37.92-.33.49-.53.67-.41.34-.64.45-.44.2-.67.26c-.22.06-.44.08-.64.08h-3.85v-2.54h3.85c.28,0,.5-.09.64-.26.14-.18.21-.43.21-.76v-11.57h2.13v11.57h0Z"/>
        <path class="cls-1" d="M179.51,46.1c0,.44-.05.83-.14,1.18-.09.35-.22.65-.37.92-.15.26-.33.49-.53.67-.2.19-.41.34-.64.45-.22.12-.45.2-.67.26-.23.06-.44.08-.64.08h-3.85c-.3,0-.62-.06-.97-.19-.35-.12-.67-.33-.97-.61s-.55-.65-.75-1.1c-.2-.45-.3-1.01-.3-1.67v-3.44c0-.65.1-1.2.3-1.66.2-.45.45-.82.75-1.1s.62-.49.97-.61.67-.19.97-.19h3.85c.55,0,1.01.12,1.39.35s.69.53.93.88c.24.35.41.74.51,1.16.11.42.16.8.16,1.16v3.46ZM177.38,42.69c0-.35-.07-.61-.22-.78s-.36-.25-.64-.25h-3.83c-.28,0-.5.09-.65.26s-.22.42-.22.76v3.44c0,.33.07.59.22.76s.36.26.65.26h3.83c.29,0,.51-.09.65-.26.14-.18.21-.43.21-.76v-3.42h0Z"/>
        <path class="cls-1" d="M189.13,37.07h-4.81c-.29,0-.51.09-.66.26s-.22.42-.22.76v11.58h-2.13v-11.58c0-.44.05-.83.14-1.17s.22-.65.37-.91c.16-.26.33-.49.54-.67.2-.19.41-.34.64-.45.22-.12.44-.2.67-.26.22-.06.44-.08.64-.08h4.82v2.54-.02ZM189.13,41.65h-4.82v-2.54h4.82v2.54Z"/>
        <path class="cls-1" d="M207.53,45.55c0,.5-.05.95-.16,1.35s-.25.75-.42,1.06-.38.57-.62.78-.48.39-.73.53-.51.24-.77.3-.5.1-.73.1h-8.23v-2.54h8.23c.41,0,.73-.14.96-.43s.34-.67.34-1.15c0-.23-.03-.45-.09-.64-.06-.2-.15-.36-.26-.51-.11-.14-.25-.25-.41-.33s-.34-.12-.54-.12h-4.91c-.34,0-.72-.07-1.12-.22s-.77-.38-1.11-.71-.63-.75-.85-1.28-.34-1.17-.34-1.93.11-1.4.34-1.93.51-.95.85-1.28.71-.57,1.11-.71.77-.22,1.12-.22h7.26v2.54h-7.26c-.4,0-.72.15-.95.44s-.34.68-.34,1.16.11.87.34,1.16.54.42.95.42h4.92c.23,0,.47.04.73.11s.51.17.77.32c.25.14.5.32.73.54.23.22.43.48.61.79s.32.66.42,1.05.16.85.16,1.35h0Z"/>
        <path class="cls-1" d="M218.85,46.1c0,.44-.05.83-.14,1.18-.09.35-.22.65-.37.92-.15.26-.33.49-.53.67-.2.19-.41.34-.64.45-.22.12-.45.2-.67.26-.23.06-.44.08-.64.08h-3.85c-.3,0-.62-.06-.97-.19-.35-.12-.67-.33-.97-.61s-.55-.65-.75-1.1c-.2-.45-.3-1.01-.3-1.67v-3.44c0-.65.1-1.2.3-1.66.2-.45.45-.82.75-1.1s.62-.49.97-.61.67-.19.97-.19h3.85c.55,0,1.01.12,1.39.35s.69.53.93.88c.24.35.41.74.51,1.16.11.42.16.8.16,1.16v3.46ZM216.72,42.69c0-.35-.07-.61-.22-.78s-.36-.25-.64-.25h-3.83c-.28,0-.5.09-.65.26s-.22.42-.22.76v3.44c0,.33.07.59.22.76s.36.26.65.26h3.83c.29,0,.51-.09.65-.26.14-.18.21-.43.21-.76v-3.42h0Z"/>
        <path class="cls-1" d="M230.31,48.39c0,.18-.03.35-.08.51s-.13.29-.23.41-.21.2-.34.27c-.13.07-.27.1-.41.1h-4.82c-.26,0-.54-.04-.84-.11s-.59-.19-.88-.35-.57-.36-.84-.61-.51-.54-.71-.89-.37-.75-.49-1.21-.18-.97-.18-1.54v-5.86h2.13v5.86c0,.33.05.63.14.89s.23.49.39.68.36.33.58.43c.22.1.46.15.72.15h3.73v-8.02h2.13v9.28h0Z"/>
        <path class="cls-1" d="M240.45,41.65h-3.72v8.02h-2.16v-8.02h-2.77v-2.54h2.77v-3.45h2.16v3.45h3.72v2.54Z"/>
        <path class="cls-1" d="M244.09,49.67h-2.13v-15.02h2.13v15.02ZM251.79,49.67h-2.13v-7c0-.33-.07-.58-.21-.76-.14-.17-.36-.26-.64-.26h-3.85v-2.54h3.85c.2,0,.42.03.64.08.22.06.45.14.67.26s.43.27.64.45.38.41.53.67.28.57.37.91.14.74.14,1.17v7.02Z"/>
        <path class="cls-1" d="M263.25,42.61c0,.35-.05.73-.16,1.14-.1.41-.27.78-.5,1.13s-.54.64-.91.87-.83.35-1.37.35h-3.85v-2.41h3.85c.29,0,.51-.11.67-.32s.24-.47.24-.79-.09-.59-.27-.78-.39-.28-.64-.28h-3.85c-.29,0-.51.11-.67.32s-.24.47-.24.79v3.54c0,.34.09.6.27.79s.4.28.66.28h3.83v2.42h-3.85c-.29,0-.61-.06-.96-.19s-.66-.32-.95-.6-.54-.64-.73-1.08c-.2-.45-.29-.99-.29-1.63v-3.56c0-.35.05-.73.16-1.14.1-.41.27-.78.5-1.13s.54-.64.91-.87.83-.35,1.37-.35h3.85c.29,0,.61.06.96.19s.66.32.95.6.54.64.73,1.08c.2.45.29.99.29,1.63h0Z"/>
        <path class="cls-1" d="M272.54,41.65h-4.8c-.29,0-.51.09-.66.26s-.22.42-.22.76v7h-2.13v-7c0-.44.05-.83.14-1.17s.22-.65.37-.91c.16-.26.33-.49.54-.67.2-.19.41-.34.64-.45.22-.12.45-.2.67-.26.23-.06.44-.08.64-.08h4.82v2.54-.02Z"/>
        <path class="cls-1" d="M283.85,49.67h-2.13v-5.86c0-.33-.05-.63-.14-.89s-.23-.49-.39-.68-.36-.33-.58-.43-.46-.15-.72-.15h-3.73v8.02h-2.13v-9.3c0-.18.03-.34.08-.49s.13-.29.23-.4.21-.2.34-.27.27-.1.42-.1h4.81c.27,0,.55.04.85.11s.59.19.89.35c.29.16.57.36.84.61s.5.54.71.89.37.75.49,1.21.18.97.18,1.54v5.86l-.02-.02Z"/>
        <path class="cls-1" d="M301.96,49.67h-7.69c-.2,0-.41-.03-.64-.08-.23-.06-.45-.14-.67-.26s-.43-.27-.64-.45-.38-.41-.54-.67-.28-.57-.37-.92c-.09-.35-.14-.74-.14-1.18v-6.88c0-.23.02-.49.07-.76.05-.27.12-.54.22-.8s.23-.52.39-.76c.16-.24.35-.45.57-.64s.48-.33.77-.44.62-.17.98-.17h7.69v2.54h-7.69c-.28,0-.49.09-.64.26-.15.18-.22.44-.22.78v6.86c0,.33.08.58.23.76s.36.27.64.27h7.69v2.54h0Z"/>
        <path class="cls-1" d="M313.08,46.17c0,.35-.05.73-.16,1.14-.1.41-.27.78-.5,1.13s-.54.64-.91.87c-.38.23-.83.35-1.37.35h-3.85c-.29,0-.61-.06-.96-.19s-.66-.32-.95-.6-.54-.64-.73-1.08c-.2-.45-.3-.99-.3-1.63,0-.35.05-.73.16-1.14.1-.41.27-.79.5-1.14s.54-.64.91-.87.83-.35,1.37-.35h3.85v2.42h-3.85c-.29,0-.51.11-.67.32s-.24.47-.24.79.09.59.27.78.4.28.65.28h3.83c.29,0,.51-.1.67-.31.16-.21.24-.47.24-.78v-3.54c0-.33-.09-.6-.26-.79-.17-.2-.39-.29-.65-.29h-4.68v-2.41h4.68c.29,0,.61.06.96.19s.66.32.95.6.54.64.73,1.08c.2.45.29.99.29,1.63v3.56l.02-.02Z"/>
        <path class="cls-1" d="M318.74,49.67h-.95c-.31,0-.63-.06-.98-.19-.35-.12-.67-.33-.97-.61s-.55-.65-.75-1.1c-.2-.45-.3-1.01-.3-1.67v-11.46h2.13v11.46c0,.31.08.56.25.75s.37.28.62.28h.95v2.54h0Z"/>
        <path class="cls-1" d="M322.36,36.94h-2.13v-2.29h2.13v2.29ZM322.36,49.67h-2.13v-10.56h2.13v10.56Z"/>
        <path class="cls-1" d="M332.17,37.07h-4.81c-.29,0-.51.09-.66.26s-.22.42-.22.76v11.58h-2.13v-11.58c0-.44.05-.83.14-1.17s.22-.65.37-.91c.16-.26.33-.49.54-.67.2-.19.41-.34.64-.45.22-.12.44-.2.67-.26.22-.06.44-.08.64-.08h4.82v2.54-.02ZM332.17,41.65h-4.82v-2.54h4.82v2.54Z"/>
        <path class="cls-1" d="M343.35,46.1c0,.44-.05.83-.14,1.18-.09.35-.22.65-.37.92-.15.26-.33.49-.53.67-.2.19-.41.34-.64.45-.22.12-.45.2-.67.26-.23.06-.44.08-.64.08h-3.85c-.3,0-.62-.06-.97-.19-.35-.12-.67-.33-.97-.61s-.55-.65-.75-1.1c-.2-.45-.3-1.01-.3-1.67v-3.44c0-.65.1-1.2.3-1.66.2-.45.45-.82.75-1.1s.62-.49.97-.61.67-.19.97-.19h3.85c.55,0,1.01.12,1.39.35s.69.53.93.88.41.74.51,1.16c.11.42.16.8.16,1.16v3.46ZM341.22,42.69c0-.35-.07-.61-.22-.78s-.36-.25-.64-.25h-3.83c-.28,0-.5.09-.65.26s-.22.42-.22.76v3.44c0,.33.07.59.22.76s.36.26.65.26h3.83c.29,0,.51-.09.65-.26.14-.18.21-.43.21-.76v-3.42h0Z"/>
        <path class="cls-1" d="M352.89,41.65h-4.8c-.29,0-.51.09-.66.26s-.22.42-.22.76v7h-2.13v-7c0-.44.05-.83.14-1.17s.22-.65.37-.91c.16-.26.33-.49.54-.67.2-.19.41-.34.64-.45.22-.12.45-.2.67-.26.23-.06.44-.08.64-.08h4.82v2.54-.02Z"/>
        <path class="cls-1" d="M364.21,49.67h-2.13v-5.86c0-.33-.05-.63-.14-.89s-.23-.49-.39-.68-.36-.33-.58-.43-.46-.15-.72-.15h-3.73v8.02h-2.13v-9.3c0-.18.03-.34.08-.49s.13-.29.23-.4.21-.2.34-.27.27-.1.42-.1h4.81c.27,0,.55.04.85.11s.59.19.89.35c.29.16.57.36.84.61s.5.54.71.89.37.75.49,1.21.18.97.18,1.54v5.86l-.02-.02Z"/>
        <path class="cls-1" d="M368.22,36.94h-2.13v-2.29h2.13v2.29ZM368.22,49.67h-2.13v-10.56h2.13v10.56Z"/>
        <path class="cls-1" d="M379.47,46.17c0,.35-.05.73-.16,1.14-.1.41-.27.78-.5,1.13s-.54.64-.91.87c-.38.23-.83.35-1.37.35h-3.85c-.29,0-.61-.06-.96-.19s-.66-.32-.95-.6-.54-.64-.73-1.08c-.2-.45-.3-.99-.3-1.63,0-.35.05-.73.16-1.14.1-.41.27-.79.5-1.14s.54-.64.91-.87.83-.35,1.37-.35h3.85v2.42h-3.85c-.29,0-.51.11-.67.32s-.24.47-.24.79.09.59.27.78.4.28.65.28h3.83c.29,0,.51-.1.67-.31.16-.21.24-.47.24-.78v-3.54c0-.33-.09-.6-.26-.79-.17-.2-.39-.29-.65-.29h-4.68v-2.41h4.68c.29,0,.61.06.96.19s.66.32.95.6.54.64.73,1.08c.2.45.29.99.29,1.63v3.56l.02-.02Z"/>
      </g>
    </g>
  </g>
</svg>