<?xml version="1.0" encoding="UTF-8"?>
<svg id="Layer_2" data-name="Layer 2" xmlns="http://www.w3.org/2000/svg" xmlns:xlink="http://www.w3.org/1999/xlink" viewBox="0 0 417.02 429.62">
  <defs>
    <style>
      .cls-1 {
        fill: #c6d9ec;
      }

      .cls-1, .cls-2, .cls-3, .cls-4, .cls-5, .cls-6, .cls-7, .cls-8, .cls-9, .cls-10 {
        fill-rule: evenodd;
      }

      .cls-11 {
        filter: url(#drop-shadow-1);
      }

      .cls-12 {
        filter: url(#drop-shadow-2);
      }

      .cls-13, .cls-3 {
        fill: #f16278;
      }

      .cls-14, .cls-8 {
        fill: #e63e30;
      }

      .cls-15, .cls-2 {
        fill: #010101;
      }

      .cls-16 {
        fill: #6d6e71;
      }

      .cls-17 {
        fill: #a30b35;
      }

      .cls-18, .cls-6 {
        fill: #f78d28;
      }

      .cls-4 {
        fill: #bcbec0;
      }

      .cls-19 {
        fill: #fff;
      }

      .cls-5 {
        fill: none;
      }

      .cls-7 {
        fill: #231f20;
      }

      .cls-9, .cls-20 {
        fill: #2a5798;
      }

      .cls-21, .cls-10 {
        fill: #febe10;
      }
    </style>
    <filter id="drop-shadow-1" x="17.28" y="186.94" width="383.16" height="22.06" filterUnits="userSpaceOnUse">
      <feOffset dx="0" dy=".57"/>
      <feGaussianBlur result="blur" stdDeviation="0"/>
      <feFlood flood-color="#fff" flood-opacity="1"/>
      <feComposite in2="blur" operator="in"/>
      <feComposite in="SourceGraphic"/>
    </filter>
    <filter id="drop-shadow-2" x="19.87" y="221.47" width="376.88" height="19.72" filterUnits="userSpaceOnUse">
      <feOffset dx="0" dy=".57"/>
      <feGaussianBlur result="blur-2" stdDeviation="0"/>
      <feFlood flood-color="#fff" flood-opacity="1"/>
      <feComposite in2="blur-2" operator="in"/>
      <feComposite in="SourceGraphic"/>
    </filter>
  </defs>
  <g id="profile">
    <g>
      <path class="cls-15" d="M383.14,242.29c-1.94,10.98-4.71,21.58-8.5,31.76l14.23,8.22-29.6,51.26-14.26-8.21c-7,8.45-14.82,16.17-23.23,23.22l8.25,14.23-51.26,29.61-8.25-14.2c-10.13,3.8-20.76,6.62-31.7,8.48v16.42s-59.26.03-59.26.03l.02-16.45c-10.93-1.83-21.54-4.67-31.73-8.45l-8.23,14.2-51.24-29.55,8.25-14.28c-8.48-6.99-16.27-14.79-23.29-23.21l-14.24,8.2-29.58-51.24,14.19-8.22c-3.78-10.14-6.63-20.78-8.48-31.73h-16.42s-.03-59.19-.03-59.19l16.44-.02c1.86-10.97,4.68-21.58,8.51-31.77l-14.25-8.19,29.59-51.25,14.23,8.21c6.97-8.44,14.77-16.23,23.22-23.25l-8.2-14.23,51.24-29.59,8.2,14.18c10.2-3.79,20.82-6.56,31.78-8.44l-.02-16.49h59.22s-.01,16.48-.01,16.48c10.97,1.88,21.56,4.65,31.76,8.42l8.18-14.21,51.27,29.6-8.22,14.23c8.45,7.04,16.24,14.79,23.25,23.25l14.25-8.22,29.62,51.24-14.22,8.24c3.79,10.16,6.6,20.74,8.45,31.71l16.46.03v59.18h-16.39Z"/>
      <path class="cls-19" d="M238.74,22.34v16.49c10.96,1.88,21.55,4.65,31.75,8.42l8.18-14.21,51.27,29.6-8.22,14.23c8.45,7.04,16.24,14.79,23.25,23.25l14.25-8.22,29.62,51.24-14.22,8.24c3.79,10.16,6.6,20.74,8.45,31.71l16.46.03v59.18h-16.39c-1.94,10.97-4.71,21.57-8.5,31.75l14.23,8.22-29.6,51.26-14.26-8.21c-7,8.45-14.82,16.17-23.23,23.22l8.25,14.23-51.26,29.61-8.25-14.2c-10.13,3.8-20.76,6.62-31.7,8.48v16.42s-59.26.03-59.26.03l.02-16.45c-10.93-1.83-21.54-4.67-31.73-8.45l-8.23,14.2-51.24-29.55,8.25-14.28c-8.48-6.99-16.27-14.79-23.29-23.21l-14.24,8.2-29.58-51.24,14.19-8.22c-3.78-10.14-6.63-20.78-8.48-31.73h-16.42s-.03-59.19-.03-59.19l16.44-.02c1.86-10.97,4.68-21.58,8.51-31.77l-14.25-8.19,29.59-51.25,14.23,8.21c6.97-8.44,14.77-16.23,23.22-23.25l-8.2-14.23,51.24-29.59,8.2,14.18c10.2-3.79,20.82-6.56,31.78-8.44l-.02-16.49h59.22ZM244.75,16.33h-6.02s-59.22.01-59.22.01h-6.02s0,6.02,0,6.02v11.48c-7.97,1.58-15.69,3.63-23.04,6.11l-5.7-9.85-3.01-5.2-5.2,3.01-51.24,29.59-5.2,3,3,5.21,5.71,9.9c-6.01,5.27-11.65,10.92-16.85,16.86l-9.89-5.71-5.21-3-3.01,5.21-29.59,51.25-3.01,5.22,5.22,3,9.89,5.68c-2.53,7.42-4.6,15.14-6.16,23.06h-11.44s-6.01.02-6.01.02v6.01s.03,59.2.03,59.2v6.01s6.02,0,6.02,0h11.41c1.55,7.84,3.61,15.54,6.15,23.01l-9.86,5.71-5.2,3.01,3,5.2,29.58,51.24,3,5.2,5.21-3,9.92-5.71c5.3,6.01,10.95,11.65,16.89,16.85l-5.74,9.94-3.01,5.21,5.21,3.01,51.24,29.55,5.2,3,3.01-5.19,5.73-9.88c7.5,2.54,15.21,4.59,23.01,6.13v11.43s-.02,6.02-.02,6.02h6.02s59.25-.03,59.25-.03h6.01s0-6.01,0-6.01v-11.42c7.92-1.57,15.62-3.62,23.01-6.14l5.74,9.87,3.01,5.19,5.19-3,51.26-29.61,5.22-3.01-3.02-5.21-5.75-9.91c6.09-5.37,11.73-11,16.85-16.82l9.93,5.72,5.2,3,3-5.2,29.6-51.26,3.01-5.21-5.21-3.01-9.9-5.72c2.46-7.3,4.52-15.01,6.14-23.04h11.4s6.02.01,6.02.01v-71.2h-6s-11.46-.03-11.46-.03c-1.55-7.88-3.6-15.58-6.12-23.01l9.89-5.73,5.2-3.01-3.01-5.2-29.62-51.24-3.01-5.2-5.2,3-9.92,5.72c-5.19-5.91-10.84-11.56-16.87-16.86l5.72-9.9,3.01-5.21-5.21-3.01-51.27-29.6-5.21-3.01-3,5.22-5.69,9.88c-7.37-2.48-15.08-4.52-23.03-6.09v-11.48s.01-6.02.01-6.02h0Z"/>
    </g>
    <path class="cls-19" d="M209.15,378.17c-91.23,0-165.44-74.22-165.44-165.44S117.93,47.29,209.15,47.29s165.44,74.22,165.44,165.44-74.22,165.44-165.44,165.44ZM209.15,57.71c-85.48,0-155.02,69.54-155.02,155.02s69.54,155.02,155.02,155.02,155.02-69.54,155.02-155.02S294.63,57.71,209.15,57.71Z"/>
    <path class="cls-19" d="M212.21,299.81l-.41-11.67.7-.03.52,11.67-.81.03ZM205.53,299.79l-.81-.04.59-11.67.7.03-.47,11.67ZM219.69,299.23l-1.4-11.6.69-.09,1.51,11.58-.81.1ZM198.05,299.17l-.81-.11,1.58-11.58.7.09-1.47,11.59ZM227.09,298.01l-2.39-11.43.69-.15,2.5,11.41-.8.17ZM190.67,297.91c-.27-.06-.54-.12-.81-.18l2.57-11.4.67.15-2.43,11.43ZM234.38,296.15l-3.38-11.18.68-.21,3.48,11.15-.77.24ZM183.4,296.01l-.79-.25,3.54-11.13.66.21-3.42,11.17ZM241.46,293.67l-4.33-10.85.66-.27,4.43,10.81-.75.3ZM176.31,293.49l-.74-.3,4.49-10.79.66.27-4.41,10.82ZM248.32,290.58l-5.26-10.43.64-.32,5.34,10.39-.72.37ZM169.5,290.37l-.72-.37,5.4-10.36.63.32-5.31,10.4ZM254.87,286.92l-6.14-9.94.61-.38,6.22,9.89-.68.43ZM162.98,286.68l-.69-.44,6.28-9.85.59.37-6.18,9.91ZM261.09,282.7l-6.97-9.38.56-.42,7.06,9.31-.65.49ZM156.78,282.43l-.64-.48,7.09-9.28.57.43-7.03,9.33ZM266.91,277.97l-7.74-8.75.52-.47,7.82,8.68-.61.54ZM150.98,277.68l-.6-.54,7.86-8.65.53.48-7.79,8.71ZM272.31,272.76l-8.46-8.05.49-.52,8.53,7.99-.55.59ZM145.6,272.44l-.54-.58,8.57-7.94.49.53-8.52,8ZM277.25,267.11l-9.12-7.29.44-.56,9.18,7.22-.5.63ZM140.71,266.78l-.51-.65,9.22-7.17.43.55-9.14,7.27ZM281.69,261.06l-9.72-6.49.4-.6,9.76,6.42-.44.67ZM136.29,260.69l-.44-.68,9.8-6.35.39.59-9.75,6.44ZM285.58,254.65l-10.23-5.64.33-.62,10.29,5.54-.39.71ZM132.42,254.25l-.38-.71,10.31-5.49.34.63-10.26,5.58ZM288.91,247.93l-10.68-4.74.28-.65,10.72,4.65-.32.74ZM129.12,247.5l-.32-.75,10.75-4.57.28.65-10.71,4.67ZM291.65,240.95l-11.05-3.79.22-.66,11.09,3.68-.26.77ZM126.42,240.49l-.26-.78,11.11-3.61.22.66-11.07,3.73ZM293.78,233.75l-11.34-2.82.17-.68,11.37,2.7-.19.8ZM124.33,233.28l-.19-.79,11.38-2.66.16.69-11.35,2.76ZM295.28,226.39l-11.54-1.83.11-.69,11.56,1.71-.12.81ZM122.87,225.91l-.12-.8,11.56-1.67.1.7-11.55,1.76ZM296.13,218.94l-11.65-.84.05-.7,11.66.72-.05.81ZM122.06,218.45l-.05-.81,11.66-.65.04.7-11.66.77ZM284.67,211.61l-.02-.89,11.68-.29.02.99-11.68.19ZM133.56,211.18l-11.68-.23.02-.8,11.68.32-.02.71ZM284.29,204.93l-.07-.7,11.61-1.29.09.81-11.62,1.17ZM133.96,204.69l-11.62-1.22.09-.8,11.61,1.31-.08.71ZM283.36,198.5l-.13-.69,11.46-2.27.15.8-11.48,2.17ZM134.91,198.26l-11.47-2.21.16-.8,11.45,2.33-.14.69ZM281.88,192.18l-.19-.68,11.22-3.25.22.78-11.25,3.16ZM136.41,191.93l-11.24-3.18.23-.78,11.21,3.29-.19.67ZM279.86,186l-.25-.65,10.89-4.23.29.77-10.94,4.11ZM138.46,185.77l-10.92-4.15.29-.76,10.88,4.26-.25.65ZM277.3,180.01l-.3-.63,10.48-5.15.36.74-10.54,5.04ZM141.03,179.8l-10.52-5.07.36-.73,10.47,5.18-.31.63ZM274.25,174.28l-.37-.61,10.01-6.02.41.69-10.06,5.94ZM144.1,174.08l-10.04-5.97.42-.69,9.99,6.06-.36.61ZM270.7,168.83l-.41-.58,9.45-6.86.47.66-9.51,6.78ZM147.65,168.64l-9.5-6.8.48-.66,9.43,6.9-.41.57ZM266.7,163.69l-.46-.54,8.84-7.64.52.61-8.9,7.57ZM151.66,163.53l-8.87-7.6.53-.61,8.81,7.68-.46.54ZM262.28,158.93l-.51-.5,8.15-8.37.58.56-8.21,8.31ZM156.1,158.77l-8.19-8.33.58-.56,8.12,8.39-.51.5ZM257.47,154.55l-.55-.45,7.41-9.03.62.51-7.48,8.97ZM160.93,154.41l-7.46-8.99.63-.52,7.37,9.06-.54.45ZM252.3,150.6l-.57-.39,6.58-9.65.68.47-6.69,9.58ZM166.1,150.48l-6.65-9.6.67-.46,6.57,9.66-.59.4ZM246.82,147.12l-.61-.35,5.74-10.17.71.4-5.84,10.12ZM171.61,147l-5.81-10.13.71-.4,5.71,10.19-.61.35ZM241.06,144.12l-.65-.3,4.86-10.62.73.34-4.94,10.59ZM177.38,144.02l-4.91-10.6.74-.34,4.81,10.65-.64.29ZM235.06,141.63l-.65-.24,3.9-11.01.77.28-4.02,10.97ZM183.4,141.54l-3.98-10.98.77-.28,3.86,11.03-.66.24ZM228.88,139.66l-.68-.18,2.93-11.31.79.21-3.04,11.28ZM189.6,139.6l-3-11.29.78-.2,2.91,11.31-.69.18ZM222.54,138.24l-.7-.12,1.96-11.52.79.14-2.06,11.5ZM195.95,138.2l-2.03-11.5.8-.14,1.92,11.52-.69.12ZM216.1,137.37l-.7-.06.95-11.64.81.07-1.06,11.63ZM202.39,137.35l-1.02-11.64.8-.07.92,11.65-.71.06ZM209.6,137.05h-.46s-.23,0-.23,0l-.06-11.68h.3s.53,0,.53,0l-.07,11.68Z"/>
    <path class="cls-14" d="M209.11,308.19c-52.9,0-95.95-43.04-95.95-95.95s43.04-95.95,95.95-95.95,95.95,43.04,95.95,95.95-43.04,95.95-95.95,95.95ZM209.11,118.8c-51.53,0-93.45,41.92-93.45,93.45s41.92,93.45,93.45,93.45,93.45-41.92,93.45-93.45-41.92-93.45-93.45-93.45Z"/>
  </g>
  <g id="overlay">
    <polygon class="cls-15" points="266.92 308.45 150.92 308.42 209.11 212.62 266.92 308.45"/>
    <g>
      <ellipse class="cls-15" cx="209.78" cy="385.71" rx="79.76" ry="41.66"/>
      <path class="cls-19" d="M209.78,429.62c-21.66,0-42.06-4.42-57.44-12.46-15.84-8.28-24.57-19.44-24.57-31.45s8.73-23.17,24.57-31.45c15.38-8.03,35.78-12.46,57.44-12.46s42.06,4.42,57.44,12.46c15.84,8.27,24.57,19.44,24.57,31.45s-8.73,23.17-24.57,31.45c-15.38,8.03-35.78,12.46-57.44,12.46ZM209.78,346.3c-42.74,0-77.51,17.68-77.51,39.41s34.77,39.41,77.51,39.41,77.51-17.68,77.51-39.41-34.77-39.41-77.51-39.41Z"/>
    </g>
    <g>
      <path class="cls-15" d="M414.77,189.09v-17.31H2.25v81.89h412.52v-64.59Z"/>
      <path class="cls-19" d="M417.02,255.93H0v-86.39h417.02v86.39ZM4.5,251.43h408.02v-77.39H4.5v77.39Z"/>
    </g>
  </g>
  <g id="elements">
    <g>
      <path class="cls-21" d="M290.62,327.01c-.32,0-.64-.15-.85-.43-.35-.47-.25-1.13.22-1.48,12.79-9.42,23.37-21.11,31.44-34.76.3-.5.94-.67,1.45-.37.5.3.67.94.37,1.45-8.22,13.9-18.99,25.8-32.01,35.39-.19.14-.41.21-.62.21Z"/>
      <path class="cls-21" d="M278.42,323.56c-.35,0-.69-.17-.89-.49-.31-.49-.16-1.14.33-1.46,16.29-10.28,29.54-24.76,38.31-41.87.27-.52.9-.72,1.42-.46.52.27.72.9.46,1.42-8.94,17.45-22.45,32.21-39.06,42.69-.17.11-.37.16-.56.16Z"/>
      <path class="cls-21" d="M272.17,315.82c-.36,0-.7-.18-.9-.51-.3-.5-.15-1.15.35-1.45,15.46-9.43,27.96-22.93,36.14-39.05.26-.52.9-.73,1.42-.46.52.26.73.9.46,1.42-8.36,16.47-21.13,30.26-36.93,39.9-.17.1-.36.15-.55.15Z"/>
      <g>
        <path class="cls-21" d="M306.08,325.03c-.33,0-.65-.15-.86-.44-.34-.47-.23-1.13.25-1.47,2.65-1.89,5.17-4.02,7.48-6.34s4.47-4.86,6.37-7.53c.34-.47,1-.58,1.47-.25.48.34.59,1,.25,1.47-1.96,2.76-4.18,5.38-6.6,7.8-2.4,2.4-5,4.61-7.75,6.56-.19.13-.4.2-.61.2Z"/>
        <path class="cls-21" d="M315.24,332.85c-.32,0-.63-.14-.83-.41-.36-.46-.27-1.12.19-1.48,2.33-1.81,4.57-3.78,6.67-5.88,2.1-2.1,4.08-4.35,5.9-6.69.36-.46,1.02-.54,1.48-.19.46.36.54,1.02.19,1.48-1.87,2.41-3.91,4.72-6.07,6.89-2.16,2.16-4.47,4.19-6.86,6.05-.19.15-.42.22-.65.22Z"/>
        <path class="cls-21" d="M314.22,343.9c-.35,0-.69-.17-.89-.49-.31-.49-.16-1.14.33-1.45,4.9-3.08,9.48-6.73,13.61-10.86,4.13-4.13,7.78-8.71,10.86-13.61.31-.49.96-.64,1.46-.33.49.31.64.96.33,1.45-3.16,5.03-6.91,9.74-11.16,13.98-4.24,4.24-8.94,7.99-13.98,11.16-.17.11-.37.16-.56.16Z"/>
        <path class="cls-21" d="M313.49,354.54c-.38,0-.74-.2-.93-.56-.28-.51-.08-1.15.43-1.43,7.51-4.03,14.41-9.15,20.5-15.24,6.03-6.03,11.12-12.86,15.13-20.29.28-.51.92-.7,1.43-.43.51.28.7.92.43,1.43-4.11,7.61-9.32,14.61-15.49,20.78-6.23,6.23-13.3,11.48-20.99,15.61-.16.08-.33.12-.5.12Z"/>
        <path class="cls-21" d="M316.88,362.51c-.38,0-.75-.21-.93-.56-.27-.52-.07-1.15.44-1.42,7.92-4.16,15.66-9.99,22.99-17.32,6.92-6.92,12.71-14.79,17.2-23.38.27-.52.91-.72,1.42-.45.52.27.72.91.45,1.42-4.59,8.78-10.5,16.82-17.58,23.9-7.48,7.48-15.39,13.44-23.5,17.7-.16.08-.33.12-.49.12Z"/>
        <g>
          <g>
            <path class="cls-14" d="M275.51,311.46c.91,2.55,2.23,4.78,4.12,6.67,9.63,9.63,29.79,4.92,38.92,2.74,9.87-2.36,30.25-9.97,40.9-3.6,0,0-.41.82-1.87,3.54-1.45,2.71-2.12,3.79-2.12,3.79-9.63-9.63-29.27-4.42-38.4-2.23-10.7,2.57-33.7,11.29-43.32,1.67-2.32-2.32-3.55-5.29-4.08-8.79l5.86-3.78Z"/>
            <path class="cls-14" d="M276.16,310.92c.93,2.67,2.28,4.91,4.03,6.65,9.42,9.42,29.57,4.59,38.17,2.53,1.66-.4,3.68-.96,5.81-1.56,10.57-2.95,26.54-7.41,35.68-1.95l.63.38-.33.66s-.43.86-1.88,3.55c-1.45,2.7-2.12,3.79-2.14,3.83l-.53.85-.71-.71c-8.95-8.95-26.94-4.61-36.6-2.28l-1.06.26c-1.67.4-3.69.97-5.83,1.56-11.87,3.32-29.8,8.34-38.24-.1-2.25-2.25-3.65-5.1-4.27-8.94l7.25-4.73Z"/>
          </g>
          <g>
            <path class="cls-13" d="M309.47,273.12c4.55.26,7.83,1.5,10.69,4.36,9.63,9.63.9,32.62-1.67,43.32-2.19,9.13-7.15,29.03,2.48,38.66,0,0-1.64,1-3.53,2.01s-3.85,1.93-3.85,1.93c-6.63-10.59,1.02-31.15,3.41-41.1,2.19-9.13,6.89-29.29-2.74-38.92-2.34-2.34-5.3-3.83-8.58-4.72l3.78-5.54Z"/>
            <path class="cls-13" d="M309.16,272.36c5.05.35,8.85,1.86,11.56,4.57,8.44,8.44,3.43,26.37.11,38.24-.6,2.14-1.16,4.16-1.56,5.83l-.1.43c-2.21,9.19-6.79,28.32,2.37,37.48l.71.71-.86.52s-1.68,1.02-3.57,2.03c-1.86,1-3.86,1.93-3.88,1.94l-.63.3-.37-.59c-5.71-9.11-1.21-25.26,1.77-35.94.59-2.11,1.14-4.11,1.54-5.76,2.06-8.6,6.89-28.75-2.53-38.17-2.12-2.12-4.95-3.66-8.41-4.57l3.87-7.02Z"/>
          </g>
        </g>
      </g>
    </g>
    <g>
      <rect class="cls-21" x="294.39" y="107.35" width="34.12" height="6.29" transform="translate(451.73 409.71) rotate(-134.65)"/>
      <path class="cls-14" d="M317.24,137.97c-.36.63-1.03,1.06-1.81,1.06-1.15,0-2.08-.93-2.08-2.08,0-.36.09-.7.26-1l31.27-58.32,3.05,3.09-30.69,57.25Z"/>
      <path class="cls-14" d="M344.87,77.64l-3.05-3.09-57.59,29.98c-.67.34-1.12,1.04-1.12,1.84,0,1.15.93,2.07,2.07,2.07.38,0,.73-.1,1.03-.28l58.66-30.52Z"/>
      <rect class="cls-14" x="305.12" y="101.32" width="27.02" height="3.11" transform="translate(469.36 401.86) rotate(-134.65)"/>
      <g>
        <rect class="cls-21" x="299.25" y="58.88" width="23.6" height="9.2" transform="translate(603.3 187.44) rotate(-168.55)"/>
        <rect class="cls-20" x="341.18" y="37.72" width="18.6" height="68.67" transform="translate(210.28 401.26) rotate(-78.55)"/>
        <rect class="cls-17" x="369.7" y="72.6" width="18.6" height="10.47" transform="translate(227.48 433.84) rotate(-78.55)"/>
      </g>
      <circle class="cls-21" cx="342.83" cy="78.7" r="9.92" transform="translate(9.14 189.95) rotate(-31.37)"/>
      <circle class="cls-20" cx="342.83" cy="78.7" r="6.76"/>
      <circle class="cls-14" cx="342.83" cy="78.7" r="2.84" transform="translate(9.14 189.95) rotate(-31.37)"/>
      <path class="cls-17" d="M302.38,57.03c.03-.12.04-.25.04-.39,0-.99-.8-1.79-1.79-1.79-.83,0-1.53.57-1.73,1.34l-.06.31-1.78,8.79-.02.08c-.02.12-.04.24-.04.36,0,.99.8,1.79,1.79,1.79.86,0,1.58-.61,1.75-1.43l1.79-8.85.04-.21Z"/>
      <path class="cls-21" d="M389.39,72.5v-.04c.03-.13.04-.27.04-.41,0-.94-.67-1.73-1.55-1.91h-.05s-1.85-.38-1.85-.38l-3.69,18.23,1.64.33.26.06c.13.03.26.04.39.04.93,0,1.71-.66,1.9-1.53l2.91-14.38Z"/>
      <path class="cls-17" d="M311.38,70.64c-.04.18-.06.38-.06.57,0,1.42,1.01,2.61,2.35,2.88l.45.09.86.17,3.69-18.23-1.29-.26c-.19-.04-.4-.06-.6-.06-1.42,0-2.61,1.01-2.88,2.35l-.05.27-2.35,11.6-.13.63Z"/>
    </g>
    <g>
      <g>
        <path class="cls-4" d="M59.07,348.84l13.37,13.46c.13-.12.25-.23.37-.35.34-.32,1.63-1.6,1.94-1.91,2.82-2.87,4.56-5.71,4.89-8.42.3-2.43-.56-4.81-2.81-7.08-.16-.16-.29-.29-.38-.37-2.37-2.2-4.95-2.76-7.57-2.13-2.75.66-5.6,2.6-8.37,5.36-.17.17-1.29,1.29-1.45,1.45h0ZM69.45,362.07l-12.44-12.52h0c-.37-.37-.38-.97-.02-1.36.43-.46,1.78-1.83,2.15-2.19,3.01-2.99,6.17-5.12,9.3-5.87,3.26-.78,6.44-.09,9.36,2.6.18.17.33.31.44.42,2.71,2.73,3.74,5.66,3.36,8.7-.39,3.16-2.32,6.38-5.44,9.56-.33.34-1.64,1.63-1.99,1.96-.37.34-.72.67-1.07.97-.38.38-1.01.38-1.39,0l-2.26-2.27Z"/>
        <path class="cls-10" d="M69.75,351.65c-2.82-2.83-6.88-3.48-9.6-1.7.11.25-.03.67-.36,1-.36.36-.82.49-1.06.32-2.07,2.71-1.52,6.99,1.41,9.93s7.2,3.53,9.92,1.47c0,0-.01-.01-.02-.02-.23-.23-.1-.72.28-1.11s.84-.5,1.08-.31c1.78-2.71,1.15-6.76-1.66-9.59Z"/>
        <rect class="cls-16" x="52.1" y="351.76" width="25.63" height="9.26" rx="1.15" ry="1.15" transform="translate(-232.38 149.39) rotate(-44.83)"/>
        <path class="cls-8" d="M74.93,358.44c.09-.1.22-.26.42-.48.18-.21.31-.36.39-.47,1.89-2.33,2.96-4.58,3-6.69.04-1.88-.77-3.75-2.59-5.57s-3.79-2.58-5.76-2.45c-2.36.17-4.89,1.53-7.41,3.68l-2.54-2.97c3.14-2.67,6.42-4.37,9.69-4.6,3.1-.22,6.09.84,8.81,3.58,2.61,2.62,3.77,5.45,3.71,8.4-.06,3.04-1.43,6.09-3.87,9.09-.19.24-.34.42-.46.55-.1.12-.26.3-.48.54l-2.9-2.62Z"/>
        <g>
          <g>
            <path class="cls-7" d="M70.48,346.47c-.15-.15-.15-.39,0-.54s.39-.14.54,0l4.39,4.42c.15.15.15.39,0,.54s-.39.14-.54,0l-4.39-4.42Z"/>
            <path class="cls-7" d="M69.14,347.8c-.15-.15-.15-.39,0-.54s.39-.14.54,0l4.39,4.42c.15.15.15.39,0,.54s-.39.14-.54,0l-4.39-4.42Z"/>
            <path class="cls-7" d="M67.79,349.14c-.15-.15-.15-.39,0-.54s.39-.14.54,0l4.39,4.42c.15.15.15.39,0,.54s-.39.14-.54,0l-4.39-4.42Z"/>
            <path class="cls-7" d="M66.45,350.48c-.15-.15-.15-.39,0-.54s.39-.14.54,0l4.39,4.42c.15.15.15.39,0,.54s-.39.14-.54,0l-4.39-4.42Z"/>
            <path class="cls-7" d="M65.1,351.81c-.15-.15-.15-.39,0-.54s.39-.14.54,0l4.39,4.42c.15.15.15.39,0,.54s-.39.14-.54,0l-4.39-4.42Z"/>
            <path class="cls-7" d="M63.81,353.09c-.15-.15-.15-.39,0-.54s.39-.14.54,0l4.39,4.42c.15.15.15.39,0,.54s-.39.14-.54,0l-4.39-4.42Z"/>
            <path class="cls-7" d="M62.47,354.43c-.15-.15-.15-.39,0-.54s.39-.14.54,0l4.39,4.42c.15.15.15.39,0,.54s-.39.14-.54,0l-4.39-4.42Z"/>
            <path class="cls-7" d="M61.12,355.77c-.15-.15-.15-.39,0-.54s.39-.14.54,0l4.39,4.42c.15.15.15.39,0,.54s-.39.14-.54,0l-4.39-4.42Z"/>
            <path class="cls-7" d="M59.78,357.1c-.15-.15-.15-.39,0-.54s.39-.14.54,0l4.39,4.42c.15.15.15.39,0,.54s-.39.14-.54,0l-4.39-4.42Z"/>
          </g>
          <g>
            <path class="cls-7" d="M58.46,358.42c-.15-.15-.15-.39,0-.54s.39-.14.54,0l4.39,4.42c.15.15.15.39,0,.54s-.39.14-.54,0l-4.39-4.42Z"/>
            <path class="cls-7" d="M57.11,359.76c-.15-.15-.15-.39,0-.54s.39-.14.54,0l4.39,4.42c.15.15.15.39,0,.54s-.39.14-.54,0l-4.39-4.42Z"/>
            <path class="cls-7" d="M55.77,361.09c-.15-.15-.15-.39,0-.54s.39-.14.54,0l4.39,4.42c.15.15.15.39,0,.54s-.39.14-.54,0l-4.39-4.42Z"/>
            <path class="cls-7" d="M54.42,362.43c-.15-.15-.15-.39,0-.54s.39-.14.54,0l4.39,4.42c.15.15.15.39,0,.54s-.39.14-.54,0l-4.39-4.42Z"/>
          </g>
        </g>
        <path class="cls-5" d="M81.24,355.04c-.13.32-.49.49-.81.37-.32-.12-.47-.47-.35-.8.77-1.95.99-3.85.57-5.69-.4-1.77-1.39-3.49-3.04-5.16-1.59-1.6-3.26-2.54-4.98-2.92-1.84-.41-3.75-.18-5.69.55-.32.12-.68-.04-.79-.36-.11-.32.06-.68.38-.8,2.17-.82,4.32-1.06,6.4-.6,1.95.43,3.82,1.47,5.58,3.24,1.81,1.83,2.91,3.75,3.36,5.74.47,2.1.23,4.25-.63,6.43Z"/>
        <path class="cls-18" d="M74.6,339.82h9.87c.28,0,.51.23.51.51v3.06c0,.28-.23.51-.51.51h-9.87c-.28,0-.51-.23-.51-.51v-3.07c0-.28.23-.51.51-.51Z" transform="translate(-217.88 155.47) rotate(-44.83)"/>
      </g>
      <g>
        <g>
          <path class="cls-10" d="M102.02,284.27l35.26,35.47c.86.87.86,2.28,0,3.15l-4.31,4.29c-.87.86-2.28.86-3.15-.01l-35.26-35.47c-.86-.87-.86-2.28,0-3.15l4.31-4.29c.87-.86,2.28-.86,3.15.01h0Z"/>
          <path class="cls-9" d="M120.17,289.12l12.63,12.7c5.71,5.75,5.69,15.12-.05,20.83h0c-5.74,5.71-15.12,5.68-20.83-.07l-12.63-12.7c-5.71-5.75-5.69-15.12.05-20.83h0c5.74-5.71,15.12-5.68,20.83.07h0Z"/>
          <path class="cls-1" d="M116.84,292.43l12.63,12.7c3.89,3.91,3.87,10.3-.04,14.18h0c-3.91,3.89-10.29,3.86-14.18-.05l-12.63-12.7c-3.89-3.91-3.87-10.3.04-14.18h0c3.91-3.89,10.29-3.86,14.18.05h0Z"/>
          <path class="cls-2" d="M116.84,292.43l12.63,12.7c3.73,3.76,3.87,9.78.42,13.7-3.94,3.43-9.96,3.25-13.69-.5l-12.63-12.7c-3.73-3.75-3.87-9.78-.42-13.7,3.94-3.42,9.96-3.25,13.69.5h0Z"/>
          <g>
            <path class="cls-14" d="M113.32,296.15c-1.91-1.92-5.02-1.93-6.94-.02-1.92,1.91-1.93,5.02-.02,6.94,1.91,1.92,5.02,1.93,6.94.02s1.93-5.02.02-6.94Z"/>
            <path class="cls-14" d="M125.73,308.63c-1.91-1.92-5.02-1.93-6.94-.02-1.92,1.91-1.93,5.02-.02,6.94,1.91,1.92,5.02,1.93,6.94.02s1.93-5.02.02-6.94Z"/>
          </g>
          <g>
            <path class="cls-18" d="M113.32,296.15c-.56-.56-1.22-.96-1.93-1.2l-3.68,9.08c1.82.88,4.07.57,5.59-.94,1.92-1.91,1.93-5.02.02-6.94Z"/>
            <path class="cls-18" d="M125.73,308.63c-.61-.61-1.34-1.03-2.11-1.25l-3.66,9.05c1.85.98,4.2.7,5.76-.86,1.92-1.91,1.93-5.02.02-6.94Z"/>
          </g>
          <path class="cls-10" d="M128.99,292.98c1.75,1.76,2.25,4.3,1.49,6.5l-7.98-8.02c2.2-.75,4.74-.24,6.49,1.52h0Z"/>
          <polygon class="cls-10" points="100.25 310.84 110.96 321.61 107.95 324.6 97.24 313.83 100.25 310.84 100.25 310.84"/>
          <g>
            <path class="cls-21" d="M111.63,297.82c-.99-.99-2.58-1-3.57-.01s-.99,2.58,0,3.57c.99.99,2.58,1,3.57.01.99-.98.99-2.58,0-3.57Z"/>
            <path class="cls-21" d="M124.04,310.31c-.99-.99-2.58-1-3.57-.01-.99.98-.99,2.58,0,3.57.99.99,2.58,1,3.57.01s.99-2.58,0-3.57Z"/>
          </g>
          <polygon class="cls-6" points="102.27 284.52 103.26 285.52 108.27 280.53 107.28 279.53 102.27 284.52 102.27 284.52"/>
          <path class="cls-8" d="M110.32,277.51c.88.88.87,2.31,0,3.18s-2.31.87-3.18-.01-.87-2.31,0-3.18c.88-.88,2.31-.87,3.18.01h0Z"/>
          <polygon class="cls-6" points="136.3 318.76 137.29 319.75 142.31 314.77 141.32 313.77 136.3 318.76 136.3 318.76"/>
          <path class="cls-8" d="M144.35,311.75c.88.88.87,2.31,0,3.18s-2.31.87-3.18-.01c-.88-.88-.87-2.31,0-3.18.88-.88,2.31-.87,3.18.01h0Z"/>
        </g>
        <g>
          <path class="cls-21" d="M83.95,345.43l4.96-4.93c.62-.61.62-1.62,0-2.23l-5.5-5.53c-.61-.62-1.61-.62-2.23,0l-4.96,4.93,7.72,7.77Z"/>
          <path class="cls-20" d="M81.5,307.57h24.2c.87,0,1.58.71,1.58,1.58v37.92c0,.87-.71,1.58-1.58,1.58h-24.2c-.87,0-1.58-.71-1.58-1.58v-37.92c0-.87.71-1.58,1.58-1.58Z" transform="translate(-204.09 161.39) rotate(-44.83)"/>
          <path class="cls-15" d="M84.81,310.4h18.28c.91,0,1.65.74,1.65,1.65v31.42c0,.91-.74,1.65-1.65,1.65h-18.28c-.91,0-1.65-.74-1.65-1.65v-31.41c0-.91.74-1.65,1.65-1.65Z" transform="translate(-203.75 161.54) rotate(-44.83)"/>
          <g>
            <path class="cls-19" d="M95.37,338.43l-16.29-16.39,10.35-10.29,16.29,16.39-10.35,10.29ZM79.86,322.04l15.51,15.6,9.56-9.5-15.51-15.6-9.56,9.5Z"/>
            <g>
              <rect class="cls-19" x="78.53" y="319.33" width="16.84" height=".56" transform="translate(-200.03 154.23) rotate(-44.83)"/>
              <rect class="cls-19" x="82.09" y="322.92" width="16.84" height=".56" transform="translate(-201.53 157.79) rotate(-44.83)"/>
              <rect class="cls-19" x="85.66" y="326.5" width="16.84" height=".56" transform="translate(-203.02 161.34) rotate(-44.83)"/>
              <rect class="cls-19" x="89.22" y="330.09" width="16.84" height=".55" transform="translate(-204.51 164.9) rotate(-44.83)"/>
            </g>
            <rect class="cls-19" x="92.44" y="311.87" width=".56" height="27.08" transform="translate(-202.45 159.98) rotate(-44.83)"/>
          </g>
          <g>
            <polygon class="cls-21" points="79.55 322.3 79.38 321.77 87.17 319.24 87.72 322.79 95.48 322.07 94.46 326.67 105.18 328.04 105.11 328.59 93.78 327.14 94.77 322.69 87.25 323.4 86.72 319.97 79.55 322.3"/>
            <path class="cls-21" d="M88.46,323.55c-.36.36-.95.36-1.31,0s-.36-.95,0-1.31.95-.36,1.31,0,.36.95,0,1.31Z"/>
            <path class="cls-21" d="M95.81,322.99c-.36.36-.95.36-1.31,0s-.36-.95,0-1.31.95-.36,1.31,0,.36.95,0,1.31Z"/>
          </g>
          <rect class="cls-14" x="98.5" y="338.51" width=".96" height="5.73" transform="translate(-211.89 169.04) rotate(-44.83)"/>
          <rect class="cls-14" x="98.88" y="337.73" width="1.01" height="3.9" transform="translate(-210.57 168.84) rotate(-44.83)"/>
          <rect class="cls-14" x="100.31" y="336.55" width=".96" height="4.97" transform="translate(-209.71 169.64) rotate(-44.83)"/>
          <rect class="cls-14" x="100.63" y="335.82" width="1.06" height="3.15" transform="translate(-208.44 169.42) rotate(-44.83)"/>
          <rect class="cls-14" x="104.71" y="332.44" width=".76" height="5.73" transform="translate(-205.83 171.58) rotate(-44.83)"/>
          <rect class="cls-14" x="105.26" y="331.71" width=".81" height="4.97" transform="translate(-204.88 171.67) rotate(-44.83)"/>
          <rect class="cls-14" x="106.33" y="330.37" width="1.68" height="5.73" transform="translate(-203.76 172.45) rotate(-44.83)"/>
        </g>
      </g>
    </g>
    <g>
      <path class="cls-8" d="M139.19,110.22l-32.55,32.55c-1.2,1.2-2.83,1.63-4.46,1.17-1.63-.45-2.81-1.66-3.21-3.31l-9.22-37.35-21.69-21.69,9.95-9.95,21.69,21.69,37.35,9.22c1.64.41,2.85,1.58,3.31,3.21.45,1.63.03,3.26-1.17,4.46Z"/>
      <path class="cls-10" d="M66.08,79.78l10.12-10.12c1.56-1.56,4.12-1.56,5.68,0h0c1.56,1.56,1.56,4.12,0,5.68l-10.12,10.12c-1.56,1.56-4.12,1.56-5.68,0h0c-1.56-1.56-1.56-4.12,0-5.68Z"/>
      <path class="cls-3" d="M104.12,140.25c-.29.29-.59.37-.98.26-.39-.11-.61-.33-.7-.73l-4.96-20.11c15.16,1.18-5.94-24.68,15.31-19.43l23.41,5.78c.39.1.62.31.73.7.11.39.03.69-.26.98l-32.55,32.55Z"/>
      <path class="cls-10" d="M136.67,107.7c.29-.29.37-.59.26-.98-.11-.39-.33-.61-.73-.71l-20.11-4.96c1.18,15.16-24.68-5.94-19.43,15.31l5.78,23.41c.1.39.31.62.7.73.39.11.69.03.98-.26l32.55-32.55Z"/>
      <path class="cls-3" d="M113.63,126.91c2.71-2.71,2.71-7.14,0-9.85s-7.14-2.71-9.85,0c-2.71,2.71-2.71,7.14,0,9.85,2.71,2.71,7.14,2.71,9.85,0Z"/>
      <path class="cls-9" d="M109.77,131.36c1.44-1.44,1.44-3.78,0-5.22s-3.78-1.44-5.22,0c-1.44,1.44-1.44,3.78,0,5.22,1.44,1.44,3.78,1.44,5.22,0Z"/>
      <path class="cls-3" d="M122.65,114.56c1.52-1.52,1.52-3.99,0-5.51-1.52-1.52-3.99-1.52-5.51,0s-1.52,3.99,0,5.51,3.99,1.52,5.51,0Z"/>
      <path class="cls-9" d="M112.3,113.47c.62-.62.62-1.63,0-2.25s-1.63-.62-2.25,0-.62,1.63,0,2.25,1.63.62,2.25,0Z"/>
      <circle class="cls-20" cx="128.41" cy="107.8" r="1.59" transform="translate(-38.61 122.37) rotate(-45)"/>
      <path class="cls-10" d="M98.49,103.25c.62-.62.62-1.63,0-2.25s-1.63-.62-2.25,0-.62,1.63,0,2.25c.62.62,1.63.62,2.25,0Z"/>
      <path class="cls-9" d="M110.81,105.21c.78-.78.78-2.05,0-2.82s-2.05-.78-2.82,0-.78,2.05,0,2.82,2.05.78,2.82,0Z"/>
      <path class="cls-10" d="M106.8,102.39c1.04-1.04,1.04-2.74,0-3.77-1.04-1.04-2.73-1.04-3.77,0s-1.04,2.73,0,3.77c1.04,1.04,2.73,1.04,3.77,0Z"/>
      <path class="cls-10" d="M105.12,101.79c.46-.46.46-1.21,0-1.67s-1.21-.46-1.67,0-.46,1.21,0,1.67,1.21.46,1.67,0Z"/>
    </g>
    <g>
      <g>
        <path class="cls-17" d="M230.24,28.25l3.24,1.21c4.45,3.09,8.21,7.27,10.78,12.1,1.88,3.55,2.81,7.52,3.41,11.46-.56.76-1.39,1.29-1.86,2.12-.41,3.91,2.66,7.17,2.66,11.02-1.14.56-2.54.54-3.55,1.35-.6,1.4-.21,2.92.29,4.28-1.25,1.45-1.33,3.44-2.29,5.04.08.09.23.27.31.36.24,2.75,2.27,12.78-.63,12.78s-13.63-6.3-13.63-6.3l-38.45,4.74c1.19-1.91,5.36-11.67,6.3-13.7-2.09-.39-4.17-.86-6.3-.88,3.17-3.83,5.44-8.4,6.51-13.26.52-2.34-.07-4.72-.55-7-.12-.64-.7-1.02-1.08-1.5.21-5.25,1.68-10.49,4.53-14.94,1.99-3.39,4.34-6.66,7.4-9.17,2.36-1.8,5.17-2.91,7.98-3.79,5.78-1.69,12.1-.4,17.19,2.65l-2.28,1.42ZM230.7,27.76c-4.26-2.13-9.15-3.29-13.91-2.45-3.01.53-6.08,1.66-8.28,3.87,4.85-2.9,10.81-3.95,16.31-2.56,2.25.43,4.26,1.66,6.53,1.96-.2-.29-.42-.57-.66-.83"/>
        <path class="cls-21" d="M202.63,48.28s6.71-4.15,20.76-3.58c14.05.57,19.61,3.58,19.61,3.58,0,0-2.57-10.56-11.47-15.45-15.62-8.58-25.74,1.47-25.74,1.47,0,0,6.12-3.55,14.32-3.02s13.24,6.67,13.24,6.67c0,0-4.46-3.59-8.76-4.46s-8.21-.63-8.21-.63c0,0,1.55,1.29,2.1,3.26s1.18,3.3,5.01,4.42,9.7,3.33,9.7,3.33c0,0-6.18-1.75-13.69-1.44-12.71.53-16.87,5.85-16.87,5.85Z"/>
        <path class="cls-21" d="M244.47,52.98s.07-1.32-.47-2-.84-1.27-3.2-2.01-7.97-2.11-12.49-2.62c-9.31-1.06-13.96.09-13.96.09,0,0,3.94.8,4.43,7.07.6,7.71-1.33,18.86-1.33,18.86l16.21,9.38-1.31-9.08s-.7-7.14-3.69-9.19c-2.99-2.05-5.37-3.33-5.37-3.33,0,0-1.21-.44-1.25-2.88s-.03-4.35-.18-5.5c-.15-1.15-.87-3.82-.87-3.82,0,0,3.3-.49,12.62,1.46,7.02,1.47,10.86,3.57,10.86,3.57Z"/>
        <path class="cls-13" d="M198.49,71s9.34-.05,14.3-5.57c4.97-5.52,5.86-9.25,5.29-12.28-.56-3.03-2.99-7.42-7.68-4.24-5.05,3.43-1.65,8.81-.77,9.77s2.97,2.42,2.97,2.42c0,0-3,3.73-4.04,4.65s-2.72,2.22-5.16,3.23c-1.78.73-4.91,2.02-4.91,2.02Z"/>
        <path class="cls-19" d="M238.45,54.23s-3.17-1.99-6.66-2.71-6.43-.92-6.43-.92l-.61,7.11,9.34,4.75s-.37,8.37.48,12.84c.85,4.48,1.5,7.2,3.51,8.93,2.01,1.72,4.05,2.01,4.05,2.01l-.47-10.51-5.34-1.99-.35-.71,6.65.33.53-.77-7.7-1.14s-.32-1.57,3.79-1.37c3.64.17,4.19.42,4.19.42l-1.49-3.72s-.73-.51-1.13-.72-1.12-.71-1.2-.79-.47-.63-.47-.63l7.86.4s-.83-2.93-1.66-4.64-1.24-3.31-1.35-4.1-.16-1.56-.16-1.56c0,0-.8.89-1.48,1.13s-2.02.51-2.02.51c0,0-.22.54-.2,1.21s.08,2.32-.67,2.36-1.25-.99-1.45-1.63-.52-1.68-.52-1.68l-.96,1.39s-.39-.51-.59-.94-.44-1.11-.44-1.11c0,0-.82-.41-2.5-1.11-.81-.34-3.58-.86-3.58-.86,0,0,2.58-.46,4.25-.55,2.53-.14,4.79.75,4.79.75Z"/>
        <ellipse class="cls-21" cx="213.23" cy="54.03" rx="4.11" ry="5.09"/>
        <path class="cls-19" d="M213.23,57.78c-1.5,0-2.76-1.71-2.76-3.74s1.27-3.74,2.76-3.74,2.76,1.71,2.76,3.74-1.27,3.74-2.76,3.74Z"/>
        <path class="cls-13" d="M193.48,85.78l1.41-3.16s.07-.8,1.69-1.04,4.28-.57,7.19-.41,7.84,1.23,7.84,1.23c0,0-5.28-.49-9.58.02-4.3.51-5.52.51-6.51,1.43-1,.92-2.03,1.93-2.03,1.93Z"/>
        <path class="cls-21" d="M211.61,82.4s-5.28-.49-9.58.02c-4.3.51-5.52.51-6.51,1.43-1,.92-2.03,1.93-2.03,1.93,0,0,5.47-1.89,8.8-2.37s9.33-1.01,9.33-1.01Z"/>
        <path class="cls-13" d="M215.65,79.65s-4.65-1.63-11.19-2.49-7.26.28-7.26.28l-.58,1.47s2.33-.7,9.33-.27c7,.42,9.71,1.01,9.71,1.01Z"/>
        <path class="cls-21" d="M208.93,78.86s4.8.48,8.66,1.08c3.86.61,3.53.39,4.79.52s4.24.72,4.24.72c0,0-3.81.9-6.34.46s-4.98-1.1-6.43-1.47-4.92-1.31-4.92-1.31Z"/>
      </g>
      <path class="cls-17" d="M172.97,75.26c-.33.4-.53.91-.53,1.46,0,1.26,1.02,2.28,2.28,2.28h.17c7.94-1.15,20.34-6.25,20.52-26.93l9.51-19.69,13.94-4.67,10.96,1.44,3.66.3-.95-2.63,6.97-10.3s-3.11-12.38-7.82-14.37c-1.15-.49-1.72-.1-2.86-.36l-4.3,8.69-.1-9.29c-4.61-.69-8.91-1.43-14.86-.5-1.37.21-1.85,1.1-3.1,1.41l.88,10.59-4.49-9.51c-2.95.92-4.18,1.34-6.44,2.72l1.53,6.55-4.39-4.34c-5.25,3.77-7.56,7.22-9.59,12.4l6.79,4.7-8.18-.56c-.78,2.56-.92,3.72-1.25,6.19l3.85,1.92-4.25,1.17c-.69,6.62-.38,9.54-.28,11.95,0,.16,1.95,1.1,1.96,1.27h6.99s-8.66,3.97-8.66,3.97c.02,1.5.25,1.8.2,3.63l4.75,1.45-5.09,2.21c-.23,5.07-4.31,10.17-7.68,14.76l-.13,2.06Z"/>
      <path class="cls-3" d="M233.48,29.46l2.39-3.77s-13.71-9.89-26.03-2.26c-12.33,7.63-13.65,22.77-13.65,22.77,0,0,6.42-15.52,14.95-18.71,13.31-4.98,22.34,1.98,22.34,1.98Z"/>
      <path class="cls-21" d="M203.88,3.86l3.47,8.84-1.34-8.81-.05-.36c-.01-.1-.02-.2-.02-.31,0-1.11.8-2.03,1.86-2.21l.31-.06c.47-.09.96-.17,1.45-.25,5.03-.79,9.56-.88,13.62-.48h0c1.13.11,2.01,1.07,2.01,2.22,0,.06,0,.08,0,.13l-.67,7.91,2.98-7.6.02-.05c.33-.83,1.13-1.41,2.07-1.41.22,0,.43.03.63.09h.01c.17.05.35.11.52.16l.61.22c5.25,1.87,9.01,6.88,9.01,12.77,0,2.28-.56,4.42-1.55,6.31l-.37.6-2.58,4.1-1.93-1.19,2.38-4.25.27-.52c.66-1.38,1.03-2.93,1.03-4.57,0-4.67-2.92-8.74-7.13-10.13-.09-.03-.18-.04-.28-.04-.35,0-.67.18-.85.45l-5.66,9.46-1.19-11.04h0c-.05-.48-.42-.85-.88-.91h0c-4.58-.59-9.24-.17-11.56.31-.66.13-.78.2-1.17.58-.43.42-.4,1.05-.4,1.05l-.1,12.69-5.64-11.72h0c-.12-.27-.39-.46-.7-.46-.08,0-.15.01-.22.03h0c-1,.3-2.2.91-2.88,1.28l-.03.02c-.25.13-.41.38-.41.68,0,.05,0,.1.01.14v.03s1.86,9.41,1.86,9.41l-6.27-5.65-.03-.03c-.18-.16-.41-.25-.67-.25-.24,0-.47.08-.64.23l-.06.05c-2.41,2.25-4.8,6.08-5.78,7.74l-.03.05c-.1.16-.15.34-.15.54,0,.31.14.59.35.77l.03.02,7.46,6.39-9.59-.43c-.46,0-.87.32-.99.75h0c-.2.71-.37,1.52-.5,2.13l-.03.17c-.01.07-.02.14-.02.21,0,.38.21.71.52.89l.17.09,5.46,3.03-5.8,1.45c-.41.1-.73.45-.78.88h0c-.28,2.73-.28,7.02-.27,8.92,0,.54.43.98.96,1.01l9.37.63-9.71,5.34c-.32.17-.54.51-.54.9,0,.04,0,.08,0,.12l.06.44h0c.06.39.32.71.67.83h.01s5.43,1.88,5.43,1.88l-5.69,3.71s-5.15,9.4-10.16,15.22l-.19.22c-.33.4-.51,1.2-.51,1.75,0,0-.18-1.32-.12-1.93.11-1.14.87-2.03.87-2.03,3.04-4.16,6.08-9.17,6.77-13.83v.06c.12-.89.77-1.61,1.62-1.84h0s4.27-1.22,4.27-1.22l-3.62-.37c-1.14-.1-2.03-1.06-2.03-2.23h0c0-.5,0-1,0-1.47v-.02c0-.95.59-1.75,1.43-2.07l.07-.02,7.85-2.88-7.07.68h-.03c-.07.01-.14.01-.22.01-1.2,0-2.18-.95-2.23-2.14h0c-.14-2.5-.34-6.29-.05-10.64h0c0-1.24,1-2.25,2.24-2.25l.89-.02,2.06-.04-2.98-.95h-.01c-.89-.3-1.55-1.14-1.55-2.13,0-.13.01-.25.03-.38h0c.2-1.2.45-2.41.76-3.62l.02-.09c.26-.94,1.12-1.63,2.15-1.63.14,0,.28.01.42.04l.11.02,6.61,1.2-5.99-3.43-.05-.03c-.67-.39-1.12-1.11-1.12-1.93,0-.34.07-.65.21-.94l.02-.05c1.77-3.83,4.29-7.47,7.87-10.51l.06-.05c.39-.32.89-.52,1.43-.52.71,0,1.34.33,1.75.85l.04.05,2.97,3.79-1.83-4.92-.03-.09c-.1-.25-.15-.52-.15-.81,0-.89.52-1.65,1.27-2.01l.08-.04c1.17-.62,2.38-1.17,3.81-1.7l.11-.04c.25-.09.44-.12.72-.12.97,0,1.8.62,2.11,1.48"/>
    </g>
  </g>
  <g id="logos">
    <g>
      <path class="cls-21" d="M231.53,296.54c-.16-1.09-.51-1.67-1.14-1.94-.37-.16-1.09-.23-1.48-.15-.15.03-.42.06-.59.06-.24,0-.35.05-.46.17-.15.16-.16.18-.18,2.88-.01,1.5-.04,3.2-.06,3.77-.03,1.15.02,1.39.32,1.48.09.02.66.04,1.27.04h1.11l.3-.21c.62-.43.77-.77.85-2.01.07-.95.05-1.12-.14-1.45-.13-.21-.13-.22.01-.55.25-.58.31-1.28.18-2.11ZM230.12,300.5c-.01.37-.05.75-.08.83-.08.19-.47.37-.83.37h-.27v-1.08c0-.59.01-1.1.03-1.12.08-.08.82.08.98.21.17.13.18.15.16.8ZM230.17,297.93l-.08.23-.41-.05c-.23-.02-.49-.04-.57-.04h-.16v-1.11c0-.62.02-1.14.05-1.16.02-.03.21-.05.41-.05.46,0,.66.17.77.68.1.46.1,1.22,0,1.51Z"/>
      <path class="cls-21" d="M222.38,296.16c.19.23.3.29.53.32.25.03.31.01.49-.16.57-.58.18-1.55-.77-1.92-.46-.18-1.01-.24-1.31-.15-.58.18-1.11.96-1.28,1.88-.06.3-.12.64-.14.75-.02.11-.07.83-.11,1.58-.08,1.65,0,2.95.2,3.41.36.81.86,1.13,1.76,1.13.69,0,1.09-.17,1.59-.68.57-.59.78-1.62.41-2.02-.19-.21-.46-.25-.73-.14-.23.1-.38.34-.46.73-.03.13-.1.21-.28.26-.14.05-.29.06-.34.04-.31-.12-.56-1.21-.62-2.73-.03-.84-.02-1.03.1-1.5.29-1.11.53-1.31.96-.79Z"/>
      <path class="cls-21" d="M226.26,294.35c-.4-.26-.85-.17-1.15.24l-.17.23-.06,3.08c-.09,4.45-.1,4.12.1,4.47.16.29.54.55.79.55.21,0,.55-.21.67-.42.18-.3.24-1.52.24-4.81,0-2.47,0-2.69-.12-2.95-.08-.16-.21-.33-.29-.39Z"/>
      <path class="cls-21" d="M215.21,291.17c-.08-.13-.25-.45-.39-.7-.14-.25-.38-.57-.53-.7-.45-.38-.64-.34-1.29.29-.62.6-.94,1.06-.94,1.31,0,.1.14.42.31.72.17.3.43.79.58,1.07.29.57.47.74.79.74s.53-.14.76-.55c.12-.21.34-.6.5-.87.35-.61.41-.98.22-1.31Z"/>
      <path class="cls-21" d="M217.53,292.29c0-.25-.27-.7-.49-.82-.81-.42-1.52.62-.87,1.26.49.49,1.37.2,1.37-.44Z"/>
      <path class="cls-21" d="M235.39,294.41c-.3-.13-.49-.12-.79.04-.49.26-1,1.09-1.31,2.12-.5,1.64-1.24,5.88-1.09,6.25.03.08.16.1.57.1h.53l.1-.32c.14-.46.33-.57.97-.59.48-.01.53,0,.7.16.12.13.19.28.21.5l.04.32.66-.02.66-.02v-1.54c-.06-4.78-.39-6.66-1.24-7.01ZM234.96,300.42c-.14.23-.17.25-.48.25s-.34-.02-.47-.23c-.18-.29-.18-.38.02-1.19.1-.36.21-.85.25-1.09.04-.23.12-.57.18-.77.1-.36.2-.44.26-.23.08.26.31,1.79.35,2.39.05.57.04.65-.1.87Z"/>
      <path class="cls-21" d="M212.5,321.25c-.15-.18-.36-.39-.46-.45-.1-.06-.3-.11-.46-.11-.25,0-.33.05-1,.66-.8.74-.92.91-.92,1.32,0,.38.14.64.71,1.23.27.29.57.63.68.77.36.49,1.03.5,1.5.03.12-.12.39-.51.59-.87.29-.52.36-.7.36-.96,0-.38-.05-.51-.44-.95-.16-.18-.41-.49-.56-.68Z"/>
      <path class="cls-21" d="M216.32,315.93c.31-.02.76.02,1.26.11,1.14.21,1.29.2,1.6-.12.22-.22.25-.3.25-.56,0-.17-.04-.39-.1-.49-.05-.1-.18-.53-.27-.96-.45-2.03-1.7-4.16-3.65-6.24-1.33-1.42-1.56-1.62-2.41-2.19-.48-.31-.89-.6-.92-.64-.02-.04-.23-.17-.46-.29-.23-.12-.51-.27-.61-.34-.1-.08-.23-.13-.29-.13s-.46-.11-.87-.25c-.97-.31-1.31-.3-2.14.1-.46.23-.63.35-.92.7-.47.57-.88,1.2-1.18,1.84-.14.28-.38.7-.55.92s-.41.59-.53.82c-.38.72-.72,1.16-1.32,1.72-.57.55-1.33,1.01-1.5.93-.05-.02-.22-.18-.38-.37-.38-.42-.36-.5.27-1.2.45-.5,1-1.19,1.87-2.34.19-.25.57-.83.84-1.27,1.01-1.65,1.18-1.89,1.44-2.19.16-.16.28-.33.28-.36,0-.04.25-.2.55-.36.83-.42,1.17-.94.94-1.4-.14-.29-.4-.44-.85-.49-.59-.06-.64-.09-.57-.46.04-.23.03-.38-.03-.55-.11-.25-.23-.33-.59-.4-.33-.06-.98-.59-1.26-1.04-.25-.38-.27-.39-.72-.33-.96.14-1.2.18-1.26.21-.06.03-.06.14-.02.42.27,1.68-.75,3.53-2.41,4.34-1.36.67-2.8.66-4.14,0-.96-.48-1.64-1.18-2.09-2.13-.12-.27-.27-.48-.32-.48s-.38.06-.72.14c-.34.08-.69.16-.77.17-.14.03-.14.06-.11.56.04.66-.16,1.69-.45,2.3-.55,1.13-1.64,2.02-3.01,2.45-.44.13-.65.16-1.44.16-1.04,0-1.28-.06-2.12-.46-.8-.38-1.52-1.1-1.9-1.88-.15-.31-.29-.62-.31-.7-.05-.18-.07-.18-1.08.14-.63.2-.66.22-.77.48-.07.15-.27.42-.46.61s-.34.4-.35.49c-.02.33.03.51.21.69.21.22.17.27-.27.39-.42.11-.68.38-.72.77-.06.59.39.98,1.5,1.29.77.21.72.18,1.72,1.32.6.7,1.59,1.52,2.09,1.76,1.11.53,2.24.9,3.25,1.06.84.12,1.6.33,1.77.49.07.07.17.22.23.33.08.19.08.26,0,.44-.05.12-.14.27-.2.31-.19.16-.77.23-1.4.16-2.43-.27-4.17-1.07-6.58-3.04-.4-.32-.93-.75-1.2-.94-.26-.21-.52-.42-.57-.49-.16-.2-.6-.38-.91-.38-.18,0-.45.08-.7.2-1.31.63-2.37,2.23-3.1,4.66-.52,1.73-.55,1.91-.96,5.05-.04.32-.08.69-.08.82.03,1.51.14,3.9.21,4.27.31,2.04.48,2.62.83,2.95.33.31.7.36,1.26.19.28-.08.47-.23,1.12-.87.92-.91,1.32-1.14,2.04-1.2.58-.04,1.05.09,1.65.46.42.25.48.27.96.27.87,0,1.17-.25,2.27-1.91.85-1.27,1.27-1.75,1.82-2.04,1.05-.56,2.08-.41,2.85.42.33.36.42.46,1.18,1.43.51.65,1.03,1.05,1.5,1.17l.36.08-.04.27c-.14,1-.17,1.76-.08,1.98.19.46.79.62,1.19.33l.2-.14.15.14c.11.11.23.15.46.15.27,0,.34-.03.52-.23l.21-.23-.05-.98-.05-.99.57.05c1.37.14,3.14,0,4.42-.36.64-.17,1.62-.56,1.89-.75.08-.05.17-.1.19-.1.03,0,.21.24.39.53.43.67.51.73.91.73.34,0,.63-.18.71-.45.03-.1.09-.12.33-.09.55.08.98-.42.84-.97-.03-.1-.3-.44-.6-.75l-.55-.57.36-.4c.33-.36.62-.86.62-1.07,0-.05.06-.16.13-.26.08-.09.19-.33.27-.54.62-1.69.94-2.18,1.57-2.47.44-.21,1.19-.2,1.79.01.61.21,1.45.64,1.97,1,.32.23.56.33.89.4,1.59.33,1.99.18,2.52-.98.73-1.57,1.58-2.31,2.71-2.38ZM188.03,317.06s-.24-.05-.51-.15c-.7-.23-1.58-.33-2.52-.29-.7.03-.89.07-1.58.3-.43.15-.9.33-1.04.4-.41.21-1.13.85-1.61,1.41-.25.29-.46.53-.47.53-.02,0-.25-.18-.53-.41-.75-.63-1.11-.79-1.82-.79-.49,0-.64.03-.92.18-.36.19-.86.67-1.12,1.09-.18.3-.21.31-.42.13l-.16-.13.08-.91c.15-1.63.36-2.68.91-4.44.26-.83.98-2.32,1.35-2.79.26-.32.31-.36.56-.36.39,0,.7.18,1.61.94,1.11.92,1.76,1.4,2.75,2.06,1.01.66,1.54.93,2.56,1.26.94.3,1.43.38,2.41.38.56,0,.77.02.77.08,0,.08-.29,1.44-.31,1.48ZM195.52,304.72c-.26.33-.56.42-1.4.4-.72,0-.76,0-1.05.2-.59.39-1.11.42-1.51.09-.25-.22-.27-.49-.05-.75.16-.19.4-.23.75-.14.15.04.22.02.36-.12.24-.23.23-.45-.06-.79-.4-.47-.31-.86.21-1.05.35-.13.46-.13.75-.01.31.13.43.44.33.82-.09.34,0,.58.28.71.18.09.22.08.45-.08.33-.23.68-.24.88-.02.23.24.26.53.08.75ZM212.14,309.96c-.43.19-.97.78-1.31,1.43l-.29.55-.53-.27c-.99-.51-1.22-.58-1.93-.58-.57,0-.7.01-1.05.18-.22.1-.66.39-.98.64-.49.38-.65.56-1.07,1.2-.27.41-.51.72-.54.7-.03-.03-.21-.37-.4-.75-.19-.38-.45-.82-.58-.97-.13-.15-.24-.3-.24-.33,0-.03.18-.18.38-.33.44-.31,1.27-1.16,1.58-1.61.26-.38,1.15-1.98,1.21-2.17.03-.08.13-.25.23-.39.1-.13.29-.42.42-.65.33-.58.85-1.18,1.16-1.32.48-.23,1.31-.1,2.17.33.6.3,1.71.98,2.19,1.34.63.47,1.93,1.74,2.54,2.46l.5.6-.18.16-.19.16-.27-.16c-.89-.52-1.97-.61-2.82-.23Z"/>
      <path class="cls-21" d="M178.19,292.23c-.24.78-.25.86-.29,2.06-.04,1.72.12,2.35.81,3.22.6.77,2.05,1.8,2.75,1.97.14.03.18.08.15.16-.36.91-.77,2.6-.62,2.6.06,0,1.2-.34,1.26-.38.03-.01.08-.18.1-.36.12-.93.58-1.85,1.31-2.58,1.03-1.02,2.33-1.52,3.76-1.45,1.44.08,2.67.7,3.47,1.77.31.42.38.47.53.44.1-.02.53-.11.98-.19l.8-.16v-.28c0-.44.18-1.18.4-1.65.54-1.15,1.55-2,2.85-2.39.5-.15,1.8-.17,2.35-.03.54.13,1.41.56,1.86.93.33.27.88.9,1.07,1.24.05.08.16.08.73-.04.38-.08.71-.15.74-.16.1-.03-.73-1.1-1.41-1.8l-.66-.68.24-.59c.32-.77.49-1.47.59-2.36.1-.88.04-1.24-.48-2.85l-.35-1.09-1.11-1.19c-.94-1.01-1.26-1.31-2.17-1.98-.87-.64-1.18-.83-1.68-1.02-.8-.31-1.05-.33-1.61-.14-.57.21-1.15.59-1.57,1.06-.29.32-.36.45-.51,1.03-.2.75-.35,1.77-.46,3.19-.04.53-.1,1.22-.14,1.52-.07.55-.08.59-.36.87-.16.16-.51.4-.75.51-.38.18-.53.21-.96.21-.86,0-1.09-.18-1.56-1.17-.48-1.03-1.54-2.83-1.84-3.13-.87-.88-1.61-1.33-2.61-1.59-.63-.16-.85-.16-1.51-.04-.45.09-.5.12-.85.49-.49.54-.87,1.12-1.72,2.59-.78,1.37-1.16,2.21-1.54,3.42ZM194.92,287.13c.12-.09.48-.25.8-.36,1.18-.39,2.17-.15,3.04.72.5.5.78.96,1.04,1.72.15.45.19.7.21,1.44.05,1.5-.14,2.08-.81,2.43-.39.2-.86.08-1.65-.41-.35-.22-.82-.49-1.05-.61-.23-.12-.44-.25-.46-.29-.03-.04-.27-.18-.54-.31-.93-.44-1.68-1.31-1.68-1.95,0-.76.57-1.99,1.11-2.39ZM182.4,289.12c.78-.15,1.87-.04,2.58.27.38.16.57.43,1,1.39.3.66.31,1,.08,1.65-.25.64-.31.76-.81,1.42-.24.32-.75,1.14-1.13,1.82-.68,1.2-.7,1.24-1.08,1.46-.33.19-.46.23-.97.25l-.58.03-.42-.31c-.56-.42-.96-.87-1.16-1.29-.25-.53-.4-1.52-.36-2.36l.03-.71.5-.98c.85-1.68,1.56-2.47,2.32-2.62Z"/>
      <path class="cls-21" d="M181.1,282.86c.38.49.68.63,1.09.52.36-.09.63-.36.95-.96.12-.22.26-.44.32-.49.15-.12.36-.59.37-.8,0-.08-.06-.27-.13-.42-.19-.36-1.01-1.38-1.26-1.57-.27-.18-.83-.26-1.05-.14-.17.1-1.2,1.46-1.39,1.84-.27.53-.14.92.44,1.36.21.16.5.44.66.65Z"/>
      <path class="cls-21" d="M240.99,287.01c-.11-.1-.31-.46-.46-.8-1-2.38-2.74-5.07-4.42-6.84-.27-.29-.59-.66-.7-.83-.11-.18-.31-.37-.43-.43-.12-.07-.43-.29-.68-.52-2-1.76-4.25-3.16-6.64-4.16-.43-.18-.83-.37-.89-.42-.15-.13-1.67-.64-1.89-.64-.11,0-.39-.05-.64-.1-1.1-.25-2.15-.46-2.84-.55-.91-.12-4.33-.18-5.33-.09-1.82.16-3.88.62-5.69,1.26-.59.21-1.13.38-1.2.38s-.35.13-.64.28c-.29.16-.88.46-1.3.68-1.37.72-2.63,1.52-3.81,2.45-1.88,1.47-3.79,3.51-5.08,5.42-.2.29-.36.55-.36.59s.12.14.26.23c.14.1.72.55,1.31,1,.58.45,1.08.83,1.11.83s.1-.24.16-.53c.33-1.48.99-2.88,1.8-3.84.66-.77,1.56-1.62,1.88-1.78.57-.27.55-.36.55,1.85,0,2.01.08,2.95.38,4.87.08.52.14.95.12.96-.01.01-.42.25-.92.54-1.78,1.03-1.68.96-1.63,1.11.08.25.29,1.16.33,1.41l.05.25.38-.24c.55-.36,2.1-1.26,2.15-1.26.03,0,.16.45.29,1,.7,2.88,1.77,6.59,2.57,8.93.23.67.41,1.23.4,1.24-.02.02-.62.26-1.46.59l-.21.08.26.1c.4.14.61.32.86.76.13.22.25.41.26.42,0,.01.21-.05.43-.13.24-.09.44-.13.47-.1.03.03.16.33.28.68.35.94.36.95.96,1.3.3.18.85.52,1.2.76s.66.44.67.44-.1-.29-.25-.64c-.49-1.13-1.29-3.21-1.25-3.25.02-.02.38-.18.81-.35l.77-.31.02-.94.02-.93-1.05.41c-.57.23-1.09.42-1.14.42-.23.02-2.32-6.92-3.12-10.38-.12-.53-.21-.98-.18-1,.08-.08,1.58-.81,2.89-1.39,2.95-1.32,5.42-2.34,7.68-3.17.49-.18.94-.35,1-.38.08-.03.19.08.45.46,1.3,1.93,4.31,7.53,5.09,9.49l.23.58,2.52.02h2.52s2.14-.85,2.14-.85c1.18-.47,2.15-.85,2.17-.83.03.03.29.96.34,1.22.1.52.03.49.94.46l.83-.02-.02-.21c-.01-.12-.12-.57-.23-1.03-.12-.45-.23-.88-.24-.96-.03-.12.16-.21,1.9-.91,1.06-.42,1.95-.74,1.98-.71.12.13.61,2.13.75,3.03.05.28.1.59.12.68l.03.16.79-.04c.44-.02.81-.05.83-.08.11-.11-.49-2.99-.85-4.09-.13-.38-.16-.6-.13-.79.05-.32-.04-.58-.29-.82ZM223.27,274.08c.73-.08.85-.08,1.37.06,1.85.47,5.21,2.08,6.55,3.15.22.17.22.18.12.42l-.1.24-1.29.08c-.71.04-1.56.12-1.89.16-.5.07-.62.06-.72-.02-.08-.05-.49-.36-.92-.69-.43-.32-1.15-.83-1.6-1.13-.44-.29-.9-.62-.99-.74-.1-.11-.38-.31-.64-.44-.36-.19-.47-.29-.55-.5-.05-.14-.1-.29-.1-.32,0-.12.3-.23.75-.27ZM218.2,280.74s-.27.1-.57.21c-2.04.72-7.14,2.86-9.51,4.01-.54.25-.98.44-.98.42s-.04-.33-.1-.66c-.36-2.26-.44-4.76-.21-6.1.14-.77.46-1.73.7-2.08.6-.87.91-1.09,2.41-1.69.98-.39,1.31-.4,1.95-.08,1.11.56,2.84,1.87,3.78,2.85.72.77,2.58,3.08,2.51,3.13ZM219.89,280.16l-.1-.15c-.05-.08-.45-.61-.88-1.16-.98-1.29-1.98-2.41-2.73-3.08-.77-.7-.81-.74-.86-.91-.03-.12,0-.18.18-.29.27-.17.53-.16,1.59.1,1.85.44,3.81,1.24,5.34,2.17.98.59,2.64,1.7,2.67,1.79.01.03-.29.14-.68.23-.91.2-2.37.61-3.57,1l-.96.31ZM232.8,289.79c-4.45,1.79-6.16,2.47-6.23,2.47-.04,0-.24-.39-.44-.87-.83-2-3.51-7.02-4.89-9.19-.16-.25-.29-.49-.29-.51,0-.13,2.88-.94,4.68-1.32.68-.14,1.26-.26,1.29-.26.1-.01,1.25,1.15,1.96,1.98,1.73,2.02,3.5,4.61,4.24,6.21.25.55.47,1.03.49,1.08.01.05-.27.21-.8.42ZM239.11,287.24c-.05.05-3.76,1.53-3.84,1.53-.04,0-.21-.3-.37-.67-.49-1.11-.91-1.85-1.9-3.34-1.05-1.57-2.02-2.84-3.12-4.09l-.73-.82.23-.05c.12-.03.73-.08,1.35-.11,1.45-.08,3.16-.04,3.4.07.22.11,1.52,1.57,2.19,2.47.72.97,1.35,1.95,1.9,3.02.53,1.02.94,1.94.9,1.99Z"/>
      <path class="cls-21" d="M216.94,301.42c-.13,0-.18-.08-.31-.41-.27-.73-.76-1-1.27-.68-.3.18-.45.51-.46.96,0,.47.17.82.62,1.24.48.45.84.57,1.54.52,1.03-.08,1.73-.59,2.01-1.46.1-.33.1-.45.04-.98-.12-.9-.31-1.25-1.06-1.93-.35-.31-.76-.7-.92-.85l-.29-.28v-.55c0-.44.03-.57.13-.7.12-.14.16-.15.26-.08.62.42,1.01.47,1.28.15.47-.55-.1-1.76-.94-2.01-.18-.05-.43-.1-.55-.1-.31,0-.96.29-1.31.58-.68.56-.91,1.12-.79,1.99.16,1.11.56,1.72,1.65,2.54.21.16.48.42.58.57.18.25.2.34.2.79,0,.55-.09.7-.42.7Z"/>
      <path class="cls-21" d="M242.27,294.72c0-.3-.11-.47-.38-.59-.25-.1-.4-.12-.46-.05-.03.03-.97.04-2.11.04-1.28,0-2.11.01-2.19.05-.16.09-.33.42-.33.64,0,.1.08.25.16.36.14.16.24.2.77.26l.61.08v.58c0,.32-.05,1.03-.1,1.57-.04.55-.1,1.89-.12,2.97l-.04,1.98.25.23c.22.19.3.22.64.22.36,0,.64-.12.97-.39.01-.01.05-1.61.07-3.54.03-1.93.07-3.54.09-3.56.03-.03.39-.07.81-.1,1.06-.06,1.35-.23,1.35-.75Z"/>
      <path class="cls-21" d="M197.21,298.37c-.29-.25-.68-.23-.98.07s-.31.57-.03.87c.17.19.25.23.51.23.44,0,.69-.25.69-.69,0-.26-.03-.34-.19-.48Z"/>
      <path class="cls-21" d="M216.02,319.77c.91.1,1.56.11,2.8.08,1.74-.03,2.75-.14,4.33-.46,6.95-1.4,12.97-5.85,16.38-12.13.48-.87,1.31-2.67,1.31-2.82,0-.06-.25-.08-.87-.08h-.87l-.48,1c-1,2.11-2.22,3.9-3.85,5.69-.48.51-.75.76-1,.87-.29.14-.35.14-.4.05-.09-.16,0-.4.36-.98.46-.74.75-1.32,1.19-2.43.49-1.26.83-2.26,1.11-3.33l.23-.87h-1.38c-.75,0-1.69-.02-2.07-.05l-.69-.04-1.14.53c-.63.29-1.15.52-1.16.51,0-.01-.04-.24-.08-.5l-.06-.48-.83-.02c-.7-.01-.84,0-.84.08,0,.09.08.72.17,1.41l.03.25-.98.38c-2.17.85-4.24,1.55-6.95,2.36-.77.23-1.5.45-1.62.49l-.22.07.4.63c.22.35.44.68.49.76.09.12.15.11,1.49-.3,2.65-.8,5-1.6,6.75-2.28.35-.14.66-.25.7-.25.1,0,.08,1.87-.05,2.9-.1.81-.38,2.13-.62,2.94-.31,1.02-.7,1.7-1.33,2.34-1.22,1.24-2.69,1.18-4.93-.18-.25-.16-.49-.29-.53-.29s-.06.09-.06.19c0,.29-.31.84-.59,1.07-.63.5-1.5.66-2.72.51-.99-.13-1.47.08-2,.85-.27.4-.7,1.31-.64,1.37.03.02.58.1,1.24.16ZM229.76,311.86c.13-.87.17-1.52.21-2.91l.03-1.8.99-.46c.55-.25,1.5-.72,2.12-1.05q1.24-.64,1.2-.52s-.11.36-.21.7c-.27.91-.96,2.71-1.31,3.4-.27.54-.98,1.7-1.65,2.71-.36.54-.94,1.14-1.15,1.2-.12.03-.21,0-.28-.06-.1-.1-.09-.22.05-1.22Z"/>
      <path class="cls-21" d="M178.34,282.62c-.46-.21-.92-.15-1.26.16-.52.49-.45,1.26.14,1.62.52.31,1.05.24,1.45-.21.46-.51.29-1.29-.33-1.58Z"/>
      <path class="cls-21" d="M187.8,298.75c-.75-.12-1.38-.04-2.06.25-1.35.57-2.17,1.73-2.17,3.08,0,1.61,1.28,2.84,3.08,2.95,1.07.05,2.04-.33,2.84-1.11,1.09-1.07,1.28-2.62.5-3.81-.44-.66-1.32-1.21-2.18-1.35ZM189.48,302.14c-.12.28-.64.67-1.1.83-.51.18-1.28.16-1.71-.03-.43-.2-.64-.38-.79-.73-.16-.33-.16-.61-.03-.98.21-.58.58-.94,1.2-1.17.72-.26,1.51-.13,2,.33.44.42.64,1.23.42,1.76Z"/>
      <path class="cls-21" d="M198.55,296.22c-.75-.19-1.34-.16-2.08.1-1.35.48-2.24,1.93-2,3.28.27,1.61,1.61,2.7,3.3,2.7s2.93-1.03,3.22-2.6c.27-1.5-.81-3.06-2.44-3.48ZM198.52,300.02c-.47.53-1.25.79-1.95.65-.46-.1-.68-.21-.88-.42-.28-.31-.38-.6-.36-1.01.05-.79.55-1.37,1.26-1.5.93-.16,1.57.18,1.98,1.06.24.51.22.92-.05,1.23Z"/>
      <path class="cls-21" d="M241.95,300.54c.56.81.77.96,1.19.81.24-.09.29-.17.76-1.08.38-.76.49-1.03.46-1.16-.05-.25-.62-1.21-.91-1.57-.2-.25-.27-.29-.49-.29-.14,0-.29.04-.35.09-.19.15-1.11,1.44-1.24,1.74-.13.29-.13.31,0,.53.07.13.33.55.59.93Z"/>
      <path class="cls-21" d="M188.27,300.56c-.49-.25-.98,0-.98.51,0,.23.04.32.21.46.16.14.25.16.49.14.16-.01.36-.08.43-.15.29-.26.21-.77-.14-.96Z"/>
    </g>
    <g>
      <path class="cls-20" d="M265.74,386.02c0-16.09-24.86-29.13-56-29.13s-56.4,13.04-56.4,29.13,25.25,28.82,56.4,28.82,56-12.73,56-28.82Z"/>
      <g>
        <path class="cls-19" d="M244.31,367.59s.29-.45.39-.42c.71.21.91,1.12,1.21,1.68.27.52,1.09.33,1.33.93.13.32-.33.52-.24.73.13.31.65.38.8.66.36.66-.31,1.27-.76,1.74-.15.15-.58.13-.84.01-.3-.13-.69-.49-.32-.88.26-.27.81-.36.7-.74-.35-1.14-.91-2.38-1.91-3.06l-.35-.67Z"/>
        <path class="cls-19" d="M244.53,368.55c.23.76.41,1.53-.18,2.13.32.3.51.73.69,1.1.11.23-.28.51-.55.71-.07.05-.22.05-.27,0-.68-.73-1.48-1.88-2.6-1.35.33,1.23,1.26,2.15,2.43,2.58.19.96.51,1.9.43,2.88-.02.21-.13.45-.3.59-.73.6-1.24,1.18-2.1,1.56-.08.04-.16.2-.14.27.35,1.1,1.88,1.68,1.44,2.87-.3.81-1.18.32-1.78.05-.07-.03-.25.07-.26.13-.06.84.79,1.41.57,2.28-.59.44-1.12-.28-1.48-.65-.53-.54-.45-1.34-.55-2.08-.1-.7-.64-1.17-1.14-1.69-.15-.16-.18-.42-.34-.57-.57-.52-1.09-.94-1.38-1.68-.01-.04-.2-.05-.26,0-.82.64-.96,1.67-1.64,2.45-.43.48-.41,1.14-.55,1.77-.08.34-.47.62-.84.44-.22-.1-.44-.31-.45-.58-.04-.92-.73-1.51-1.08-2.28.11-2.31-2.37-3.41-4.4-3.04-.63-.38-1.23-.68-1.97-.76-.46-.54-.99-1.08-1.68-1.15-.16-.02-.5.33-.39.51.62,1.05,1.89,1.63,3.13,1.7.73.6.11,1.6-.23,2.23-.34.63-.85,1.34-1.6,1.49-2.14.42-2.56-2.34-3.7-3.66-.43-.5-.67-1.1-1.17-1.55-.03-.03-.22.06-.26.13-.07.18-.07.41,0,.59.76,1.84,1.99,3.38,3.38,4.81.31.32.69.67,1.16.78.48.12.85-.37,1.23-.51,1.02-.35.74.8.54,1.44-.08.25-.41.39-.54.63-.7,1.28-1.72,2.14-2.57,3.35-1.07,1.53-.39,3.29-.73,4.97-.26,1.29-1.19,2.27-1.58,3.51-.77.6-1.05,1.53-1.69,2.26-.83.93-2.5,1.64-3.42.59-.22-.26.13-.68.05-1.01-.12-.48-.44-.9-.52-1.38-.2-1.28-.63-2.41-1.36-3.52-.15-.22-.13-.61,0-.86.84-1.59.38-3.38-1.07-4.48-.54-.41.11-1.04-.05-1.62-.03-.11-.07-.23-.15-.29-.46-.32-.96-.08-1.36-.47-1.17.17-2.34-.39-3.49,0-1.57-.62-2.27-2.09-2.52-3.65-.09-.61.37-1.22.3-1.8-.1-.88-.46-1.68-.37-2.59.85-1.17,1.53-2.36,2.3-3.63.15-.25.39-.56.59-.55,1.06.03,2.08.29,3.2.16,1.07-.13,1.72.98,2.74,1.21.56.13,1.09.36,1.65.33.26-.01.53-.28.78-.34,1.08-.25,2.3.03,3.13-.73.17-.16-.13-.58-.28-.64-.78-.27-1.86-.37-2.1-1.29-.66.01-.48.91-.78,1.35-.03.05-.18.03-.28.01-.28-.05-.54-.26-.55-.45-.08-1.04-.71-2.02-1.73-2.24-.03,0-.15.2-.12.25.48.74,1.13,1.27,1.34,2.14-.47-.1-.89.3-1.39.04-.08-.04-.26.14-.43.11.71-1.1-.14-2.19-1.21-2.58-.9.26-1.73.69-2.58,1.06.07.44-.11.94-.61,1.06-.56.13-1.05-.09-1.48-.35-.56-.33.08-.95-.03-1.47.51-.32,1.25-.04,1.62-.5.13-.15.33-.45.18-.71-.47-.85-1.43-1.56-.99-2.57.02-.04.27-.08.39-.18.23-.2.09-.63.19-.68.96-.45,1.41.85,1.79,1.6.74.2,1.06-.39,1.37-.91.74.31,1.47.97,2.11.14.5-.65.39-1.49.44-2.26,0-.04-.17-.1-.27-.15-.36.75-.39,1.7-1.08,2.26-.06.05-.2.04-.28,0-.45-.19-.14-.74-.48-1.02-.09-.08-.29-.06-.43-.01-.43.14-.79.77-1.19.26-.35-.45-.85-1.3-.16-1.58,1.12-.46,1.62-1.77,2.73-2.11,1.03-.31,2.4-.23,2.73,1.13.04.18.3.32.41.27.81-.41,1.24-1.72,2.32-.89.1.08.28.05.43.01.5-.11.76-.63,1.22-.7.51-.08,1.01.27,1.5.2,1.21-.15,1.19-1.65,1.98-2.38.92-.18,1.51.63,2.42.82.29.06.32.53.62.69.64.33,1.34.04,1.96.08.28.02.62.05.92.23,1.44.91,3,.28,4.54.51.36.05.7.28,1.08.37.4.09.8-.03,1.2.06.65.15,1.21.53,1.84.65,1.22.24,1.53-.68,2.7-.24,1.44.53,3.77,1.28,5.06,2.03-.3.26-.8.21-.9.58-.18.66.72,1.1.52,1.8-.09.31-.44.42-.71.28-.98-.51-1.25-1.58-1.71-2.54-.04-.08-.22-.17-.26-.13-.69.49-1.54.26-2.11.77-.12.1-.08.41.13.55,1.09.76,2.03,1.48,2.92,2.4l.44.79Z"/>
        <path class="cls-19" d="M242.56,386c.35.38.36.95-.02,1.24-1.52-.26-3.69-.99-3.34-2.88.3,0,.66-.1.88.05.87.6,1.78.83,2.49,1.6Z"/>
        <path class="cls-19" d="M245.12,388c-.61.33-1.8.25-1.93-.46-.02-.08.16-.26.27-.26.61-.05,1.42.11,1.67.73Z"/>
        <path class="cls-19" d="M246.18,386.18c-.56.5-1.4.89-1.92.38-.31-.3-.38-.88-.63-1.32-.11-.2-.06-.68.1-.65,1.16.22,1.78-.36,2.47-1.13.05-.05.22-.05.26,0,.59.79.52,2.01-.28,2.72Z"/>
        <path class="cls-19" d="M248.3,383.38c-.62.06-1.43-.57-.9-1.3.4.08.72-.23,1.07-.25.73-.04.7.72.57,1.3-.07.31-.5.23-.73.25Z"/>
        <path class="cls-19" d="M247.07,379.65c.26.62,1.13,1.02.87,1.64-.24.57-1.14.4-1.45-.14-.26-.45-.29-.93-.57-1.39-.1-.17-.18-.66.1-.66.36,0,.86.11,1.04.55Z"/>
        <path class="cls-19" d="M224.63,391.5c-.28.36-.3.77-.35,1.2-.07.52-.44,1.01-.89,1.15-.48.14-.83-.48-.7-.98.14-.55.66-.88.79-1.51.13-.61.69-1.02.88-1.68,0-.03.21-.04.25,0,.39.51.55,1.13.03,1.81Z"/>
        <path class="cls-19" d="M206.85,363.22c-.52.09-1.11.16-1.5-.28-.05-.06-.05-.2,0-.28.45-.71,1.26-.03,1.96-.13.1-.01.21.14.14.27-.14.23-.36.39-.6.43Z"/>
        <path class="cls-19" d="M200.55,359.52c-.2,0-.31.17-.54.21-.35.06-.74-.07-1.04.06-.57.25-1.12.18-1.7.38-.23.08-.58.12-.72-.14-.09-.16-.06-.51-.01-.53,1.41-.38,2.77-1.43,4.2-.62.1.06.04.38-.12.55l-.08.07Z"/>
        <path class="cls-19" d="M200.9,359.58c.62-.78,1.45-.8,2.31-.74,1.22-.67,2.75-.87,4.08-.41.34.12.6.47.46.86-.2.55-.72.79-1.16,1.12-.31.23-.38.68-.64,1.01-.2.26-.49.35-.77.42-.7.18-1.4.12-2.11.25-1.17.21-1.59,1.59-2.76,1.85-.55.12-.72-.53-.57-1,.22-.65.7-1.16.88-1.83-.5-.4-.3-1,.13-1.39l.15-.15Z"/>
        <path class="cls-19" d="M197.14,366.74c0,.47.53.9.15,1.37-.32.39-.89.37-1.31.38-.62-.01.29-.88.36-1.3,0-.03-.21-.15-.25-.12-.29.22-.6.24-.92.31-.72.16-.84.88-.61,1.48.36.96-2.5.69-3.04,1.97-.44.12-.62.45-.93.74-.25.23-.69.26-.83.51-.13.22-.22.58-.39.67-1.16.6-1.84,1.57-2.06,2.8,0,.03.17.09.27.15-.51.21-.71,1.19-1.36.6-.35-.31.02-.7-.04-1.05-.17-.91-1.05-.11-1.63-.19-.07,0-.1-.24-.16-.24-.7-.02-1.43-.41-1.92.16-.68.78-.84,1.83-.78,2.84.01.21.12.46.3.58.66.46,1.16-.36,1.8-.57.17-.06.38.04.42.15.16.51-.06,1.01-.25,1.51-.05.13-.06.32,0,.43.49.78,1.46,1.07,1.38,2.14-.02.3.27.59.57.56.24-.02.21-.47.47-.54.16-.05.31-.08.44-.18.23-.19.42-.54.61-.53.61.02,1.09.28,1.7.46.56.17,1.22.04,1.78.26.43.17.54.72.93,1.01.19.14.4.28.6.28.87.01,1.66.53,1.82,1.4.1-.05.2-.1.3-.15-.05.1-.16.24-.12.28.43.65,1.46.49,1.79,1.23.67.17,1.45-.03,1.94.49.69.73,1.17,1.72.76,2.68-.26.62-.94,1.03-.96,1.69-.05,1.4.11,3.27-1.28,4.1-.34.84-.12,1.8-.88,2.47-.22.19.14.37.25.58.14.26-.08.51-.17.73-.32.72-1.18,1.02-1.29,1.84-.08.63-.24,1.23-.26,1.82-.02.6.73.78,1.05,1.32.32.54,1.31.75.97,1.55-.08.18-.26.38-.44.43-1.48.42-2.19-1.14-2.97-2.14-.8-1.03-.76-2.49-1.88-3.29-.16-1.31-.77-2.41-1.16-3.66-.26-.83.19-1.69.08-2.56-.03-.22-.15-.42-.29-.6-.28-.34-.65-.57-.87-.94-.61-1.06-1.17-2.2-2.31-2.71-.28-1.1-.96-1.88-1.67-2.73-.11-.98.46-1.81.7-2.75.19-.72-.49-1.22-1.03-1.63-.46-.35-1.09-.43-1.44-.84-.85-1-1.8-1.57-2.94-2.08-.9-1.06-1.14-2.56-1.42-3.94-.08-.39-.2-.83-.57-1.04-.06-.03-.24.06-.26.13-.2.83.73,1.66.25,2.41-.03.05-.21.05-.26,0-.38-.42-.49-.95-.67-1.49-.19-.58,0-1.12-.14-1.68-.16-.69-.64-1.28-.52-1.97.31-1.85,1.31-3.47,3.09-4.34.09-.04.15-.47.25-.64.41-.66,1.03-1.12,1.3-1.86-.44-1.45-2.27-.58-3.34-.49-.04,0-.09-.23-.15-.24-.88-.16-1.56.53-2.43.72-.34.08-.05-.21-.15-.29.79-.17,1.23-.86,1.85-1.34.38-.3.86-.31,1.34-.38.67-.1.99-.76,1.55-1.13.21-.14.47.24.72.1,1.5-.83,2.98-1.81,4.71-1.62.17.02.21.35.32.37.61.13,1.19-.09,1.82-.23.81-.18,1.4.35,2.13.56.08.02.26-.07.26-.13.06-.53-.07-1.22.37-1.43.38-.19.88-.19,1.34-.33.37-.11.8-.01,1.21.03.25.02.6-.2.9-.2.87,0,1.64.69,1.34,1.63-.27.84-1.02,1.29-1.77,1.72-.03.02-.06.21-.18.25-1.03.32-2.27.71-2.73,1.68.54.55.6,1.1.76,1.82.28.35.54-.56.77-.9.15-.22.41-.33.55-.5.64-.82,1.42-2.56,2.58-1.72.17.12-.08.61.22.82.41.29,1.03.03,1.33.49.39.61.64,1.24.63,1.96Z"/>
        <path class="cls-19" d="M189.39,378.44c-.57.1-1.12.29-1.22-.46-.69.56-1.43-.04-2.14-.25-.24-.07-.53-.13-.71-.25-.16-.12.17-.35.27-.35,1.05-.08,2.19.08,3.03.71.36-.34.97-.16,1.17.18.04.07-.14.25-.11.43-.1,0-.2-.01-.3,0Z"/>
        <path class="cls-19" d="M191.06,412.14c-.13-.68-.54-1.31-.25-1.95.24-.54.88-.8,1.47-.9,1.39-.23,2.31.9,3.64,1.14.43.08.85-.22,1.23-.36.34-.13.81-.17,1.19.09.78-.66.75-1.73,1.29-2.53.1-.15.53-.05.84-.05-.01.41.13.8.21,1.2.13.69,1,.94,1.13,1.69.07.41-.02.8.05,1.21.03.17.15.35.29.44.63.37,1.33.08,1.98-.04.79-.15,1.58.21,2.4.03,1.04-.23,1.14-1.51,2.01-2.05.93-.57,2-.59,3.02-.92.46-.15.81.42,1.19.36,1.38-.22,2.6.05,3.95-.14.67-.09,1.27-.38,1.85-.83,1.34-1.04,3.45-.74,3.99,1.02.02.06.35.06.54,0,.46-.15.81-.52,1.24-.69,1.39-.56,2.93-.45,4.23-1.26.89.01,1.72.3,2.59.4,2,.22,4.43-.75,5.9,1.13.05.07.05.22,0,.28-.35.4-.64.86-.58,1.38l.06.2c-7.98,2.22-17.14,3.49-26.87,3.49-6.46,0-12.67-.56-18.44-1.58l-.16-.74Z"/>
        <path class="cls-19" d="M224.33,371.44c-.04-.09.01-.21-.02-.29-.21-.53-.92-.83-.47-1.54.03-.05-.06-.24-.13-.26-.41-.08-.81.05-1.06.58.52.52.08,1.47.66,1.91.34.25.9.7,1.28.19.15-.2-.17-.37-.25-.58Z"/>
        <path class="cls-19" d="M254.67,393.77c-.03.43-.43.74-.53,1.08-.6,2.06-2.11,3.4-3.89,4.33-.48.25-.98-.25-1.49-.4-.28-.85-1.22-.15-1.82-.3.21-.57.28-1.33-.46-1.67-1.51.16-2.54,1.37-3.96,1.77-.27.08-.67.01-.87-.27-.1-.14.02-.35.14-.41,1.8-.89,1.46-2.96,1.81-4.58,1.01-.81,2.41-.91,3.45-1.72.4-.31.71-.65,1.12-.99.53-.44,1.31.12,1.77-.36.22-.23.39-.54.66-.69.59-.32,1.51-.42,1.94.13.05.07.05.2,0,.28-.21.39-.69.69-.67,1.07.02.37.45.81.81.68.84-.3.24-1.55.84-2.15.21-.21.68,0,.69.41,0,.61.17,1.24-.13,1.82.31.29.45.69.58,1.07.09.28.04.6.02.9Z"/>
        <path class="cls-19" d="M255.43,400.59c-.56.53-.94,1.24-1.68,1.48-.55.18-1.1.32-1.66.47-.19.05-.47.14-.59-.13-.04-.09-.05-.23,0-.28.66-.57,1.5-.67,2.22-1.14.73-.48.97-1.39,1.73-1.88.12-.08.37-.11.42.13.13.55-.04.97-.45,1.35Z"/>
        <path class="cls-19" d="M255.89,389.19c-.29.07-.61.08-.9,0-.54-.15-.86-.67-1.38-.87-.29-.11-.74.18-.85-.18-.1-.32-.18-.64-.38-.87-.61-.67-2.21-.28-1.95-1.54.78-.05,1.43.11,2.15.38.88.32,1.94-.21,2.84.27.17.09.31.37.28.56-.09.77.54,1.25.47,1.98-.01.11-.16.25-.28.28Z"/>
        <g>
          <path class="cls-19" d="M264.8,381.39c-4.11-13.76-27.82-23.97-55.21-23.97s-50.99,10.29-55.22,23.97h-.76c4.39-14.19,27.98-24.69,55.98-24.69s51.7,10.4,55.97,24.69h-.76Z"/>
          <path class="cls-19" d="M209.59,414.97c-26.53,0-49.27-9.38-55.22-22.64h.8c5.74,12.81,28.58,21.93,54.42,21.93s48.57-8.95,54.44-21.93h.78c-5.99,13.23-28.75,22.64-55.22,22.64Z"/>
        </g>
        <path class="cls-19" d="M209.55,415.22c-22.1,0-40.08-13.16-40.08-29.35s17.98-29.34,40.08-29.34,40.08,13.16,40.08,29.34-17.98,29.35-40.08,29.35ZM209.55,357.24c-21.71,0-39.37,12.84-39.37,28.63s17.66,28.63,39.37,28.63,39.37-12.84,39.37-28.63-17.66-28.63-39.37-28.63Z"/>
        <path class="cls-19" d="M209.74,415c-15.35,0-27.84-13.12-27.84-29.24s12.49-29.24,27.84-29.24,27.84,13.12,27.84,29.24-12.49,29.24-27.84,29.24ZM209.74,357.24c-14.96,0-27.13,12.8-27.13,28.52s12.17,28.52,27.13,28.52,27.13-12.79,27.13-28.52-12.17-28.52-27.13-28.52Z"/>
        <path class="cls-19" d="M209.81,415c-7.83,0-14.21-13.12-14.21-29.24s6.37-29.24,14.21-29.24,14.21,13.12,14.21,29.24-6.37,29.24-14.21,29.24ZM209.81,357.24c-7.44,0-13.49,12.8-13.49,28.52s6.05,28.52,13.49,28.52,13.49-12.79,13.49-28.52-6.05-28.52-13.49-28.52Z"/>
        <rect class="cls-19" x="209.38" y="356.99" width=".71" height="57.85"/>
        <rect class="cls-19" x="155.04" y="385.48" width="109.29" height=".71"/>
        <rect class="cls-19" x="158.08" y="373.94" width="103.09" height=".71"/>
        <rect class="cls-19" x="158.15" y="397.17" width="102.87" height=".71"/>
        <rect class="cls-19" x="172.39" y="407.04" width="74.44" height=".71"/>
        <rect class="cls-19" x="172.16" y="364.07" width="74.93" height=".71"/>
        <path class="cls-19" d="M140.72,387.04l.76-.05c0,.07.04.14.04.21.44,2.29,1.9,4.14,4.39,4.14.77,0,1.48-.12,2.08-.63.51-.42.86-1,.86-1.67,0-.53-.19-1.25-.56-1.64-.37-.41-.81-.56-1.34-.7l-1.78-.46c-1.11-.28-2.1-.46-3.03-1.16-.81-.6-1.14-1.53-1.14-2.52,0-2.36,1.59-3.66,3.86-3.66,1.27,0,2.29.37,3.24,1.23l.7-1.11h.63l.21,4.6h-.76c-.46-1.99-1.73-3.93-3.98-3.93-.67,0-1.34.12-1.87.56-.44.37-.72.95-.72,1.53,0,1.29.99,1.83,2.08,2.11l2.87.76c.95.25,1.6.53,2.22,1.34.55.7.74,1.5.74,2.38,0,1.14-.49,2.22-1.41,2.92-.77.62-1.94.85-2.91.85-.51,0-1.62-.18-2.08-.37-.55-.25-1.13-.58-1.57-.99l-.77,1.22h-.65l-.11-4.95Z"/>
        <path class="cls-20" d="M264.03,392.32s.97-1.64,1.39-4.81c.42-3.17-.62-6.12-.62-6.12h-110.43s-.9,2.43-.63,5.49c.3,3.46,1.44,5.44,1.44,5.44h108.87Z"/>
        <path class="cls-19" d="M216.94,382.51h4.21v.57c-.27,0-.54,0-.8.01-.17,0-.34.01-.48.11-.06.04-.09.13-.11.19-.04.13-.04.28-.04.41v6.48c0,.27-.01.68.29.79.36.06.74.06,1.11.06.64,0,1.34-.03,1.9-.36.55-.33.74-.93.93-1.49.11-.34.2-.71.25-1.07l.54.03-.27,3.47h-7.53v-.57c.31-.01.6-.01.91-.04.47-.03.47-.34.47-.73v-6.79c0-.11-.01-.23-.09-.32-.04-.06-.11-.09-.17-.13-.37-.06-.75-.06-1.12-.06v-.57Z"/>
        <path class="cls-19" d="M228.92,383.08h-.41c-.19,0-.74-.05-.82.11-.06.08-.04.22,0,.31.03.1.09.19.14.28l2.14,3.43,1.51-2.68c.09-.17.18-.33.26-.51.05-.19.08-.41.01-.6-.05-.06-.1-.14-.18-.19-.34-.14-.71-.14-1.07-.15v-.57h3.6v.57c-.97.04-1.31.41-1.76,1.22l-2.03,3.62v2.42c0,.68.04.77.77.79h.71v.57h-4.38v-.57h.38c.32-.03.99.05,1.1-.32.03-.2.03-.42.03-.62v-2.16l-2.56-4.07c-.14-.23-.41-.7-.68-.8-.19-.08-.33-.09-.54-.09h-.31v-.57h4.08v.57Z"/>
        <path class="cls-19" d="M234.26,391.72v-.57c.4-.03,1.05-.1,1.24-.51.22-.46.24-.96.24-1.45v-5.5c-.03-.28-.04-.41-.29-.56-.15-.04-.31-.04-.46-.04h-.7v-.57h3.28l2.49,6.9,2.36-6.9h3.21v.57c-.37.03-.75,0-1.12.06-.13.05-.18.09-.23.23-.08.27-.06.57-.06.85v6.37c0,.28.04.42.34.47.34.08.7.08,1.05.08v.57h-4.2v-.57c.2,0,.42,0,.62-.03.65-.04.79-.08.79-.74v-7.19h-.01l-2.9,8.53h-.47l-3.07-8.56h-.01v6.19c0,1.17.13,1.76,1.49,1.8v.57h-3.58Z"/>
        <path class="cls-19" d="M246.38,391.72v-.57h.41c.32,0,.91.04.97-.37.01-.13.03-.26.04-.38v-6.61c0-.13.01-.26-.03-.37-.18-.45-1.01-.28-1.39-.33v-.57h4.64c.52.03,1.05.06,1.54.22,1.1.32,1.73,1.2,1.73,2.33,0,.68-.24,1.26-.73,1.75-.45.46-1,.64-1.61.75-.24.04-.5.05-.75.06-.2,0-.42.01-.63.01-.47,0-.93-.03-1.4-.03v2.54c0,.24,0,.61.11.82.04.06.13.09.19.13.26.05.52.04.78.05h.41v.57h-4.3ZM249.18,387.04c.41.01.82.03,1.22.03,1.47,0,2.36-.38,2.36-2.02,0-1.25-.55-1.89-1.81-1.94-.28-.03-.57-.03-.85-.03-.2,0-.42,0-.61.06-.05.01-.1.03-.15.05-.15.1-.14.31-.15.47v3.37Z"/>
        <path class="cls-19" d="M255.01,391.72v-.57c.27-.01.85.01,1.08-.08.33-.13.33-.32.33-.64v-6.66c0-.23.01-.36-.14-.54-.36-.24-.85-.1-1.26-.15v-.57h4.21v.57c-.34,0-.69,0-1.03.04-.19.05-.27.11-.36.29-.03.14-.03.28-.03.42v6.63c0,.11-.01.22.01.32.04.06.06.14.13.19.34.26.84.11,1.25.17v.57h-4.2Z"/>
        <path class="cls-19" d="M264.03,382.32h.5l3.38,8.27c.26.6.55.54,1.14.56v.57h-3.92v-.57c.36-.01.73,0,1.07-.08.13-.01.27-.14.27-.28,0-.05-.03-.14-.05-.22l-.75-1.85h-3.44c-.14.34-.27.68-.38,1.03-.09.26-.15.41-.15.66,0,.7.79.71,1.3.73v.57h-3.37v-.57c.69-.01,1.08-.37,1.33-1l3.09-7.83ZM265.42,388.07l-1.51-3.75-1.45,3.75h2.96Z"/>
        <path class="cls-19" d="M269.32,382.51h4.21c1.95,0,3.38.37,4.25,2.27.37.82.48,1.57.48,2.45,0,1.63-.75,3.46-2.35,4.11-.92.37-1.51.38-2.49.38h-4.13v-.57h.41c.23-.01.47-.01.7-.03.08-.01.13-.05.19-.09.18-.27.13-.64.13-.94v-5.82c0-.33.06-.74-.13-1.03-.17-.11-.22-.1-.4-.11l-.88-.04v-.57ZM272.12,390.62c0,.28.03.38.28.47.2.08.8.05,1.05.05.37,0,.84,0,1.2-.08.68-.13,1.03-.43,1.39-1.01.54-.85.59-2.04.59-3.02,0-.45-.03-.87-.09-1.3-.15-1.05-.42-1.88-1.44-2.33-.56-.27-1.17-.32-1.8-.32-.2,0-.8,0-.96.06-.15.06-.18.18-.2.32-.03.09-.01.32-.01.42v6.74Z"/>
        <path class="cls-19" d="M157.82,382.39h.47l.18,3.69-.55.03c-.11-.4-.22-.79-.37-1.17-.26-.62-.43-1.03-.96-1.47-.46-.38-.99-.57-1.59-.57-1.01,0-1.81.61-2.18,1.53-.4.98-.45,1.88-.45,2.92,0,1.93.47,3.99,2.82,3.99,1.76,0,2.63-1.24,2.88-2.86l.59.1c-.29,2.07-1.53,3.33-3.66,3.33-2.56,0-4.29-2.12-4.29-4.58,0-1.26.31-2.44,1.12-3.41.82-1,1.84-1.61,3.15-1.61.84,0,1.71.28,2.31.88l.52-.8Z"/>
        <path class="cls-19" d="M159.84,391.72v-.57c.27-.01.85.01,1.08-.08.33-.13.33-.32.33-.64v-6.66c0-.23.01-.36-.14-.54-.36-.24-.85-.1-1.26-.15v-.57h4.21v.57c-.34,0-.69,0-1.03.04-.19.05-.27.11-.36.29-.03.14-.03.28-.03.42v6.63c0,.11-.01.22.01.32.04.06.06.14.13.19.34.26.84.11,1.25.17v.57h-4.2Z"/>
        <path class="cls-19" d="M164.94,382.51h7.68l.18,3.27h-.54c-.42-2.44-1.02-2.69-3.34-2.69h-.26c-.65,0-.94,0-.94.5v3.07h.46c1.11,0,1.62-.48,1.7-1.75h.57v4.2h-.57c0-1.14-.46-1.86-1.45-1.86h-.7v3.42c0,.15.03.18.13.32.18.11.38.1.59.11.27.05.54.05.82.05.34,0,.69,0,1.05-.06,1.38-.13,1.77-1.05,2.07-2.26.04-.15.06-.31.11-.51h.52l-.24,3.41h-7.84v-.57h.38c.34-.03.92.03,1.01-.41.03-.18.03-.37.03-.55v-6.17c0-.18,0-.37-.01-.55-.04-.26-.18-.32-.42-.34-.32-.04-.64-.04-.96-.04v-.57Z"/>
        <path class="cls-19" d="M174,391.72v-.57c.29-.04.59-.06.87-.17.65-.24.65-1.26.65-1.84v-5.64c-.23-.31-.52-.4-.89-.41-.2-.01-.42-.01-.62-.01v-.57h2.67l5.06,6.88h.03v-4.83c-.04-1.08-.36-1.39-1.45-1.47v-.57h3.58v.57c-1.24.08-1.43.48-1.48,1.63v7.19h-.5l-5.71-7.81h-.03v5.28c0,.51-.03,1.01.33,1.43.15.13.33.2.52.26.22.05.45.06.66.08v.57h-3.69Z"/>
        <path class="cls-19" d="M191.83,382.39h.47l.18,3.69-.55.03c-.11-.4-.22-.79-.37-1.17-.26-.62-.43-1.03-.96-1.47-.46-.38-.99-.57-1.59-.57-1.01,0-1.81.61-2.18,1.53-.4.98-.45,1.88-.45,2.92,0,1.93.47,3.99,2.82,3.99,1.76,0,2.63-1.24,2.88-2.86l.59.1c-.29,2.07-1.53,3.33-3.66,3.33-2.56,0-4.29-2.12-4.29-4.58,0-1.26.31-2.44,1.12-3.41.82-1,1.84-1.61,3.15-1.61.84,0,1.71.28,2.31.88l.52-.8Z"/>
        <path class="cls-19" d="M193.75,382.51h7.68l.18,3.27h-.54c-.42-2.44-1.02-2.69-3.34-2.69h-.26c-.65,0-.94,0-.94.5v3.07h.46c1.11,0,1.62-.48,1.7-1.75h.57v4.2h-.57c0-1.14-.46-1.86-1.45-1.86h-.7v3.42c0,.15.03.18.13.32.18.11.38.1.59.11.27.05.54.05.82.05.34,0,.69,0,1.05-.06,1.38-.13,1.77-1.05,2.07-2.26.04-.15.06-.31.11-.51h.52l-.24,3.41h-7.84v-.57h.38c.34-.03.92.03,1.01-.41.03-.18.03-.37.03-.55v-6.17c0-.18,0-.37-.01-.55-.04-.26-.18-.32-.42-.34-.32-.04-.64-.04-.96-.04v-.57Z"/>
        <path class="cls-20" d="M209.95,392.86c3.95,0,7.15-3.3,7.15-7.37s-3.2-7.37-7.15-7.37-7.15,3.3-7.15,7.37,3.2,7.37,7.15,7.37Z"/>
        <path class="cls-19" d="M209.85,392.13c-3.66,0-6.08-3.22-6.08-6.62,0-2.62,1.95-6.62,6.04-6.62,3.66,0,6.08,3.22,6.08,6.62,0,2.62-1.95,6.62-6.04,6.62ZM209.82,379.68c-3.19,0-3.79,3.28-3.79,5.83,0,1.78.19,5.83,3.82,5.83,3.19,0,3.79-3.28,3.79-5.83,0-1.78-.19-5.83-3.82-5.83Z"/>
      </g>
    </g>
  </g>
  <g id="text">
    <g class="cls-11">
      <path class="cls-14" d="M33.69,208.72h-16.41v-6.81c0-.35.04-.72.11-1.11s.18-.78.33-1.17.34-.75.58-1.1c.24-.35.52-.66.86-.93.34-.27.72-.48,1.17-.64.44-.16.94-.24,1.5-.24h7.3c.44,0,.77-.12.98-.38s.32-.62.32-1.1v-1.63c0-.5-.11-.88-.32-1.13-.22-.25-.53-.38-.95-.38h-10.41v-3.68h10.41c.55,0,1.04.08,1.48.24.44.16.83.38,1.17.64.34.27.62.58.87.93.24.35.44.71.59,1.1.15.38.27.77.34,1.16s.11.76.11,1.1v1.66c0,.95-.15,1.76-.45,2.41-.3.66-.68,1.19-1.14,1.6-.46.41-.95.71-1.48.89-.53.18-1.02.28-1.48.28h-7.33c-.27,0-.48.04-.64.13-.16.08-.28.2-.37.34-.09.14-.15.3-.19.48-.04.18-.07.36-.1.54v3.13h13.17v3.68Z"/>
      <path class="cls-14" d="M57.11,200.22c0,.83-.09,1.62-.28,2.36s-.45,1.43-.79,2.06c-.34.63-.74,1.2-1.21,1.7-.47.5-.97.93-1.53,1.28-.55.35-1.14.63-1.76.81s-1.26.28-1.91.28h-5.84c-.66,0-1.3-.09-1.92-.28s-1.21-.46-1.76-.81c-.55-.35-1.06-.78-1.53-1.28-.47-.5-.87-1.07-1.2-1.7-.34-.63-.6-1.32-.79-2.06-.19-.74-.28-1.53-.28-2.36v-3.31c0-1.25.21-2.39.62-3.43s.96-1.93,1.65-2.68c.69-.75,1.48-1.34,2.39-1.76s1.84-.63,2.82-.63h5.84c.65,0,1.28.09,1.91.28s1.21.46,1.76.81c.55.35,1.06.78,1.53,1.28.46.5.87,1.07,1.21,1.7.34.63.6,1.32.79,2.06s.28,1.53.28,2.36v3.31ZM53.85,196.91c0-.73-.12-1.39-.35-1.98-.23-.59-.54-1.1-.93-1.53s-.83-.75-1.34-.98-1.04-.33-1.59-.33h-5.84c-.54,0-1.07.1-1.58.32-.51.22-.96.54-1.36.96s-.71.93-.95,1.53c-.24.6-.36,1.27-.36,2v3.31c0,.74.12,1.4.35,2,.23.6.54,1.1.93,1.52.39.42.84.74,1.35.97s1.04.34,1.6.33h5.84c.64,0,1.22-.12,1.74-.36.52-.24.96-.57,1.33-1s.65-.93.85-1.52.3-1.23.3-1.93v-3.31ZM52.44,194.22c.12.21.21.43.25.67.04.24.04.48,0,.71-.04.23-.12.45-.24.65-.12.2-.28.38-.47.52l-8.75,6.64c-.14.12-.29.21-.44.26-.15.05-.3.07-.46.07-.27,0-.52-.07-.76-.21-.24-.14-.44-.34-.58-.61-.12-.21-.21-.43-.25-.67-.04-.24-.04-.48,0-.71s.11-.45.23-.65.27-.38.46-.52l8.77-6.64c.18-.14.38-.24.59-.28.21-.05.42-.05.62,0,.2.05.39.14.57.27s.33.3.46.51Z"/>
      <path class="cls-14" d="M76.05,208.72h-16.41v-6.81c0-.35.04-.72.11-1.11s.18-.78.33-1.17.34-.75.58-1.1c.24-.35.52-.66.86-.93.34-.27.72-.48,1.17-.64.44-.16.94-.24,1.5-.24h7.3c.44,0,.77-.12.98-.38s.32-.62.32-1.1v-1.63c0-.5-.11-.88-.32-1.13-.22-.25-.53-.38-.95-.38h-10.41v-3.68h10.41c.55,0,1.04.08,1.48.24.44.16.83.38,1.17.64.34.27.62.58.87.93.24.35.44.71.59,1.1.15.38.27.77.34,1.16s.11.76.11,1.1v1.66c0,.95-.15,1.76-.45,2.41-.3.66-.68,1.19-1.14,1.6-.46.41-.95.71-1.48.89-.53.18-1.02.28-1.48.28h-7.33c-.27,0-.48.04-.64.13-.16.08-.28.2-.37.34-.09.14-.15.3-.19.48-.04.18-.07.36-.1.54v3.13h13.17v3.68Z"/>
      <path class="cls-14" d="M81.98,196.71h8.62c.46,0,.95.09,1.48.28.53.18,1.02.48,1.48.89.46.41.84.95,1.14,1.61.3.66.46,1.47.46,2.42v1.64c0,.35-.04.72-.11,1.1-.07.39-.18.77-.34,1.15-.15.38-.35.75-.59,1.1-.24.35-.52.66-.86.93-.34.27-.72.48-1.17.64-.44.16-.94.24-1.5.24h-5.87c-.4,0-.82-.05-1.28-.16-.45-.1-.9-.27-1.34-.5-.44-.23-.87-.52-1.28-.88-.41-.35-.77-.78-1.08-1.29s-.55-1.09-.74-1.75c-.19-.66-.28-1.41-.28-2.24v-6.67c0-.83.09-1.58.28-2.24.19-.66.43-1.24.74-1.75s.67-.94,1.08-1.29c.41-.36.84-.65,1.28-.89.44-.23.89-.4,1.34-.5.45-.1.88-.16,1.28-.16h8.12v3.68h-8.12c-.42.04-.79.14-1.13.3-.34.16-.63.37-.87.64-.24.26-.43.58-.56.96s-.2.79-.2,1.25v1.47ZM81.98,200.42v1.49c0,.48.07.91.22,1.29.14.38.34.71.59.98s.54.48.88.63c.34.15.7.22,1.09.22h5.84c.42,0,.73-.14.95-.42.22-.28.33-.64.33-1.06v-1.64c0-.48-.11-.85-.32-1.11-.22-.25-.54-.38-.98-.38h-8.6Z"/>
      <path class="cls-14" d="M124.25,207.14c0,.26-.04.51-.13.74s-.2.42-.35.59c-.15.17-.32.29-.52.39s-.41.14-.64.14c-.2,0-.4-.04-.6-.13-.2-.09-.38-.22-.54-.41l-11.84-14.05v14.3h-3.24v-18.73c0-.38.09-.72.28-1.03.19-.31.43-.54.72-.69.31-.14.62-.18.95-.11.32.07.6.24.83.52l11.84,14.03v-14.3h3.24v18.73Z"/>
      <path class="cls-14" d="M141.45,203.65c0,.51-.08,1.06-.24,1.65-.16.59-.41,1.14-.77,1.64-.35.5-.81.93-1.38,1.27-.57.34-1.26.51-2.07.51h-5.84c-.45,0-.93-.09-1.45-.27-.52-.18-1-.47-1.45-.87-.45-.4-.82-.93-1.12-1.57-.3-.65-.45-1.43-.45-2.36,0-.51.08-1.06.24-1.66.16-.59.41-1.14.77-1.65.35-.5.81-.93,1.38-1.27.57-.34,1.26-.51,2.07-.51h5.84v3.51h-5.84c-.44,0-.78.15-1.02.46s-.36.69-.36,1.14c0,.48.14.86.42,1.13.28.27.61.4.99.4h5.82c.44,0,.78-.15,1.02-.45s.36-.68.36-1.13v-5.14c0-.48-.13-.86-.39-1.15s-.59-.42-.99-.42h-7.12v-3.5h7.12c.45,0,.93.09,1.45.27.52.18,1,.47,1.45.87.44.4.82.92,1.12,1.57.3.65.45,1.43.45,2.36v5.17Z"/>
      <path class="cls-14" d="M156.62,197.09h-5.66v11.62h-3.28v-11.62h-4.21v-3.68h4.21v-5h3.28v5h5.66v3.68Z"/>
      <path class="cls-14" d="M162.07,190.27h-3.24v-3.33h3.24v3.33ZM162.07,208.72h-3.24v-15.31h3.24v15.31Z"/>
      <path class="cls-14" d="M179.7,203.55c0,.63-.07,1.2-.21,1.71-.14.5-.33.95-.56,1.33-.23.38-.5.71-.81.98-.31.27-.63.49-.97.66-.34.17-.68.3-1.02.38s-.67.12-.98.12h-5.84c-.45,0-.94-.09-1.47-.27-.53-.18-1.02-.47-1.48-.88-.45-.41-.83-.94-1.13-1.6-.3-.66-.46-1.46-.46-2.41v-4.98c0-.94.15-1.74.46-2.4.3-.66.68-1.19,1.13-1.6.45-.41.94-.71,1.48-.88.53-.18,1.02-.27,1.47-.27h5.84c.83,0,1.54.17,2.12.51.58.34,1.05.77,1.41,1.28s.62,1.07.78,1.68.24,1.17.24,1.69v4.98ZM176.46,198.59c0-.51-.11-.89-.34-1.13-.22-.25-.55-.37-.97-.37h-5.82c-.43,0-.76.12-.98.38s-.34.62-.34,1.1v4.98c0,.48.11.85.34,1.1.22.26.55.38.98.38h5.82c.44,0,.77-.13.98-.38.22-.25.32-.62.32-1.1v-4.96Z"/>
      <path class="cls-14" d="M197.25,208.72h-3.24v-8.5c0-.48-.07-.91-.22-1.3-.15-.38-.34-.71-.59-.98-.25-.27-.54-.48-.88-.63-.34-.15-.7-.22-1.09-.22h-5.67v11.62h-3.24v-13.48c0-.25.04-.49.12-.71s.2-.42.35-.58c.15-.17.32-.29.52-.39.2-.09.41-.14.63-.14h7.3c.41,0,.84.05,1.29.16.45.1.9.27,1.35.5s.87.52,1.27.88c.4.35.76.78,1.07,1.29s.56,1.09.74,1.75.27,1.41.27,2.24v8.5Z"/>
      <path class="cls-14" d="M214.14,203.65c0,.51-.08,1.06-.24,1.65-.16.59-.41,1.14-.77,1.64-.35.5-.81.93-1.38,1.27-.57.34-1.26.51-2.07.51h-5.84c-.45,0-.93-.09-1.45-.27-.52-.18-1-.47-1.45-.87-.45-.4-.82-.93-1.12-1.57-.3-.65-.45-1.43-.45-2.36,0-.51.08-1.06.24-1.66.16-.59.41-1.14.77-1.65.35-.5.81-.93,1.38-1.27.57-.34,1.26-.51,2.07-.51h5.84v3.51h-5.84c-.44,0-.78.15-1.02.46s-.36.69-.36,1.14c0,.48.14.86.42,1.13.28.27.61.4.99.4h5.82c.44,0,.78-.15,1.02-.45s.36-.68.36-1.13v-5.14c0-.48-.13-.86-.39-1.15s-.59-.42-.99-.42h-7.12v-3.5h7.12c.45,0,.93.09,1.45.27.52.18,1,.47,1.45.87.44.4.82.92,1.12,1.57.3.65.45,1.43.45,2.36v5.17Z"/>
      <path class="cls-14" d="M222.67,208.72h-1.45c-.47,0-.96-.09-1.49-.27-.53-.18-1.02-.47-1.48-.88-.46-.41-.83-.94-1.13-1.6-.3-.66-.45-1.46-.45-2.41v-16.61h3.24v16.61c0,.45.12.81.37,1.08.25.27.56.4.93.4h1.45v3.68Z"/>
      <path class="cls-14" d="M249.56,192.09h-7.14v16.62h-3.24v-16.62h-7.15v-3.68h17.53v3.68Z"/>
      <path class="cls-14" d="M263,203.55c0,.63-.07,1.2-.21,1.71-.14.5-.33.95-.56,1.33-.23.38-.5.71-.81.98-.31.27-.63.49-.97.66-.34.17-.68.3-1.02.38s-.67.12-.98.12h-5.84c-.45,0-.94-.09-1.47-.27-.53-.18-1.02-.47-1.48-.88-.45-.41-.83-.94-1.13-1.6-.3-.66-.46-1.46-.46-2.41v-4.98c0-.94.15-1.74.46-2.4.3-.66.68-1.19,1.13-1.6.45-.41.94-.71,1.48-.88.53-.18,1.02-.27,1.47-.27h5.84c.83,0,1.54.17,2.12.51.58.34,1.05.77,1.41,1.28s.62,1.07.78,1.68.24,1.17.24,1.69v4.98ZM259.76,198.59c0-.51-.11-.89-.34-1.13-.22-.25-.55-.37-.97-.37h-5.82c-.43,0-.76.12-.98.38s-.34.62-.34,1.1v4.98c0,.48.11.85.34,1.1.22.26.55.38.98.38h5.82c.44,0,.77-.13.98-.38.22-.25.32-.62.32-1.1v-4.96Z"/>
      <path class="cls-14" d="M280.32,206.86c0,.26-.04.51-.12.74s-.2.42-.34.59c-.15.17-.32.29-.51.39s-.4.14-.63.14h-7.33c-.4,0-.82-.05-1.28-.16-.45-.1-.9-.27-1.34-.5-.44-.23-.87-.52-1.28-.88-.41-.35-.77-.78-1.08-1.29-.31-.5-.55-1.09-.74-1.75-.19-.66-.28-1.41-.28-2.24v-8.5h3.24v8.5c0,.48.07.91.22,1.29.15.38.34.71.59.98.25.27.54.48.88.63.34.15.7.22,1.09.22h5.67v-11.62h3.24v13.45Z"/>
      <path class="cls-14" d="M294.99,197.09h-7.29c-.44,0-.77.12-1,.38-.22.25-.34.62-.34,1.1v10.15h-3.24v-10.15c0-.63.07-1.2.21-1.7.14-.5.33-.94.57-1.32.24-.38.51-.71.82-.98.31-.27.63-.49.97-.66.34-.17.68-.29,1.02-.38.34-.08.67-.12.97-.12h7.31v3.68Z"/>
      <path class="cls-14" d="M312.11,208.72h-3.24v-8.5c0-.48-.07-.91-.22-1.3-.15-.38-.34-.71-.59-.98-.25-.27-.54-.48-.88-.63-.34-.15-.7-.22-1.09-.22h-5.67v11.62h-3.24v-13.48c0-.25.04-.49.12-.71s.2-.42.35-.58c.15-.17.32-.29.52-.39.2-.09.41-.14.63-.14h7.3c.41,0,.84.05,1.29.16.45.1.9.27,1.35.5s.87.52,1.27.88c.4.35.76.78,1.07,1.29s.56,1.09.74,1.75.27,1.41.27,2.24v8.5Z"/>
      <path class="cls-14" d="M329,203.65c0,.51-.08,1.06-.24,1.65-.16.59-.41,1.14-.77,1.64-.35.5-.81.93-1.38,1.27-.57.34-1.26.51-2.07.51h-5.84c-.45,0-.93-.09-1.45-.27-.52-.18-1-.47-1.45-.87-.45-.4-.82-.93-1.12-1.57-.3-.65-.45-1.43-.45-2.36,0-.51.08-1.06.24-1.66.16-.59.41-1.14.77-1.65.35-.5.81-.93,1.38-1.27.57-.34,1.26-.51,2.07-.51h5.84v3.51h-5.84c-.44,0-.78.15-1.02.46s-.36.69-.36,1.14c0,.48.14.86.42,1.13.28.27.61.4.99.4h5.82c.44,0,.78-.15,1.02-.45s.36-.68.36-1.13v-5.14c0-.48-.13-.86-.39-1.15s-.59-.42-.99-.42h-7.12v-3.5h7.12c.45,0,.93.09,1.45.27.52.18,1,.47,1.45.87.44.4.82.92,1.12,1.57.3.65.45,1.43.45,2.36v5.17Z"/>
      <path class="cls-14" d="M343.66,208.72h-3.24v-10.15c0-.48-.11-.85-.34-1.1s-.56-.38-1-.38h-4.21v11.62h-3.24v-13.48c0-.25.04-.49.12-.71s.2-.42.35-.58c.15-.17.32-.29.52-.39.2-.09.41-.14.63-.14h5.84c.45,0,.93.09,1.45.27.51.18,1,.47,1.47.86v-1.13h4.39c.31,0,.63.04.97.12s.68.21,1.02.38c.34.17.66.39.97.66.31.27.58.59.81.98.23.38.42.82.56,1.32.14.5.21,1.07.21,1.7v10.15h-3.24v-10.15c0-.48-.11-.85-.32-1.1s-.54-.38-.98-.38h-2.92c.11.45.16.94.16,1.47v10.15Z"/>
      <path class="cls-14" d="M368.29,198.48c0,.51-.08,1.06-.24,1.65s-.41,1.14-.77,1.64c-.35.5-.81.93-1.38,1.27s-1.26.51-2.07.51h-5.84v-3.5h5.84c.44,0,.78-.15,1.02-.46.24-.31.36-.69.36-1.14,0-.48-.13-.86-.41-1.13-.27-.27-.6-.41-.98-.41h-5.84c-.44,0-.78.15-1.02.46-.24.31-.36.69-.36,1.14v5.14c0,.49.13.87.4,1.15.27.27.6.41,1,.41h5.82v3.51h-5.84c-.45,0-.93-.09-1.45-.27-.52-.18-1-.47-1.45-.87s-.82-.93-1.12-1.57c-.3-.65-.45-1.43-.45-2.36v-5.17c0-.51.08-1.06.24-1.65.16-.59.41-1.14.77-1.64.35-.5.81-.93,1.38-1.27.57-.34,1.26-.51,2.07-.51h5.84c.45,0,.93.09,1.45.27s1,.47,1.45.87.82.92,1.12,1.57c.3.65.45,1.43.45,2.36Z"/>
      <path class="cls-14" d="M385.43,208.72h-3.24v-8.5c0-.48-.07-.91-.22-1.3-.15-.38-.34-.71-.59-.98-.25-.27-.54-.48-.88-.63-.34-.15-.7-.22-1.09-.22h-5.67v11.62h-3.24v-13.48c0-.25.04-.49.12-.71s.2-.42.35-.58c.15-.17.32-.29.52-.39.2-.09.41-.14.63-.14h7.3c.41,0,.84.05,1.29.16.45.1.9.27,1.35.5s.87.52,1.27.88c.4.35.76.78,1.07,1.29s.56,1.09.74,1.75.27,1.41.27,2.24v8.5Z"/>
      <path class="cls-14" d="M400.44,197.09h-5.66v11.62h-3.28v-11.62h-4.21v-3.68h4.21v-5h3.28v5h5.66v3.68Z"/>
    </g>
    <g class="cls-12">
      <path class="cls-21" d="M29.59,233.11c0,.35-.05.73-.16,1.14-.1.41-.27.78-.5,1.13s-.54.64-.91.87c-.38.23-.83.35-1.37.35h-3.85c-.29,0-.61-.06-.96-.19s-.66-.32-.95-.6c-.29-.28-.54-.64-.73-1.08-.2-.45-.3-.99-.3-1.63,0-.35.05-.73.16-1.14.1-.41.27-.79.5-1.14s.54-.64.91-.87c.37-.23.83-.35,1.37-.35h3.85v2.42h-3.85c-.29,0-.51.11-.67.32-.16.21-.24.47-.24.79,0,.33.09.59.27.78.18.19.4.28.65.28h3.83c.29,0,.51-.1.67-.31.16-.21.24-.47.24-.78v-3.54c0-.33-.09-.6-.26-.79-.17-.2-.39-.29-.65-.29h-4.68v-2.41h4.68c.29,0,.61.06.96.19s.66.32.95.6.54.64.73,1.08c.2.45.29.99.29,1.63v3.56Z"/>
      <path class="cls-21" d="M39.63,228.59h-3.72v8.02h-2.16v-8.02h-2.77v-2.54h2.77v-3.45h2.16v3.45h3.72v2.54Z"/>
      <path class="cls-21" d="M54.56,228.59h-3.72v8.02h-2.16v-8.02h-2.77v-2.54h2.77v-3.45h2.16v3.45h3.72v2.54Z"/>
      <path class="cls-21" d="M58.19,236.61h-2.13v-15.02h2.13v15.02ZM65.89,236.61h-2.13v-7c0-.33-.07-.58-.21-.76-.14-.17-.36-.26-.64-.26h-3.85v-2.54h3.85c.2,0,.42.03.64.08.22.06.45.14.67.26s.43.27.64.45.38.41.53.67.28.57.37.91.14.74.14,1.17v7Z"/>
      <path class="cls-21" d="M77.35,229.55c0,.35-.05.73-.16,1.14-.1.41-.27.78-.5,1.13s-.54.64-.91.87c-.37.23-.83.35-1.37.35h-3.85v-2.41h3.85c.29,0,.51-.11.67-.32.16-.21.24-.47.24-.79,0-.33-.09-.59-.27-.78s-.39-.28-.64-.28h-3.85c-.29,0-.51.11-.67.32-.16.21-.24.47-.24.79v3.54c0,.34.09.6.27.79s.4.28.66.28h3.83v2.42h-3.85c-.29,0-.61-.06-.96-.19s-.66-.32-.95-.6c-.29-.28-.54-.64-.73-1.08-.2-.45-.29-.99-.29-1.63v-3.56c0-.35.05-.73.16-1.14.1-.41.27-.78.5-1.13s.54-.64.91-.87c.37-.23.83-.35,1.37-.35h3.85c.29,0,.61.06.96.19s.66.32.95.6c.29.28.54.64.73,1.08.2.45.29.99.29,1.63Z"/>
      <path class="cls-21" d="M96.01,235.33c0,.18-.03.35-.08.51s-.13.29-.23.41-.21.2-.34.27c-.13.07-.27.1-.42.1h-4.81c-.45,0-.91-.06-1.38-.18s-.91-.3-1.35-.54c-.44-.24-.84-.55-1.23-.93s-.72-.83-1-1.34-.51-1.11-.68-1.78-.25-1.41-.25-2.23v-7h2.13v7c0,.72.08,1.32.25,1.82s.38.91.64,1.24.54.59.84.78c.31.19.6.33.87.42s.52.15.73.17c.21.02.35.03.42.03h3.75v-11.46h2.13v12.72Z"/>
      <path class="cls-21" d="M108.03,236.61h-2.13v-5.86c0-.33-.05-.63-.14-.89s-.23-.49-.39-.68-.36-.33-.58-.43-.46-.15-.72-.15h-3.73v8.02h-2.13v-9.3c0-.18.03-.34.08-.49s.13-.29.23-.4.21-.2.34-.27c.13-.07.27-.1.42-.1h4.81c.27,0,.55.04.85.11s.59.19.89.35c.29.16.57.36.84.61s.5.54.71.89.37.75.49,1.21.18.97.18,1.54v5.86Z"/>
      <path class="cls-21" d="M112.04,223.88h-2.13v-2.29h2.13v2.29ZM112.04,236.61h-2.13v-10.56h2.13v10.56Z"/>
      <path class="cls-21" d="M124.59,226.05c-.24.89-.52,1.77-.84,2.64-.32.87-.69,1.69-1.11,2.48-.42.78-.89,1.51-1.4,2.18s-1.09,1.24-1.71,1.73c-.63.49-1.31.87-2.04,1.14s-1.53.42-2.39.42c-.15,0-.29-.03-.42-.1-.13-.07-.25-.15-.34-.27s-.17-.25-.23-.4c-.05-.15-.08-.32-.08-.49v-9.32h2.13v7.94c.52,0,1.02-.13,1.5-.4s.93-.62,1.36-1.06.82-.94,1.19-1.5c.36-.56.69-1.13.97-1.72s.53-1.17.73-1.73c.2-.57.35-1.07.45-1.52h2.26Z"/>
      <path class="cls-21" d="M135.01,229.55c0,.35-.05.73-.16,1.14-.1.41-.27.78-.5,1.13s-.54.64-.91.87c-.37.23-.83.35-1.37.35h-3.85v-2.41h3.85c.29,0,.51-.11.67-.32.16-.21.24-.47.24-.79,0-.33-.09-.59-.27-.78s-.39-.28-.64-.28h-3.85c-.29,0-.51.11-.67.32-.16.21-.24.47-.24.79v3.54c0,.34.09.6.27.79s.4.28.66.28h3.83v2.42h-3.85c-.29,0-.61-.06-.96-.19s-.66-.32-.95-.6c-.29-.28-.54-.64-.73-1.08-.2-.45-.29-.99-.29-1.63v-3.56c0-.35.05-.73.16-1.14.1-.41.27-.78.5-1.13s.54-.64.91-.87c.37-.23.83-.35,1.37-.35h3.85c.29,0,.61.06.96.19s.66.32.95.6c.29.28.54.64.73,1.08.2.45.29.99.29,1.63Z"/>
      <path class="cls-21" d="M144.31,228.59h-4.8c-.29,0-.51.09-.66.26s-.22.42-.22.76v7h-2.13v-7c0-.44.05-.83.14-1.17s.22-.65.37-.91c.16-.26.33-.49.54-.67.2-.19.41-.34.64-.45.22-.12.45-.2.67-.26.23-.06.44-.08.64-.08h4.82v2.54Z"/>
      <path class="cls-21" d="M154.51,233.04c0,.44-.05.83-.14,1.18-.09.35-.22.65-.37.92s-.33.49-.53.67-.41.34-.64.45-.45.2-.67.26c-.23.06-.44.08-.64.08h-5.78v-2.54h5.76c.29,0,.51-.09.66-.26s.22-.43.22-.76c-.03-.68-.31-1.02-.86-1.02h-3.31c-.47,0-.87-.1-1.2-.29s-.59-.44-.8-.73-.35-.61-.44-.95c-.09-.34-.14-.65-.14-.95,0-.57.08-1.04.25-1.43.17-.39.38-.7.64-.94.26-.24.54-.42.84-.52s.58-.16.85-.16h5.24v2.54h-5.23c-.11,0-.2.01-.26.04-.06.03-.11.07-.14.12s-.05.1-.05.16c0,.06,0,.11,0,.16,0,.1.02.19.05.24s.06.1.1.13.09.04.14.04.1,0,.15,0h3.31c.55,0,1.01.12,1.39.35s.69.53.93.88.41.74.51,1.16.16.8.16,1.16Z"/>
      <path class="cls-21" d="M158.19,223.88h-2.13v-2.29h2.13v2.29ZM158.19,236.61h-2.13v-10.56h2.13v10.56Z"/>
      <path class="cls-21" d="M168.36,228.59h-3.72v8.02h-2.16v-8.02h-2.77v-2.54h2.77v-3.45h2.16v3.45h3.72v2.54Z"/>
      <path class="cls-21" d="M176.67,236.61h-3.85c-.31,0-.63-.06-.98-.19-.35-.12-.67-.33-.97-.61s-.55-.65-.75-1.1c-.2-.45-.3-1.01-.3-1.67v-6.99h2.13v6.99c0,.33.07.59.22.76s.37.26.66.26h3.83v2.54ZM179.65,237.62c0,.44-.05.83-.14,1.18s-.22.65-.37.92-.33.49-.53.67-.41.34-.64.45-.44.2-.67.26c-.22.06-.44.08-.64.08h-3.85v-2.54h3.85c.28,0,.5-.09.64-.26.14-.18.21-.43.21-.76v-11.57h2.13v11.57Z"/>
      <path class="cls-21" d="M196.8,233.04c0,.44-.05.83-.14,1.18-.09.35-.22.65-.37.92-.15.26-.33.49-.53.67-.2.19-.41.34-.64.45-.22.12-.45.2-.67.26-.23.06-.44.08-.64.08h-3.85c-.3,0-.62-.06-.97-.19-.35-.12-.67-.33-.97-.61s-.55-.65-.75-1.1c-.2-.45-.3-1.01-.3-1.67v-3.44c0-.65.1-1.2.3-1.66.2-.45.45-.82.75-1.1s.62-.49.97-.61c.35-.12.67-.19.97-.19h3.85c.55,0,1.01.12,1.39.35s.69.53.93.88c.24.35.41.74.51,1.16.11.42.16.8.16,1.16v3.44ZM194.67,229.62c0-.35-.07-.61-.22-.78-.15-.17-.36-.25-.64-.25h-3.83c-.28,0-.5.09-.65.26s-.22.42-.22.76v3.44c0,.33.07.59.22.76s.36.26.65.26h3.83c.29,0,.51-.09.65-.26.14-.18.21-.43.21-.76v-3.42Z"/>
      <path class="cls-21" d="M206.42,224.01h-4.81c-.29,0-.51.09-.66.26s-.22.42-.22.76v11.58h-2.13v-11.58c0-.44.05-.83.14-1.17s.22-.65.37-.91c.16-.26.33-.49.54-.67.2-.19.41-.34.64-.45.22-.12.44-.2.67-.26.22-.06.44-.08.64-.08h4.82v2.54ZM206.42,228.59h-4.82v-2.54h4.82v2.54Z"/>
      <path class="cls-21" d="M224.82,232.49c0,.5-.05.95-.16,1.35s-.25.75-.42,1.06-.38.57-.62.78-.48.39-.73.53c-.25.14-.51.24-.77.3s-.5.1-.73.1h-8.23v-2.54h8.23c.41,0,.73-.14.96-.43s.34-.67.34-1.15c0-.23-.03-.45-.09-.64-.06-.2-.15-.36-.26-.51-.11-.14-.25-.25-.41-.33-.16-.08-.34-.12-.54-.12h-4.91c-.34,0-.72-.07-1.12-.22s-.77-.38-1.11-.71-.63-.75-.85-1.28-.34-1.17-.34-1.93.11-1.4.34-1.93.51-.95.85-1.28.71-.57,1.11-.71.77-.22,1.12-.22h7.26v2.54h-7.26c-.4,0-.72.15-.95.44s-.34.68-.34,1.16.11.87.34,1.16.54.42.95.42h4.92c.23,0,.47.04.73.11s.51.17.77.32c.25.14.5.32.73.54.23.22.43.48.61.79s.32.66.42,1.05.16.85.16,1.35Z"/>
      <path class="cls-21" d="M236.14,233.04c0,.44-.05.83-.14,1.18-.09.35-.22.65-.37.92-.15.26-.33.49-.53.67-.2.19-.41.34-.64.45-.22.12-.45.2-.67.26-.23.06-.44.08-.64.08h-3.85c-.3,0-.62-.06-.97-.19-.35-.12-.67-.33-.97-.61s-.55-.65-.75-1.1c-.2-.45-.3-1.01-.3-1.67v-3.44c0-.65.1-1.2.3-1.66.2-.45.45-.82.75-1.1s.62-.49.97-.61c.35-.12.67-.19.97-.19h3.85c.55,0,1.01.12,1.39.35s.69.53.93.88c.24.35.41.74.51,1.16.11.42.16.8.16,1.16v3.44ZM234.01,229.62c0-.35-.07-.61-.22-.78-.15-.17-.36-.25-.64-.25h-3.83c-.28,0-.5.09-.65.26s-.22.42-.22.76v3.44c0,.33.07.59.22.76s.36.26.65.26h3.83c.29,0,.51-.09.65-.26.14-.18.21-.43.21-.76v-3.42Z"/>
      <path class="cls-21" d="M247.59,235.33c0,.18-.03.35-.08.51s-.13.29-.23.41-.21.2-.34.27c-.13.07-.27.1-.41.1h-4.82c-.26,0-.54-.04-.84-.11s-.59-.19-.88-.35-.57-.36-.84-.61-.51-.54-.71-.89-.37-.75-.49-1.21-.18-.97-.18-1.54v-5.86h2.13v5.86c0,.33.05.63.14.89s.23.49.39.68.36.33.58.43c.22.1.46.15.72.15h3.73v-8.02h2.13v9.28Z"/>
      <path class="cls-21" d="M257.74,228.59h-3.72v8.02h-2.16v-8.02h-2.77v-2.54h2.77v-3.45h2.16v3.45h3.72v2.54Z"/>
      <path class="cls-21" d="M261.38,236.61h-2.13v-15.02h2.13v15.02ZM269.07,236.61h-2.13v-7c0-.33-.07-.58-.21-.76-.14-.17-.36-.26-.64-.26h-3.85v-2.54h3.85c.2,0,.42.03.64.08.22.06.45.14.67.26s.43.27.64.45.38.41.53.67.28.57.37.91.14.74.14,1.17v7Z"/>
      <path class="cls-21" d="M280.53,229.55c0,.35-.05.73-.16,1.14-.1.41-.27.78-.5,1.13s-.54.64-.91.87c-.37.23-.83.35-1.37.35h-3.85v-2.41h3.85c.29,0,.51-.11.67-.32.16-.21.24-.47.24-.79,0-.33-.09-.59-.27-.78s-.39-.28-.64-.28h-3.85c-.29,0-.51.11-.67.32-.16.21-.24.47-.24.79v3.54c0,.34.09.6.27.79s.4.28.66.28h3.83v2.42h-3.85c-.29,0-.61-.06-.96-.19s-.66-.32-.95-.6c-.29-.28-.54-.64-.73-1.08-.2-.45-.29-.99-.29-1.63v-3.56c0-.35.05-.73.16-1.14.1-.41.27-.78.5-1.13s.54-.64.91-.87c.37-.23.83-.35,1.37-.35h3.85c.29,0,.61.06.96.19s.66.32.95.6c.29.28.54.64.73,1.08.2.45.29.99.29,1.63Z"/>
      <path class="cls-21" d="M289.82,228.59h-4.8c-.29,0-.51.09-.66.26s-.22.42-.22.76v7h-2.13v-7c0-.44.05-.83.14-1.17s.22-.65.37-.91c.16-.26.33-.49.54-.67.2-.19.41-.34.64-.45.22-.12.45-.2.67-.26.23-.06.44-.08.64-.08h4.82v2.54Z"/>
      <path class="cls-21" d="M301.14,236.61h-2.13v-5.86c0-.33-.05-.63-.14-.89s-.23-.49-.39-.68-.36-.33-.58-.43-.46-.15-.72-.15h-3.73v8.02h-2.13v-9.3c0-.18.03-.34.08-.49s.13-.29.23-.4.21-.2.34-.27c.13-.07.27-.1.42-.1h4.81c.27,0,.55.04.85.11s.59.19.89.35c.29.16.57.36.84.61s.5.54.71.89.37.75.49,1.21.18.97.18,1.54v5.86Z"/>
      <path class="cls-21" d="M319.25,236.61h-7.69c-.2,0-.41-.03-.64-.08-.23-.06-.45-.14-.67-.26-.22-.12-.43-.27-.64-.45s-.38-.41-.54-.67c-.16-.26-.28-.57-.37-.92-.09-.35-.14-.74-.14-1.18v-6.88c0-.23.02-.49.07-.76.05-.27.12-.54.22-.8s.23-.52.39-.76c.16-.24.35-.45.57-.64.22-.19.48-.33.77-.44s.62-.17.98-.17h7.69v2.54h-7.69c-.28,0-.49.09-.64.26-.15.18-.22.44-.22.78v6.86c0,.33.08.58.23.76s.36.27.64.27h7.69v2.54Z"/>
      <path class="cls-21" d="M330.37,233.11c0,.35-.05.73-.16,1.14-.1.41-.27.78-.5,1.13s-.54.64-.91.87c-.38.23-.83.35-1.37.35h-3.85c-.29,0-.61-.06-.96-.19s-.66-.32-.95-.6c-.29-.28-.54-.64-.73-1.08-.2-.45-.3-.99-.3-1.63,0-.35.05-.73.16-1.14.1-.41.27-.79.5-1.14s.54-.64.91-.87c.37-.23.83-.35,1.37-.35h3.85v2.42h-3.85c-.29,0-.51.11-.67.32-.16.21-.24.47-.24.79,0,.33.09.59.27.78.18.19.4.28.65.28h3.83c.29,0,.51-.1.67-.31.16-.21.24-.47.24-.78v-3.54c0-.33-.09-.6-.26-.79-.17-.2-.39-.29-.65-.29h-4.68v-2.41h4.68c.29,0,.61.06.96.19s.66.32.95.6.54.64.73,1.08c.2.45.29.99.29,1.63v3.56Z"/>
      <path class="cls-21" d="M336.03,236.61h-.95c-.31,0-.63-.06-.98-.19-.35-.12-.67-.33-.97-.61s-.55-.65-.75-1.1c-.2-.45-.3-1.01-.3-1.67v-11.46h2.13v11.46c0,.31.08.56.25.75s.37.28.62.28h.95v2.54Z"/>
      <path class="cls-21" d="M339.65,223.88h-2.13v-2.29h2.13v2.29ZM339.65,236.61h-2.13v-10.56h2.13v10.56Z"/>
      <path class="cls-21" d="M349.45,224.01h-4.81c-.29,0-.51.09-.66.26s-.22.42-.22.76v11.58h-2.13v-11.58c0-.44.05-.83.14-1.17s.22-.65.37-.91c.16-.26.33-.49.54-.67.2-.19.41-.34.64-.45.22-.12.44-.2.67-.26.22-.06.44-.08.64-.08h4.82v2.54ZM349.45,228.59h-4.82v-2.54h4.82v2.54Z"/>
      <path class="cls-21" d="M360.64,233.04c0,.44-.05.83-.14,1.18-.09.35-.22.65-.37.92-.15.26-.33.49-.53.67-.2.19-.41.34-.64.45-.22.12-.45.2-.67.26-.23.06-.44.08-.64.08h-3.85c-.3,0-.62-.06-.97-.19-.35-.12-.67-.33-.97-.61s-.55-.65-.75-1.1c-.2-.45-.3-1.01-.3-1.67v-3.44c0-.65.1-1.2.3-1.66.2-.45.45-.82.75-1.1s.62-.49.97-.61c.35-.12.67-.19.97-.19h3.85c.55,0,1.01.12,1.39.35s.69.53.93.88c.24.35.41.74.51,1.16.11.42.16.8.16,1.16v3.44ZM358.51,229.62c0-.35-.07-.61-.22-.78-.15-.17-.36-.25-.64-.25h-3.83c-.28,0-.5.09-.65.26s-.22.42-.22.76v3.44c0,.33.07.59.22.76s.36.26.65.26h3.83c.29,0,.51-.09.65-.26.14-.18.21-.43.21-.76v-3.42Z"/>
      <path class="cls-21" d="M370.18,228.59h-4.8c-.29,0-.51.09-.66.26s-.22.42-.22.76v7h-2.13v-7c0-.44.05-.83.14-1.17s.22-.65.37-.91c.16-.26.33-.49.54-.67.2-.19.41-.34.64-.45.22-.12.45-.2.67-.26.23-.06.44-.08.64-.08h4.82v2.54Z"/>
      <path class="cls-21" d="M381.5,236.61h-2.13v-5.86c0-.33-.05-.63-.14-.89s-.23-.49-.39-.68-.36-.33-.58-.43-.46-.15-.72-.15h-3.73v8.02h-2.13v-9.3c0-.18.03-.34.08-.49s.13-.29.23-.4.21-.2.34-.27c.13-.07.27-.1.42-.1h4.81c.27,0,.55.04.85.11s.59.19.89.35c.29.16.57.36.84.61s.5.54.71.89.37.75.49,1.21.18.97.18,1.54v5.86Z"/>
      <path class="cls-21" d="M385.51,223.88h-2.13v-2.29h2.13v2.29ZM385.51,236.61h-2.13v-10.56h2.13v10.56Z"/>
      <path class="cls-21" d="M396.76,233.11c0,.35-.05.73-.16,1.14-.1.41-.27.78-.5,1.13s-.54.64-.91.87c-.38.23-.83.35-1.37.35h-3.85c-.29,0-.61-.06-.96-.19s-.66-.32-.95-.6c-.29-.28-.54-.64-.73-1.08-.2-.45-.3-.99-.3-1.63,0-.35.05-.73.16-1.14.1-.41.27-.79.5-1.14.23-.35.54-.64.91-.87.37-.23.83-.35,1.37-.35h3.85v2.42h-3.85c-.29,0-.51.11-.67.32-.16.21-.24.47-.24.79,0,.33.09.59.27.78.18.19.4.28.65.28h3.83c.29,0,.51-.1.67-.31.16-.21.24-.47.24-.78v-3.54c0-.33-.09-.6-.26-.79-.17-.2-.39-.29-.65-.29h-4.68v-2.41h4.68c.29,0,.61.06.96.19s.66.32.95.6.54.64.73,1.08c.2.45.29.99.29,1.63v3.56Z"/>
    </g>
  </g>
</svg>