<?xml version="1.0" encoding="UTF-8"?>
<svg id="Layer_2" xmlns="http://www.w3.org/2000/svg" version="1.1" viewBox="0 0 605 454.5">
  <!-- Generator: Adobe Illustrator 29.1.0, SVG Export Plug-In . SVG Version: 2.1.0 Build 142)  -->
  <defs>
    <style>
      .st0 {
        fill: #fff;
      }

      .st1 {
        opacity: .2;
      }
    </style>
  </defs>
  <g id="Layer_2-2" class="st1">
    <g id="LCyMuQ">
      <g>
        <path class="st0" d="M445,134.6c1.5.3,5.1,2.9,7,3.5-1.3,1.9-5.8-1.8-6-1.5-.5.6.3,13,0,15.6-.2,1.7-.9,2-1.1,2.4,0-3.6.7-15-.1-17.3-.5-1.3-2.6-1.7-3.9-2.6,1.1,0,3-.2,4,0h0Z"/>
        <path class="st0" d="M360,134.6c-.1-2.8,1.7-13.6,2.7-16.8,2.2-7.2,7.4-14.2,13.4-18.6,23.6-17.1,58.8-4.1,61.9,25.3h7c-1-5.4-2.2-11.1-2.9-16.6-.1-1.1-.9-3.6.9-3.4.9,8.5,3.3,16.8,3,25.4,0,1.4.7,4.1-1,4.5v-9h-7l4,2c.9,3.6-3.3,1.3-4,2-1.6,1.4,2,4.2,3,5-.8,0-2.9-.1-3,0-.4.4,0,7.9-.7,9.9-3.5,12.2-17.4,23.9-29.9,25.9-2.3.4-4.9-.4-6.8,0-1.1.2-.2,2-1.1,2s0-1.8-1.1-2.1c-1.9-.4-4.3.3-6.7-.2-12.1-2.3-23.5-11.6-27.9-23-.8-2-3.8-11.3-3.8-12.6h0ZM398,93.7c-8.3,1.4-20.9,5.4-26,12.4-1.5,2-1.5,4.1-2.3,5.2-.4.6-1.7.7-2.5,1.9-3.4,5.6-2.9,12.4-3.3,18.7l3,.5c.3,2-2.3.5-3,1s3,15,8,13c.5,1.8-2.3.4-2,1.5,1.2,4.3,12.1,11.1,16.3,12.7,4,1.4,7.8,1.5,11.7,2.8.3-1.3-.9-2.4-1-3.6,0-1.4,1.1-3.2,1-3.4-.5-.5-8.7-1.9-10.7-2.8-2.4-1.1-4.8-3.5-7-5.1-.9-.7-2.7-.8-3.1-1.3-.1-.2.5-1.3.1-1.8-2.3-4.2-5.2-7.8-5.4-13-2.1,0-1.9-.4-2,1.5-.1,2.6.1,5.3,0,8,0,1.2.8,3.7-1,3.5-.6-3.6.8-9.1,0-12.3-.3-1.2-5.2-1.5-4-6.1.5-1.7,4-2.2,4.9-1.5.7.5.5,3,.5,3.9s-1.5,3.3,1,1.1c0-5.1.2-7.9,2.3-12.7,12.5-28.3,56.3-18.6,54.2,12.6l1-4,6,1-1,5c2.6.4,2.1-.5,2-2.5-.2-14-7.3-26.6-20.3-32.6-2.4-1.1-12-4.2-13.7-2.8-.4.3,3.9,6.3-5,5l1-6h0ZM418,109.7c-.2-.3-5.9-3.4-6.8-3.8-7.9-3.6-17-3.2-24.6.9-.9.5-7.5,5.1-6.7,5.8,1.1,1,6-4.6,8-4.5,9.9-4.8,20.9-3,29.5,3.5.8.1.6-1.8.5-2h0ZM423.3,125.4c-.2-.4.6-1.7.3-2.8-1-3.4-6.9-9.2-10-11-11.9-6.8-26.6-3.9-35,7-1.5,1.9-6,10.4-4.5,12,.3.3,7.2-1.1,8.3-1.2,9.2-1.6,20.4-1.5,30.2-1.6,2.3,0,5.3,1.9,6.9,1.9.4,0,.8-3.3,3.6-2.1-2.1,3.1.6.9,1,3-12.2-.7-25.3-1.8-37.5-1-2.6.2-8.9,1.1-11.1,1.9-1.2.4-1.6-.6-1.4,1.5,1,8.8,11,18.6,19.7,20.3,1.1.2,5,.6,5.2.2.5-.7-.6-2.9.5-2.9s0,2.2.5,2.9c.9,1.1,9.4-1.1,11.2-2.1,8-4,12.3-10.9,14.7-19.4-4-.9-.4-.9-.4-3.5,0-2.9-2.2-2.9-2.3-3.1h0ZM436,133.6l-8-2c-.4,11-9.7,20.4-19.8,23.7-1.4.5-6.9,1-7.2,1.3-.3.2,1,3.1,1,4.4,0,1-1.2,2.3-1,2.6.5.4,11.4-2.4,13.3-3.2,6.6-2.8,14-9.2,17.5-15.4.9-1.5,4.7-10.9,4.2-11.3h0ZM428,154.5c-.6-.7-5.6,4.2-6.6,4.8-12.6,7.7-26.4,8.2-39.7,2l-11.6-8.3c5.6,9.1,16.9,14.9,27.5,15.5,9.6.6,20.5-3.1,27.6-9.5.8-.7,3.9-3.5,3-4.5h0Z"/>
        <path class="st0" d="M282,300l-1-31.9-100.6,8.8-3.4-.8,40.5-4c17.6-1,35.8-3,53-4.1,3.3-.2,6.9-1.5,10.5-.8.7-11.1,2.8-22,5-32.9-7.5,1.2-15,3.2-22.5,4-1,.1-4.7.8-4.5-1l27.8-4.1,2.1-8.8-49,9.5c1.1-1.6,2.8-1.3,4.3-1.7,14.3-3.6,30-5.1,44.4-8.5,3.1-1.2,4.5-14.2,11.9-15.1,4.4-.5,7.5,7.3,9.3,10.3l9-.6-8,2,5,18.4,2,2.5c-.3-2.4,6.7-12.3,6-12.9-.5-.4-4.2.9-5.5,1-1,.1-3.8.7-3.5-1,2.1,0,9.6-.6,10.6-2,.7-1-.6-2.4-.4-2.9,0-.1,1.3-.2,1.8-.9,4.9-7.1,9.1-16,13-23.8-1.3-11.6-3.7-23.2-5-34.8-.5-4.9-.2-10.9-.9-15.9-.2-1.4-3.4.5-3.1-1.5,1.8-.1,2.9,1,3-1.4.5-6.5-.5-13.5,0-20,1.5-18.7,11.5-39.9,21-55.8-.6-1.4-1.9,0-2.7.3-8.9,3.9-17.5,8.5-26.3,12.7l-3-.5,31.7-14.3c12.9-16.2,29.7-43,54.5-35.3,2.6.8,8,4.7,9.3,4.7,2.4,0,7.4-4.3,10.5-4l-9,5.5c25.9,21.7,42.2,56,47.1,89.1l24.9,9.1c.2,1.8-2.1.8-3.1.6-3.3-.9-20.5-9.1-21.9-7.6,1.1,23.6-2.8,47-6.7,70.1,3.3,5.4,5.9,11.5,8.9,16.9,2.8,4.9,3.8,4.7,5.2,9.7.2.7,6.5,12.3,7.1,12.9.4.5,1.2,1.4,1.5,1,.4-.5,2.1-9.7,2.7-11.8.4-1.4,3.6-7.9,3.3-8.2-.4-.3-7.6-.9-9.2-1.3-1-.2-3-.4-2.8-1.7l12.9,1.9c-.5-3.6,4.2-6.4,5.1-8.4.8-1.8-.8-1.3-1.5-1.5-2.8-.8-6.2-1.1-9.2-1.9-1.8-.4-2.8.7-2.3-2.1l59,13c.2,1.8-2.3,1-3.4.9-10.9-1.4-22.8-5.6-33.6-7.9l5.7,12c16.8,4,34,6.1,50.9,9.9,1.6.4,3.3-.2,4.4,1.6l-39.2-6.8-15.8-3.7c2.3,8.8,5.1,17.7,6.7,26.7.8,4.5-1.9,8.4,4.2,7.2l-3,1.5-.9,40.3h88c-1.1,3.3-4.1.9-6.5.9-13,0-26.2,0-39,0s-28.3.7-42.5,0l-3,46.9,71-9c-.4,1.8-1.9,1.9-3.5,2-22.5,2.5-45.1,5-67.5,7.9-.2,1.4,1.7,1.4,2.7,1.7,1.5.5,3,1.4,4.6,1.2l42.6-5.9c.3,1.4-1.9,1.3-3,1.5-13.3,2.6-27.5,3-41,5.5l-3.1,32.8,77.6-16.8,3.4.9-72.3,15c-1.4,3.6-4.7.4-7.9,2.2l-5.8,3.7c17.1,2.6,34.3,4.6,51.4,7.1,1,.1,3.7.4,3.6,1.9l-59.5-8.8-13.8,1.1-51.7,11.7c-.5-3,.7-1.6,2.5-2,14.5-3.1,29.2-5.8,43.5-9.5,1.1-.3,3.2,0,3-1.5-5.9,1.1-13.9-5.9-19.4-4.7-2.7.6-2,3.4-6.4-1l-45.7-6.3-13.6-2.9c24.8,1.9,49.2,7.5,74,10,0-1.5-.9-2.9-1-4.5-.5-7.3,0-16.9-1-23.9-.2-1.2-1.1-4.1-2.4-4.2s-14.6,2.8-14.6,1.2l22-3.5-3-49.8c-11.5,1-23.2-.9-34.5.9l-6.9,51c-7.2,2.7-15,3.1-22.6,2.9-.1,1.4,3.6,1.8,4.6,1.9,2.5.3,4.9,0,7.4.1l-6.5,1c-18.1-3.1-36.5-1.1-54.5-4.5-11.1-4.6-24.1-3.5-35.9-5.5-.3-1.7,2.4-1.1,3.5-1,9.1,1,18.3,2.8,27.5,3l-6.1-48.2-.8-1.2-36-.4-3,46.4c-.5,4.3,3.2,2.7,5.1,3.9,2.6,1.6,0,9.4,0,12-.3,5.9.6,11.6-1,17.4l48.4-6c.8-.2.6-2,1-1.9,5.3.9,13.3-.4,19.1-1.1,8.5-1,16.9-3.2,25.5-3l-8.6,1.9-14.4,1.1,1,2c-24.2,0-47.9,6.5-72,8v4l4,1c-3.2.5-4.5-.5-6.2,2.3l-8.8,2.7c6,.9,12.6,3.3,18.5,4,2.8.3,2.8,1.2,0,1-7.6-.4-15.6-4-23.1-4.9-8.4-1-15.7.3-23.9-4.1l-45.5,6c0-1.5,3.5-1.7,4.6-1.9,11.3-1.6,22.8-2.3,33.9-4.6,1-.2,2.8,0,2.5-1.5l-88-19,4.2-.7,89.8,19.7-2.5-33c-.4-3,6.3-1.6,6.5-3.5l-4.1-48.2c-9.8-.1-19.7.5-29.5.4-24.2,0-48.7-.4-73-.6-2.4,0-5.4,2.4-6.5-.9h109ZM398.9,33c-.8-.7-4.8.8-5.9,1.3-8.6,4.2-14.1,8.2-21,14.9-5.6,5.5,1.9,3.1,5,1,1.7-1.1,2.1-3.1,3.5-4.4,1.6.5-2.3,3.5,1,3,1.8-.3,3.5-1.5,5.2-1.8,6.3-1.1,12.7-.8,18.8-3.2l-1.5,2c3.7.4,8.5.7,12.1,1.6,2.4.6,14.3,5.9,14.9,5.3.8-.6-12.4-13.8-14.5-13.6-.9,0-2.6,2.5-4.5,1.7-.3-1.5,3-1.4,3-2.5,0-2.1-13-6.9-14.8-5.3-.4.3,0,1.6-.1,1.8-.8,1.2-1-1.7-1.1-1.8h0ZM445,154.5c0,8.6-.7,17.2-.9,25.8,8.1,1,9.5,7.3,12.8,13.6.5,1-.6,1.9,2.1,1.4l5.1-38.4c.4-2-1.6-1.2-2-1.5-2.1-1.4,1.9-2.1,2-2.6.6-2.8-.5-4.7-.9-6.9,0-.5,1.7-.2,1.9-1.1,1.3-5.2-1.5-12.8-1.1-18.2-3.5-1-8.3-.2-9.9-4.1l10,3c-1.7-20.8-11.8-39.5-21-57.8-2.9-.9-1.7,2.4-4,3l1-5c-.4-.4-4.1,3.5-3-2.4.2-1,2.4-.2,2-1.1-1.7-4.2-18.1-11.1-22.8-12.2-3.7-.9-11.2-2.3-14.7-2.3-2.4,0-4.8,1.4-7.2,1.7-5.1.6-9.3,0-14.9,2.2-3.5,1.5-2.4,2.8-3.5,4s-.2-2.5-2.4-1.9c-2.3.6-3.9,2.5-3.6,4.9-1.8.5-.4-2.3-1.5-2-1.9.5-5.4,4.1-6.5,6,3.5,1.2,2.9-2.3,4.6-2.9,1.4-.5,5,.2,5.4-.2.4-.5-.5-2.2.6-3s3.7.2,5.4-.3c2.9-1,7.2-4.2,10.7-5.4.8-.3,3.4-.6,1.8.8-1.5.7-4.4,1.4-5.5,2.5-1.4,1.5-1,4.7-3.5,4.5-1.6-.1-2.1-2.2-4.2-1.4-1.6.7-1.6,2.4-2.9,3.2-1.6,1-3.1,0-4.3.6-1,.5-1.5,1.9-2.8,2.3s-3.2-.2-4.1.4c-.4.3-.5,1.7-1.3,2.2-1.5,1-2.9.7-4.4,2.6-3.2,3.8-9.5,18-11.7,23.2-6.8,16.2-11.4,34.3-9.9,52.1.2,2.1,2.3,1.2,2.1,1.9-1.6,5-1.4,8.3-1,14,.5,7.5,1.9,16.3,3.1,23.8.6,3.5,1,7.3,2.4,10.6l4.5-8-5,1.5,13.9-8.1c-2.6-5.5-.5-28.8-2.8-31.7-.8-1-2-.5-3.1-.6-.3-1.9,2.2-.5,2.9-1,.4-.3.3-8.6,0-8.9-.2-.3-3.2,2-4,.5,6.4-1.4,3.5-5.7,4-11,.9-9.9,3.1-19.7,5-29.4,1.8-.2,1,2.2.8,3.2-1.1,5.8-2.9,11.4-3.6,17.3-.7,5.4-.4,11.8-1.1,17.3l6-1c-1.6,2.1-5.7,1-6,4.5l3,41.4c.4.4,10-1.5,11.3-1.9s.4-2.9.6-4c2-.3.1,2.8,1.5,3,3.8.7,13.3-1.8,17.9-2.1,12.5-.7,26.2,0,38.5,2.1.2,2-2,.6-3,.5-4-.3-8.6-1.4-12.5-1.6-7.3-.4-14.7.4-22,0l-31.5,5c.2,4.8,3.5,37.6,5.1,38.7,2.6,1.8,54.5-9.1,61.9-9.9.5,3-.7,1.6-2.5,1.9-19.8,3.4-39.7,6.3-59.5,10l2,1v1l-1.9.4c2.8,9.7,3,20,5.5,29.5l42-1.1c10.5,1.1,20.9,1.5,31.5,2.6,3.5.4,3.1-1.5,3-4.5l-14-2c5.2-21.1,7.4-42.7,10.1-64.2,1-7.8,2-24.6,3.9-30.5h0ZM458,204.3c1.5-1.8-4.5-12.4-5.8-14.6-.7-1.1-5-7.6-6.2-6.3-1,1.1,8.9,16.1,9.5,19-.2,1.4,1.6,3,2.5,2h0ZM353,184.4c-1.5-1.6-5.1,5.2-5.5,6-2.2,3.7-4.9,8.6-4.5,13l6.2-10.3c0-1.9,4.7-7.7,3.8-8.6h0ZM361,221.3l-5.5-34.9c-2.2,5-11.6,17.7-11.5,22.3s3.1,9.9,3,14.6c2.3-1.4,13.5-1.6,14-2h0ZM445,186.4c-1.3-1.1-1.9-.1-2,1.5-.7,19.6-5.7,40-9,59.3l13,2,5-17.9c1.3,3.9-4.6,15.9-3.9,18.3.2.7,9.9,6.1,12,8.1,5,4.8,8.9,11.6,12.5,17.5l7.5,16c-2.5-12.8-.1-26.1-.5-38.9l-14.4-27.3-3.1-.6,2-1.5-6-11.5-3,12c-.3.3-1.9-1.1-1.9-1.5,0-.5,2.7-7.7,2.9-10.1.5-6-5.8-13.6-8.6-19.1-.6-1.2-2-6-2.3-6.2h0ZM328,226.2l3.9-1.6c2.9-7.5,9.6-14.1,10.1-22.3-1.5.2-1.9,1.9-2.5,3-4.1,6.8-7.3,14.2-11.5,20.9h0ZM481,249.2c.3-2.3,1-3.4.3-5.6-3.2-9.9-13.3-21-16.7-31.3l-5.5-8.9-.9,4.2,22.8,41.6h0ZM346,221.3c-1.6-3.1-1.6-6.7-2.5-10-.3-.9-.2-2.3-1.5-2,.9,2.6-7.6,13.4-7,13.9.3.2,5.3,1,6.4,1,.7,0,4.8-.6,4.6-1.9-1.8,0-3.7,0-5.5,0-1.2,0-3.7.7-3.5-1h9ZM308,220.3c.3-.3-3.4-7-4-7.5-5.8-6-11.6,8.9-11,9.5.1.1,2.1-.9,3.5-1,1.7-.1,11-.6,11.5-1h0ZM506,221.3c.5-.4-4.4-10-7.5-10-2.3,0-5.9,5.6-6.5,7.6-.6,2.1.5,1.2,1.4,1.5,2,.6,11.6,1.7,12.5,1h0ZM296,225.3c3.6-.2,7.8.9,11-1.5l-8-1.5,2,2-8-1c-.3,1.8,1.7.6,2.9,1.1s0,.8.1.9c-5.3.4-6,1.3-6,7l21-3-1.6-4.1c-4.1.7-8.6,1.7-12.8,1.1-.9-.1-.5-.9-.6-1h0ZM361,222.3c-4.6.9-8,2.9-13,2l5,23.9-2.5-6c-.8-2.9-3.1-16.5-4.4-17.5-.5-.4-10.1,1.4-11.3,1.8-1.5.5-1.8,1.2-2.6,2.4-1.7,2.5-13,23.2-13.2,24.8-.4,3.2,1.9,10.9,2.1,14.8.4,7.4-2,14.9-1,22.5l10.2-21.3c5.9-8,13.2-17.4,22.9-21,2.7-1,10.6-1.3,11.5-2.5l-3.6-23.9h0ZM501,222.3c-1.5,0-3,0-4.5,0s-4-.9-3.5,1.5c2.5,2.8,6.8,1.1,10,1.5l-4-1,2-2ZM507.9,225.3c-.4-.3-8.3,1.1-10.5,1-3-.1-5.5-1-8.4-1-.6,4.6-8.5,30.8-6.8,32.8.2.3,1.3.1,1.8.1v1l-2,.7c.4,1.5-1.8,6.1.5,6.3.2,0,1.6-1,3-1,4.8-.1,10.7-.9,15.1-.9,1.6,0,6.8,1.6,7.4.9,1.6-1.8-2.7-22-1.5-25.9,1.6,5.6,1.9,11.6,2.5,17.5.2,2.5,1.1,1.4,3,1.5l-2.9,1v5.9s5.9,1,5.9,1c1.8-4.8-5.2-39.5-7.1-40.8h0ZM330,227.3c-1.7-1.8-6.5,7.1-7.2,8.3-2,3.5-4.7,8.7-4.8,12.6l6.2-9.3c.4-1.9,6.4-11,5.8-11.6h0ZM316.8,258c1.2-1.5-3.6-25.9-5.8-27.3-.9-.6-21.4,3-22,4-2,2.8-6.3,29.9-5,31.5l6-1v-5.4c-4.7-2,.1-1,.9-3.2,1.1-3,.1-13.3,1.1-17.3,1.7-.2,1.1,3.5,1,4.5-.6,7.1-1.4,14.3-2,21.4,9-.4,18.2-1.2,27,1v-6.5c-.1,0-3-.5-3-.5-.4-1.7,1.3-.6,1.8-1.1h0ZM365.9,249.3c-5.5.1-13-.6-9.9,6.9l11-1-1.1-5.9h0ZM320,300h35c-1-14.4-4.1-28.6-5-42.9h4l-1.5-5-8.5,5.5,3,1.5c-1.7,0-3.4-.2-5,.5-6.1,2.8-24.4,38.1-22,40.4h0ZM446,300h33c-2.3-11.2-7.5-24.6-14.6-33.8-2.7-3.5-6.6-8-11.4-7-.4-2,3.5-.4,3-1.5-.5-1-6-4.3-7.5-4.5-2.2-.3-1.9,1.8-1.6,3.4.2,1,4.5.4,4,3l-5,40.5h0ZM371,335.9h15.5c.9,0,6.2,2.8,3.5-2.5l-8-1.5h9c-.6-11.6-3.8-26,3.5-35.9.9,2.2-1.6,4.4-2.2,6.7-2.1,7.3-.7,11.7-.2,18.6.3,4.4-2,10.7,3,11.5v-26.4c0-.6,2.9-6.4,3.6-7.4,3.1-4.5,8.9-8.1,14.5-8v-3l-12,2.5c3.2-2.5,8-3.1,12-3.5v-6.4c-.1-1.2-4.5.2-4-4.1.4-3.6,4.2-1.9,5-2.5.2-.2,0-3.5,0-4.5,0-1.2-.8-3.7,1-3.5l-1,20.9,6,.5c-1.2,2.5-5.1-.4-6,.5-.1.1-.1,2.9,0,3,.2.1,3.6,0,5.1.5,7.2,1.9,10.4,7.4,11.8,14.3l-2.8,30.1,2.8-2.2c.5-12.8,5.1-26.2.2-38.6,3.5,1.7,2.8,6.4,3.9,9.6l-3,26.7,7.1,1.6,7-52.3c-.3-1.3-2.4,1.1-3,.5-.2-.1-1.2-3.8-1-4,.1-.1,2.7-.5,3,.7.2.9-.5,1.5,1,1.2-.4-2.8,2.7-19.2,2-19.9-.1-.1-2.6-.4-3.1.6-.9,2-.4,5.5-2.9,6.4,2.8-8.8,2-8.9-7-7l2-2c-4,.7-7.7-.9-11.5-1-14.4-.7-38.1-1.4-51.9.1-.8,0-4.4.8-4.6.9-.3.2.8,3.6,1.1,3.9,1.5,1.1,10.4-.9,12.9.6l-13,.5-.5,7-.5-7-12-1,2,4.5c-2.6,2.1-1.8-1.9-3.1-3.9-3.1-4.7-3.2.6-2.9,3.9.2,2.1,1.5,14.9,2,15.5,2.5,3,1.2-2.6,1.5-3,1.5-2.2,5.9.8,8.9,0,1.4-.3.6-3.6,4.2-3.1.5,0,.3,1.8,1.1,2,4.4,1.1,6.8-2.6,9.8-2,.7.1.4,1.9,1.2,2.1,4.6,1.1,5.1-2.3,7.1-2.9s5.4,3.7,9.1,1.6c.6-.3,1-3.1,5.2-1.7-.7,11.8-4.5,3.3-5.6,3-.2,0-4.2.3-4.4.4-.8.5-.7,2.4-1.6,2.6-2.9.6-5.4-3.1-9.7-2.1-.9.2-.1,2.1-2.1,2.1-2.7,0-4.5-3-7.9-2.1-1.2.3-.8,3.2-3.1,3.1-1.1,0-5.8-3.7-7.5-2-.1.1-.1,2.9,0,3,.8.7,18.2.9,20.5,1l7.5,2c-11.4-.9-22.7-1-34-3l9,68.8c4.6-2.3,43.3-5.5,45-4,3.8,3.2-6,1.1-6.5,1.2-9.8.2-22.1.5-31.7,2.1-1,.2-4,.3-3.8,1.7l28.5,3c9.4-.3,19.5-.2,28.8-1.3,1.6-.2,12.3-2.3,12.7-2.8.4-.4,0-4.7.2-6.3.2-1.7,2.2-8.3,1.9-8.6-1.6-1.4-10.8,1.7-13.5,2-8,.8-20.8.6-29,.5-7.3-.1-14.6-1.2-22-1.5-1.2,0-3.7.8-3.5-1h0ZM368,257.2c-.2-.2-3,.1-4,0,3,5-5.5-1.6-7,3,2.5.2,5-.2,7.5,0,1.3,0,3.3,1.2,3.5,1,.1-.1.1-3.8,0-4ZM292,351.9l-3.5-84.7c-1.6.6-4.6.8-5.1,2.5,1.4,8.6.2,17.3.6,26,.5,11.2,2.2,22.6,3,33.8.6,7.2.5,15.1,1,22.4h4ZM302,267.1c-3.5-.7-6.8,1.8-10,0l2,86.7c6.7-.9,13.2.3,20,0l-6-2,6-1.6,3.9-82.1c-2.1.7-17.3,2.6-18,2l2-3h0ZM506.5,267.1h-20.5c-.2,1.8,2.3,1,3.5,1,3,.1,8-1.2,9.5,2-6-.2-11.9-1.6-18-1l5.5,81.8,18.5-2c.2-3.5-.2-7,0-10.5,1.3-19.1,2.4-38.6,2.8-57.9,0-2.2.3-9.7,0-11.1-.2-.9-.4-2-1.3-2.3h0ZM514.9,268.2l-4.9-1.1-3,80.7c7.7,1.5,4.6-9,5-14.5.7-10.5,2.6-21.3,3-31.9.2-4.2,1-32.1-.2-33.3h0ZM410,331.9l2-38.9c-19.1,4.5-14.7,24-14,38.9h12ZM413,331.9c11.9,1.5,8.1-3.1,9-11.5.9-8.9,5.6-22.8-6.5-26.4-1.8-.5-1.4.2-1.5,1.5-.5,12.1-.8,24.3-1,36.4h0ZM426,333.9c-.5-11.4,6.7-27.8-2-36.9-.1,2.1,1.4,3.7,1.8,5.7,1.4,8.9-2.7,19.3-1.8,27.7.2,1.5.2,3.1,2,3.4h0ZM423,333.9h-23.5c-.2,0-1.6,1.4-1.5,2h25v-2ZM485,353.8h20c-.4-1.5,1.4-4-1.5-4-3.4,0-7.2,1.8-11,1.1l-7.5,3h0ZM319,354.8l-19.4,1.9-17.6-1.9c1.3,5.4-.3,20.2,2.5,23.9,3.2,4.2,19.6,3.7,24.9,2.9,1.2-.2,7.4-1.6,7.6-1.9.2-.5-2.2-1.5,1-2.6-.7-3.2,2.2-21,1-22.3h0ZM517,354.8c-.4-.4-8.9,1.3-10.9,1.4-2.7.2-5.6-.8-8.6.6l-17.5-2c0,8.3,1,17,2.1,24.8,7.8,2.4,17.1,3.1,25.3,2,.9-.1,7.2-1.7,7.5-2,.8-1,3-23.9,2.1-24.8h0ZM294,383.8c-2.1,1.2-9.7-2.4-10-2-1.2,1.5,0,5.7,3.4,3.9l6.6-1.9ZM515,382.8c-.7-.6-14.8,2.2-18.5,2-2.6-.1-7.1-.8-9.7-1.3-3.2-.6-5.5-3.6-4.8.8.8,4.6,4.2,1.2,6.4,1.4.7,0,.4,1.9,1.3,2.1,3.5.9,11.2,1.3,14.8,1,2.1-.2,8.4-1.7,9.9-2.9.8-.7.9-2.8.6-3h0ZM318,382.8c-.9-.7-11.2,1.7-13.5,2-2.1.3-5.1-.5-6.9.1-1.6.6-1.4,2.5-1.6,2.9-.9,1.1-.9-1.6-1.5-1.8-.3-.1-6.8.3-6.5,1.8,8.7,1.8,16.1,1.9,25,1l-2-3,6,1,1-4h0Z"/>
        <path class="st0" d="M78,385.7h144.5c.2,0,2.5-1.8,2.5.5v59.3h-99v-2h39c0-3.1.5-6.2-1-9h59v-27.9h-116v36.9h18v2H9v-59.8h68l.5-13,.5,13h0ZM9.9,386.7v18h213.1v-18H9.9ZM57,406.7H10v8c15.6.1,31.4.1,47,0v-8ZM106,406.7h-47v9l47-1v-8ZM57,416.6H10v8h47v-8ZM59,416.6v8h47v-8h-47ZM57,425.6H10v9h47v-9ZM59,434.6h47v-9h-23.6s-23.5,0-23.5,0c0,0,0,9,0,9ZM57,435.6H10v8h47v-8ZM77,435.6h-18v8h47v-8h-28l-.5,7-.5-7ZM166,436.6v7h57v-7h-57Z"/>
        <path class="st0" d="M84.7,250.5c3.4,3.8,3.4,9.8,4.5,11.4.5.7,11.7,6.4,14.1,8.2,1.9,1.5,7.7,6.9,8.3,8.9,3.1,9.5-5.6,10.5-13.1,10.1-6.7-.3-15.2-3.9-21-4.1-2.2,0-4,1-6,1-10.2.3-14.7-.7-21.5-8.5-1.3-1.5-1.6-3.7-3-5-4.1-3.8-13.8-7.1-19.5-12.5-12.3-11.7-4.2-17,9.9-15.9,4.4.4,13.1,3.6,16.1,3.5,1.7,0,3.7-2.7,6-3.6,8.3-3.1,19.4-.2,25.1,6.3h0ZM86,273.1c8.3-20.5-19-38.5-33-21.2-.6.8-4,5.4-4,5.7,0,2.2,32.3,14.6,37,15.5h0ZM52,249.2c-6.2-.5-12.7-2.6-18.9-2.7-1.7,0-8.4.9-9,1.8-1.4,2,1.3,6.7,2.9,8.4,12.9,13.5,54.9,30.3,73.5,30.4,8.9,0,12.4-3.8,5.9-10.9-1.8-1.9-13.9-10.7-15.9-11.1-1.8-.3-2.2,1.2-1.5,2,.2.2,4.3,1.5,5.9,2.6,3.3,2.2,9.1,6.3,2.9,7.7-8.2,1.9-44.7-13.5-53.1-18.5-3.5-2.1-15.4-9.9-4.2-9.9,3.6,0,9.6,3.6,11.5,0h0ZM49,253.2l-10-2c1.5,3.1,4.8,4.3,7.5,5.9l2.5-3.9h0ZM97,275.1c-.2-1.6-7.7-6.4-8-6l-1,5,9,1h0ZM72,284.1l-3.4-2.1-17.6-6.9c4.4,7.1,12.9,10,21,9h0Z"/>
        <path class="st0" d="M39,7l.5,3h53.9c1.2-.2.2-2.4.5-3.1,0-.1,2.9-.1,3,0,.7,1.1,1.2,9.6,1,11.5-1.2,13.9-8.1,20.1-19.3,26.4-.7.4-.7,1.7-.9,1.8-.5.2-9,1.1-10.4,1.2-16.8,1.1-33.1-15.6-32.5-32.3,0-1.2,2.2-11.9,4-8.5h0ZM38,14.9h57v-4c-2.8,0-5.7,0-8.6,0-1,0-6.5,0-6.8.2-1.8.7-2.4,6.2-2.6-.2l-37.3,1.2c-1.2.2-2.2,2.3-1.7,2.8h0ZM76.8,16.2c-1.6-1.4-33.7,1.4-38.9.8v3h57v-4c-4.8.7-12-1-16.4,0-1.1.2-.2,2-1.1,2s-.1-1.3-.7-1.8ZM39,24.9h55l1-4h-31.5c-8.1.3-16.5,1.2-24.5,0v4h0ZM93,25.9l-53,.5,1.7,3.5c16.8,0,33.5-.1,50.2-.2.2-.9,1.7-3.3,1.1-3.9h0ZM76.9,31c-.7-1-20.8.9-24.5,0-2.5.4-5,.6-7.5.4-.8,0-2.9-.9-2,1.1.8,1.7,2.7,2.4,4.4,2.5,12.4,1.4,27.4-1.2,40.1,0,1.1.5,3.7-3.9,3.4-4-.5-.4-12.6-.5-12.9,0-.5.7.6,3-.6,3s0-2.3-.6-3h0ZM87,35.9h-40c-.5,3,4.3,3.9,6.4,4,6.2.6,22.1.8,28-.1,2.2-.3,4.7-1.8,5.6-3.9ZM77,40.9h-24c.2,1.6,3.7,2.1,5,2.5,6.2,1.7,10.7,2.3,17,0,.8-.3,3.8-1,2-2.4Z"/>
        <path class="st0" d="M26,7c.6,4.8-.9,9.8-6,11l5,4.5c.8,1,2.3,3.3,2.6,4.5.8,3.3-3.5,8.9-2.5,10,.1.2,2-.7,4.2.2,9.3,3.4,5.8,12.8,6.8,13.8.4.5,7-3,12,1.5,2.5,2.3,2.5,6.8,3,7.4.5.6,6.4-6.3,12.9-2.4,1.6.9,4.5,5.5,6.1,4.4.3-.2,1.2-3.4,3.5-5,5.4-3.8,12.9,1.7,13.5,1,.4-.4-1-6,4.1-9.4,3.5-2.3,9.6-1.2,10-1.5s-1.4-6.3.6-9.9c2.4-4.5,7.5-4.2,8.4-5,.9-.8-2.4-4-2.8-5.7-1.1-4.8.7-10.1,5.8-11.3-1.5-3.3-6.8-3.4-6-8l11,6.5c.4,1.8-4.8,3.3-6.5,5.4-2.9,3.5-2.4,6.3.3,9.8.8,1.1,5.2,3.8,3.3,5.2-1.1.8-9-.5-11.5,5-2.2,4.8,1.3,6.8,2.1,9.9,1,4-6.9.2-8.9.3-9.4.6-6.9,12.8-7.7,13.7-.9,1-8.3-6.5-11-5v10c-1.8.2-1-2.3-1-3.5,0-4.3.6-8.9-4-3-1.4,1.8-2.2,5.9-3.5,6.5-1.6.8-1.4-.8-1.7-1.3-3.1-5-4.9-10-12.1-6.5-1.9.9-5.8,6.4-7.7,4.7-.1-.1.9-1.8.8-3.2-.2-1.9-1.4-6-2.8-7.2-4.7-4.2-12.9,1.6-14,.5-.9-.9,5-11.8-3.4-15-2.3-.9-9.6-.7-9.6-2.4,0-.7,6.6-4.7,5.8-9.8-.7-4.2-5.6-5.7-8.6-7.5-.6-.3-2-.1-1.3-1.7s5.4-2.5,6.5-4.4l4.5-7h0Z"/>
        <path class="st0" d="M495,434.6h109v11h-109v-11h0ZM497,436v7.6h105.1v-7.6h-105.1Z"/>
        <path class="st0" d="M78,167.4c-2.3-.4-.3-6.3-1-7-.6-.6-4,1.7-5.5,1.9-16.9,2.6-26.8-17.4-13-27.9,13.5-10.2,32,5.5,22.9,20.9-.8,1.4-2.8,2.2-3.3,3.7-.7,2.4,0,5.7-.2,8.3h0ZM76.8,136.7c-1.4-2.1-10.1-3.9-12.8-3.2l4.1,3.4c3.7,1.2,7.1,2.6,10,5.2v12.3c-1.8.2-1-2.3-1-3.5,0-2.2,0-4.3,0-6.5-1.8,1.3-3.7-.1-5.3.2-2,.4-4.2,3.8-6.7,3.8,5.6,5.4.9,5,.9,5.5,0,.8,1,2,1,3.1.2,2.8-3.3,4.9,4.3,3.2,4.6-1,9.3-6.6,9.8-11.2.2-2.3-.2-9.5-2.5-10.5-1-.4.3,2.5-1.5,2-.1-1.1.4-2.9-.2-3.8h0ZM66.2,139.4c-.4-.2-1.7-5.2-3.7-1.9-1.5,2.5,1.2,5.4-.5,7.9l4,1.1c-.8-5.3,1.9-1.5,3.5-2.3,1.5-.7,1.2-2.4,1.5-2.7.9-1.1.9,1.5,1.2,1.7.6.7,6.2-.2.5-3-1.8-.9-3.8.2-4.2.1-.6-.2-.3-1.4-.7-1.6-.3-.3-1.4.8-1.7.6h0ZM65,153.5l-6.5-11.9c-5.5,4.9-3.6,16.2,4,17,1.1.1,3,.6,2.5-1.5,0-.2-.9-2.4-1-2.5,0-.1-2.7,2.6-2-1h3Z"/>
        <path class="st0" d="M83.4,305.5c0,8.6-7,15.7-15.7,15.7s-15.7-7-15.7-15.7,7-15.7,15.7-15.7,15.7,7,15.7,15.7ZM64,318v-25.9c-.9.3-4,2-4,2.5v20.4h-1v-19.9c-3.2,3-5,7-4.8,11.4,0,1,.4,5.5,1.8,5.5,0-2.8-.1-5.7,0-8.5,0-1.2-.8-3.7,1-3.5v14.5c0,.5,3.8,2.7,4,2.5.4-.6-1-3.3,1-3l2,4h0ZM65,292v26.9h4v-26.9c-2.5.4.1,8-1.5,8s.5-11.5-2.5-8ZM72,292h-2v26.9l4-1v-16h1v15c.7,0,2-1.3,2-1.5v-19.9c0-.5-3.1-2.2-4-2.5v22.9h-1v-23.9ZM78,314c1.6-.8,3.9-7.3,3.9-8.5,0-1.6-2-7.7-3.9-8.5v16.9h0Z"/>
        <path class="st0" d="M89,221.3h17v1h-17c-.4,0-2.1,5.7-3.2,7.3-15.2,22.4-50.3,1.7-37.6-22.5,11.5-21.9,45.6-10.2,40.8,14.2h0ZM87.2,217.2c0-10.7-8.7-19.4-19.4-19.4s-19.4,8.7-19.4,19.4,8.7,19.4,19.4,19.4,19.4-8.7,19.4-19.4Z"/>
        <path class="st0" d="M79.7,84.8c0,6.6-5.4,12-12,12s-12-5.4-12-12,5.4-12,12-12,12,5.4,12,12ZM64,74.8v17.9h-1v-15.9h-1v14.4c0,.4-2,1,.7,2.3,4.4,2.2,12.7.5,14.2-4.6.3-1,.1-8.3-.3-9.2-.7-1.3-5.4-4.7-7-5-1.9-.3-1.4.1-1.5,1.5,0,1.6.4,10.5-.5,10.5s-.4-7.1-.5-8.5c0-1.2.8-3.7-1-3.5-.1,3.1.1,6.3,0,9.5,0,1.2.8,3.7-1,3.5-.7-3.8,1.3-9.8-1-12.9h0Z"/>
        <path class="st0" d="M233,167.5l-6.5,2c-23.9,1-47.7,3.2-71.5,6-1.5-1.3,0-1.8,1.5-2,15-1.1,29.9-5,45-6h31.5Z"/>
        <path class="st0" d="M183,197.9c-.1.9-1.5,5.9-1.9,6.9s-3,.7-3.1.6c-.5-.5,2.8-10.5,3-13.4.2-2.2.4-8,0-9.9-.1-.4-4-1.1-2-2.6.4-.3,9.4-2,10.5-2,10.3,0,9,12-2,13-1.4.1-1.8-.6-1.5,1.5s2.4,5.6,4,7c3.2,3,9.8,2.2,7.6,6.4-8-1.3-13-6.4-13.3-14.7-.2-3.8,10.5-.8,10.5-6.7s-11.7-3.9-11.7-2c0,5,.5,11.2,0,15.9h0Z"/>
        <path class="st0" d="M136,163.5c.9,2.4-3.2,2.8-4.6,2.9-3.2.3-10.5-1.3-12.9,1-1.1,1.1-2.1,6.3-1.5,7,.3.4,8.2-2.5,10-.5-1.7,4.2-9.8,1.6-10.9,2.6s-1,13.9-2.6,13.9c-2.3,0-2-3.1-1.9-4.5,0-4.7,2.4-9.9,2.5-14,0-2.8-2.3-4.9.6-6.3.7-.3,6.5-2.2,6.8-2.2h14.5Z"/>
        <path class="st0" d="M64.7,169.6c16.3-3.7,18.3,19.8,4.5,21.6-13.9,1.8-16.6-18.8-4.5-21.6ZM74.8,174.6l-13.9-.7c-8.6,12.6,11,22.8,15.4,8.6.6-1.9-.3-7-1.5-7.9Z"/>
        <path class="st0" d="M221,145.5l1,4c5-3.4,9.3-6,7.8,2.3-.4,2-2.8,5.9-2.8,6.2,0,2.7,5.3-1.3,4,2.5-10.6,3.2-.9-9.6-3-11.9-1.4-1.5-5.8,5.2-6.2,6.2-.8,2.1-.6,9-3.3,4.7-1.6-2.4,3.1-8.8,1-12-6.2,3.6-5.5,11-10.5,14.9.3-2.6,1.4-4.6,1.6-7.3.2-2-1.1-8-.6-8.6,2.5-2.9,1.8,4.9,2.5,5,1.7-1.4,6.1-7.6,8.5-6h0Z"/>
        <path class="st0" d="M77,344.9c-.2-.3-3.8,3.3-5.7,3.8-14.3,3.3-19.8-14.8-8.2-20.1,1-.5,4.1-1.5,4.9-1.1,3.6,1.9-5.3,3.1-6,3.9-2.9,3.5-4.1,10.8,0,13.9.4.3,1.3-.3,1.7,0,.2.1.2,1.2,1,1.5,5.7,2.2,12.7-4.1,11.9-9.9-.2-1-2.4-5.6-2.8-5.8-.1,0-.2.5-1.9-.3-.6-.3-3-1.1-2.9-1.3,1.4-3.6,7,1.3,8,3,3.1,4.9.5,7.6.5,12,0,5.9.7,11.9.5,18,0,1.2.8,3.7-1,3.5v-20.9h0Z"/>
        <path class="st0" d="M61,124.6c.3-.2-3.3-3.8-3.8-5.7-2.3-10.1,7.4-18.2,16.5-12.5,9.1,5.7,4.6,20.2-6.2,20.2-8-2.3-16.6-.7-25-1-1.2,0-3.7.8-3.5-1h22,0ZM76.8,117.4c1.5-2-2.1-7.9-3.8-9.2-1.7-1.4-8.8-1.8-10.7-.3-2,1.5-3.9,7.5-3.3,10.1.2.8,1.6.6,1.8.8.5.6-2.6,3.1,4.2,5.2,3.8,1.2,7.9.6,10-3.1.8-1.3.2-2.8.4-3.1.2-.2,1.2-.1,1.4-.4h0Z"/>
        <path class="st0" d="M512,40.9c-1.1,4.5-11.3,2.3-12,3-.3.3.9,3.3,1,4.5.3,4.2.2,10-1,14-.4,1.4.7,1.8-2,1.5-1.6-3.4,1.2-18.5,0-19.9-.1-.1-2.1.9-3.5,1-2.2.2-4.8,0-7,0-1.9,0-1.6.1-1.5-2,8.7-.8,17.2-2.7,26-2h0Z"/>
        <path class="st0" d="M503,73.8c-.8-.8-6.9.8-8.5,1-1,.1-3.8.7-3.5-1,8.1-2.2,16.4-5.2,25-5-.9,3.8-10,3.2-11,4-.7.5.9,13.8.4,17-.3,1.8.3,3.5-2.4,2.9v-18.9h0Z"/>
        <path class="st0" d="M562,38.9c.4,2.7-.7,7,.1,9.4.5,1.6,2.7,1.4,2.9,1.6.6.8-1,3-1.5,2.9-1.8,0-3.2-5.2-2.5-7l-3.5,5c-3.6,4.8-12.4,3.4-10.4-3.3.8-2.5,8.5-8.8,11.8-7.7-.4,1.6-2.9,1.7-4.5,3-4.1,3.2-8,10.1-.2,7.8,3.2-1,5-6.3,5.7-9.3.4-1.7-1.1-3,2-2.5h0Z"/>
        <path class="st0" d="M570,77.7c-.7.7-3-1-3.5-2-.7-1.6.3-4.1-1.5-4,.1,4.9-9.1,10.9-12.1,6.3-4-6.3,5-13.1,11.1-12.3l-7.3,4.1c-7.6,6.5,3.2,10.5,6.6,2.6,1-2.4.6-5.6,2.3-7.7,2.7,2.1.9,5.6,1.7,8.3.4,1.3,4,3.5,2.8,4.7h0Z"/>
        <path class="st0" d="M177.9,148.6c1.7,2.2-2.4,12.4-1.9,12.9.8.7,7-2.8,4,.5l-5,1.5c-2-4.6,2.1-9.3.5-13.9l-2.8,2.2-5.7,11.7c0-1.8-.2-3.6,0-5.4.4-2.6,3.9-9.1-.5-7.5-3.3,1.2-5.8,9.7-7.2,12.8-.3.7-.9,3.8-2.4,2-.5-.6,1.8-5,2-6.6.2-2.3-.6-3.5-.8-5.2-.6-5.6,2.1-5,3.3-.2,1.9-.8,3.5-4.9,4.1-5,3.1-.7,4.7,1,4.4,4,2.1-.9,5.6-6.9,7.9-3.9h0Z"/>
        <path class="st0" d="M582,53.8c-.4,1.9-2.1,1.7-3.5,2-10,2.7-21.2,3.9-31.5,4.9-.2-1.4,1.8-1.5,2.8-1.7,10.6-2.6,21.4-3.8,32.2-5.3h0Z"/>
        <path class="st0" d="M523,63.8l-8.6,2.9c-8.5.4-16.8,2.7-25.4,2.1-.2-1.4,2.7-1.5,3.8-1.7,10-1.6,20.1-3.1,30.2-3.3h0Z"/>
        <path class="st0" d="M199,147.5v7c.4.4,9.6-1.2,7,2-.6.7-5.7.8-6,1-.8.6,1.7,6.1-2,4.9,1.2-9.9-4.5-2-8-7h6.9c2.3-1.9-2.3-8.9,2.1-8h0Z"/>
        <rect class="st0" x="468" y="124.6" width="48" height="1"/>
        <polygon class="st0" points="247 240.2 222.4 245.1 210 246.2 233.6 241.3 247 240.2"/>
        <ellipse class="st0" cx="67.6" cy="360.8" rx="3.6" ry="3.6"/>
        <rect class="st0" x="127" y="221.3" width="37" height="1"/>
        <rect class="st0" x="177" y="221.3" width="35" height="1"/>
        <rect class="st0" x="177" y="124.6" width="35" height="1"/>
        <path class="st0" d="M370,385.7v27.9h-1v-25.9c0-.2-2.6.3-3,0-2.3-1.5,2.3-2.7,4-2Z"/>
        <path class="st0" d="M239,160.5c1.2,1,5.9-3.2,5,1-1.7-.4-3.3.6-4.8.8-7.2.6,2.4-7.2,1.8-7.7-1.2-1-5.9,3.2-5-1,11.6-3.1,2.5,6.5,3,7h0Z"/>
        <polygon class="st0" points="548.4 158.9 571 167.5 570.4 169 547.8 160.4 548.4 158.9"/>
        <path class="st0" d="M515,86.7l5-1c-1,3.2-8.9,3.8-6.5,0,.5-.8,4.8-3.9,3.5-5-1.5-1.3-3.2,3.7-5,.5,1.3-1.8,3.5-1.9,5.4-1.4,3.9,1.1-2.9,6.5-2.4,6.9h0Z"/>
        <rect class="st0" x="573" y="221.3" width="29" height="1"/>
        <rect class="st0" x="574" y="124.6" width="29" height="1"/>
        <rect class="st0" x="369" y="426.6" width="1" height="27.9"/>
        <rect class="st0" y="124.6" width="28" height="1"/>
        <rect class="st0" x="1" y="221.3" width="27" height="1"/>
        <rect class="st0" x="369" width="1" height="25.9"/>
        <path class="st0" d="M576,81.7h-3c-.8-2.8,2.4-4.5,3-6.5s-1.7-1.8-2-1.4c-.4.5,1,2.7-2,2-.7-3.7,5.5-3.8,6-1.5.4,1.7-4.5,4.5-2,7.4h0Z"/>
        <rect class="st0" x="273" y="124.6" width="23" height="1"/>
        <path class="st0" d="M146,176.4c.8.8-.8,3-2.5,3.1-2.4.2-5.5-3.4-9.5,0-.1-4.6,5.9-2.3,7.8-2.2s4-.9,4.2-.8h0Z"/>
        <path class="st0" d="M577,226.3c.2,1.8-2.3,1-3.4.9-7.9-1-17.4-3.8-25.6-5.4-1.1-.2-3.2,0-3-1.5,11,.4,21.1,4.9,32,6Z"/>
        <path class="st0" d="M574,43.9c.2.2,0,5.3,0,6.5,0,1.6-.9,2.8-2,1.5v-6l-3,.5c.7-1.3,4.1-3.5,5-2.5h0Z"/>
        <polygon class="st0" points="165.2 360.3 183 363.8 182.7 365.3 164.9 361.8 165.2 360.3"/>
        <path class="st0" d="M513,54.8l-3,1c4.3-5.1,4.7-2.5,5.1,2.4,0,.7,1.5,3.6-.6,3.5-1.8,0-1.6-5.7-1.5-7Z"/>
        <polygon class="st0" points="510.6 144 525 149.5 524.4 151.1 510 145.5 510.6 144"/>
        <rect class="st0" x="251" y="124.6" width="20" height="1"/>
        <polygon class="st0" points="576.4 169.9 591 175.4 590.4 176.9 575.8 171.4 576.4 169.9"/>
        <path class="st0" d="M146,172.4c1.3,1.4-1.4,2.8-2.7,2.8-2.8,0-5.9-3.1-10.3-.8,0-1.3,4.1-2.4,4.9-2.5,1.8-.2,2.9,1.4,4.6,1.6,1.4,0,3.2-1.2,3.4-1h0Z"/>
        <rect class="st0" x="302" y="124.6" width="19" height="1"/>
        <rect class="st0" x="535" y="124.6" width="19" height="1"/>
        <path class="st0" d="M577,67.8l5-3.5-5-1c7.3-5.3,9.1,6.4,0,4.5Z"/>
        <path class="st0" d="M571,30.9c-.7,2.8,3.6,1.8,4,3.5.7,3.3-3.3,4.1-6,3.4-.2-2.1,3.3-.5,4-1,.1,0,.1-2.9,0-3-.5-.3-3,.2-4,0l2-3h0Z"/>
        <rect class="st0" x="108" y="124.6" width="18" height="1"/>
        <path class="st0" d="M204,247.2l-5.8,1.7-9.2,1.3c-.2-1.4,1.8-1.5,2.8-1.7,3.9-.8,8.2-1.4,12.2-1.3h0Z"/>
        <rect class="st0" x="108" y="221.3" width="18" height="1"/>
        <path class="st0" d="M519,44.8c-.6.6-3.5-.2-4-1.5-.1-.3,3.2-1.9,4-4,.9-2.4-2.4-.6-2-2.5,8.1.6,1.4,3.9,1.2,5.6-.1.9,1.1,2.1.8,2.3h0Z"/>
        <polygon class="st0" points="303.6 90.9 304.3 92.3 291.4 98.5 290.7 97.1 303.6 90.9"/>
        <polygon class="st0" points="267.6 107.8 268.3 109.3 255.4 115.4 254.7 114 267.6 107.8"/>
        <rect class="st0" x="127" y="124.6" width="18" height="1"/>
        <path class="st0" d="M188,158.5c.1.6.6,11-2,8-.2-.2,0-4.1,0-5.4-.3-2.5-2.7-2.8,2.1-2.6Z"/>
        <polygon class="st0" points="357 401.7 356.5 403.7 343 399.7 357 401.7"/>
        <rect class="st0" x="517" y="124.6" width="17" height="1"/>
        <rect class="st0" x="225" y="221.3" width="17" height="1"/>
        <path class="st0" d="M368.9,369.6c.5-.4-.6-2.2,1.1-1.8-.2,3.2,3.9,3,6.5,3s2.9,1.2,0,1l-19.5-2c1.6-3.8,10,1.3,11.9-.2h0Z"/>
        <rect class="st0" x="388" y="221.3" width="33" height="1"/>
        <rect class="st0" x="369" y="223.3" width="1" height="27.9"/>
        <rect class="st0" x="369" y="180.4" width="1" height="20.9"/>
        <rect class="st0" x="369" y="285.1" width="1" height="31.9"/>
        <rect class="st0" x="369" y="320" width="1" height="27.9"/>
        <ellipse class="st0" cx="422.9" cy="277.6" rx="2.8" ry="2.8"/>
        <path class="st0" d="M383,304c-1.8,0-5-.3-5,2.5,0,3.8,4.7,1.3,5,3.5-5.9,2.6-9.2-5.7-2.7-7.3,1.6-.4,2.1-.8,2.8,1.3h0Z"/>
        <path class="st0" d="M391.5,84.7c-1.5-.1-6.4-1.3-8.1-1.9-2.7-.8-2.3-1.2.2-1.2,3.7,0,7.3,1.7,11,2,3.9.3,8.1-.2,12,0,1.2,0,3.7-.8,3.5,1-6-.4-12.6.5-18.5,0Z"/>
        <path class="st0" d="M361,93.7c-2,.2-.8-3-.5-4,.9-3.7,2.8-7.4,3.8-11.2l3.8-7.7-7,22.9Z"/>
        <path class="st0" d="M400.2,52.6c.5.8,3.2.7,2.8,2.7-.8,3.5-8.4,2.8-5.7-2.2.1-.2,2.7-.6,1.7-3.2,1.8-.3.5,1.7,1.2,2.8h0Z"/>
        <rect class="st0" x="369" y="75.8" width="1" height="20.9"/>
        <ellipse class="st0" cx="296.5" cy="275.1" rx="2.9" ry="2.9"/>
        <ellipse class="st0" cx="502.6" cy="286" rx="3" ry="2.9"/>
        <path class="st0" d="M504.9,295.1c3.1,4.3-6.8,7.9-5.5,1.8.6-3,4.3-3.5,5.5-1.8Z"/>
        <ellipse class="st0" cx="501.8" cy="319.2" rx="2.8" ry="2.8"/>
        <rect class="st0" x="77" y="252.2" width="1" height="16.9"/>
        <polygon class="st0" points="78 221.3 85 221.3 85 222.3 50 222.3 50 221.3 77 221.3 77 203.3 78 203.3 78 221.3"/>
      </g>
    </g>
  </g>
</svg>